<svg width="50" height="50" viewBox="0 0 50 50" fill="none" xmlns="http://www.w3.org/2000/svg">
<circle cx="25" cy="25" r="25" fill="#5B97FC"/>
<path d="M35.9764 31.6057C35.0964 30.725 34.0682 30.0062 32.9389 29.4823C34.5314 28.192 35.5475 26.2233 35.5475 24.0155C35.5475 20.1202 32.299 16.9245 28.4037 16.9842C24.5682 17.044 21.4779 20.1694 21.4779 24.0155C21.4779 26.2233 22.4975 28.192 24.0865 29.4823C22.957 30.0059 21.9287 30.7247 21.049 31.6057C19.1295 33.5288 18.0396 36.067 17.9693 38.7741C17.9684 38.8116 17.975 38.8489 17.9887 38.8839C18.0024 38.9188 18.023 38.9506 18.0492 38.9775C18.0754 39.0044 18.1067 39.0257 18.1413 39.0403C18.1759 39.0549 18.213 39.0624 18.2506 39.0623H20.2193C20.3705 39.0623 20.4971 38.9428 20.5006 38.7916C20.5674 36.7526 21.3935 34.8436 22.8455 33.3952C23.5885 32.6482 24.4722 32.0561 25.4456 31.6529C26.419 31.2498 27.4627 31.0438 28.5162 31.0467C30.6572 31.0467 32.6717 31.8799 34.1869 33.3952C35.6353 34.8436 36.4615 36.7526 36.5318 38.7916C36.5353 38.9428 36.6619 39.0623 36.8131 39.0623H38.7818C38.8194 39.0624 38.8565 39.0549 38.8911 39.0403C38.9257 39.0257 38.957 39.0044 38.9832 38.9775C39.0094 38.9506 39.03 38.9188 39.0437 38.8839C39.0574 38.8489 39.064 38.8116 39.0631 38.7741C38.9928 36.067 37.9029 33.5288 35.9764 31.6057ZM28.5162 28.5155C27.3139 28.5155 26.1818 28.0479 25.3346 27.1971C24.9094 26.7753 24.5735 26.2721 24.347 25.7176C24.1205 25.1631 24.008 24.5687 24.0162 23.9698C24.0267 22.8166 24.4873 21.7022 25.2924 20.876C26.1361 20.0112 27.2646 19.5295 28.4705 19.5155C29.6623 19.5049 30.8189 19.969 31.6697 20.8022C32.5416 21.6565 33.0197 22.7991 33.0197 24.0155C33.0197 25.2178 32.5521 26.3463 31.7014 27.1971C31.284 27.6165 30.7875 27.949 30.2408 28.1753C29.6941 28.4016 29.1079 28.5172 28.5162 28.5155ZM19.7096 24.9436C19.6779 24.6377 19.6603 24.3284 19.6603 24.0155C19.6603 23.4565 19.7131 22.9116 19.8115 22.3807C19.8361 22.2541 19.7693 22.1241 19.6533 22.0713C19.1752 21.8569 18.7357 21.5616 18.356 21.1889C17.9086 20.7551 17.5566 20.2328 17.3223 19.6553C17.0881 19.0779 16.9768 18.4579 16.9955 17.835C17.0271 16.7065 17.4807 15.6342 18.2717 14.8256C19.14 13.9362 20.3072 13.451 21.5482 13.4651C22.6697 13.4756 23.7525 13.9081 24.5717 14.6745C24.8494 14.9346 25.0885 15.2229 25.2889 15.5323C25.3592 15.6413 25.4963 15.687 25.6158 15.6448C26.2346 15.4303 26.8885 15.2791 27.56 15.2088C27.7568 15.1877 27.8693 14.9768 27.7814 14.801C26.6389 12.5405 24.3045 10.9795 21.6045 10.9373C17.7057 10.8776 14.4572 14.0733 14.4572 17.9651C14.4572 20.1729 15.4732 22.1416 17.0658 23.4319C15.9478 23.9487 14.9178 24.6623 14.0248 25.5553C12.0982 27.4784 11.0084 30.0166 10.9381 32.7272C10.9371 32.7647 10.9437 32.802 10.9574 32.837C10.9711 32.8719 10.9917 32.9038 11.0179 32.9306C11.0441 32.9575 11.0755 32.9788 11.11 32.9934C11.1446 33.008 11.1818 33.0155 11.2193 33.0155H13.1916C13.3428 33.0155 13.4693 32.8959 13.4728 32.7448C13.5396 30.7057 14.3658 28.7967 15.8178 27.3483C16.8514 26.3147 18.117 25.5975 19.4986 25.2495C19.6357 25.2143 19.7271 25.0842 19.7096 24.9436Z" fill="#F4F6FA"/>
</svg>
