<svg width="577" height="403" viewBox="0 0 577 403" fill="none" xmlns="http://www.w3.org/2000/svg">
<path d="M25.7025 154.656C26.2542 188.691 38.9851 192.376 54.6192 188.826C72.4793 184.771 87.1383 172.06 94.3632 155.243L99.3458 143.645C102.658 135.935 102.77 127.225 99.6558 119.432C96.5418 111.64 90.4573 105.402 82.7408 102.092H82.7408C78.92 100.453 74.8136 99.5826 70.6559 99.5294C66.4983 99.4763 62.3709 100.242 58.5094 101.783C54.6479 103.323 51.128 105.609 48.1505 108.509C45.173 111.409 42.7963 114.867 41.1561 118.685C25.1226 124.978 21.956 138.007 25.7025 154.656Z" fill="#2F2E41"/>
<path d="M126.228 86.1527L131.027 78.039C131.613 77.0482 131.966 75.9376 132.061 74.7907C132.157 73.6438 131.991 72.4902 131.576 71.4165C131.161 70.3428 130.508 69.3769 129.667 68.5913C128.825 67.8057 127.816 67.2207 126.716 66.8802C125.555 66.5209 124.324 66.4441 123.127 66.6562C121.93 66.8683 120.802 67.3633 119.835 68.0997C118.868 68.8362 118.091 69.7929 117.57 70.8901C117.048 71.9873 116.796 73.1932 116.836 74.4073L117.118 83.1289L94.5664 144.883L106.864 147.448L126.228 86.1527Z" fill="#9F616A"/>
<path d="M7.5873 238.387L1.68085 245.735C0.959594 246.632 0.451045 247.681 0.19336 248.802C-0.064324 249.924 -0.0644549 251.09 0.192976 252.211C0.450408 253.333 0.958719 254.382 1.67977 255.28C2.40083 256.177 3.31591 256.9 4.35636 257.393C5.45454 257.914 6.66143 258.165 7.87645 258.126C9.09148 258.086 10.2795 257.757 11.3414 257.166C12.4032 256.574 13.3083 255.738 13.9811 254.726C14.654 253.715 15.0751 252.557 15.2093 251.349L16.1737 242.677L47.2994 184.763L35.4931 180.473L7.5873 238.387Z" fill="#9F616A"/>
<path d="M44.082 299.518L44.9514 309.953L45.1553 312.387L102.963 306.832C104.956 306.608 106.867 305.916 108.543 304.815C110.218 303.713 111.609 302.233 112.603 300.493C113.598 298.753 114.168 296.803 114.266 294.802C114.365 292.801 113.989 290.804 113.17 288.975L94.5272 248.983L88.0874 235.169L60.1816 228.734C37.17 246.334 57.8739 265.756 83.923 285.404C84.9426 286.176 85.973 286.948 87.0141 287.72L44.082 299.518Z" fill="#2F2E41"/>
<path d="M24.6011 335.653C25.3055 335.753 26.0239 335.671 26.6874 335.415C27.351 335.158 27.9374 334.736 28.3906 334.188L47.2998 311.315L46.2265 300.59L39.779 296.725C39.2516 296.409 38.6616 296.211 38.05 296.146C37.4385 296.08 36.82 296.149 36.2376 296.346C35.6551 296.544 35.1227 296.866 34.6773 297.289C34.232 297.713 33.8843 298.229 33.6584 298.801L21.3252 330.021C21.0949 330.604 20.9997 331.231 21.0469 331.857C21.0941 332.482 21.2823 333.088 21.5976 333.63C21.9128 334.172 22.3468 334.635 22.867 334.986C23.3872 335.336 23.9801 335.564 24.6011 335.653Z" fill="#2F2E41"/>
<path opacity="0.2" d="M40.8633 297.373L41.9366 310.242L44.9526 309.953L99.7446 304.687C101.737 304.463 103.649 303.772 105.324 302.67C106.999 301.569 108.39 300.088 109.385 298.348C110.379 296.608 110.949 294.658 111.047 292.657C111.146 290.656 110.771 288.659 109.952 286.83L94.5284 252.329V248.983L88.0886 235.169L60.1827 228.734C37.1712 246.334 57.8751 265.756 83.9242 285.404L83.7954 285.576L40.8633 297.373Z" fill="black"/>
<path d="M19.2378 331.363C19.9422 331.463 20.6606 331.381 21.3241 331.125C21.9877 330.868 22.5741 330.446 23.0273 329.898L41.9365 307.025L40.8632 296.3L34.4157 292.435C33.8883 292.119 33.2983 291.921 32.6867 291.856C32.0752 291.79 31.4567 291.859 30.8743 292.056C30.2918 292.254 29.7594 292.576 29.314 292.999C28.8687 293.423 28.521 293.939 28.2952 294.511L15.962 325.731C15.7316 326.314 15.6365 326.941 15.6836 327.566C15.7308 328.192 15.9191 328.798 16.2343 329.34C16.5495 329.882 16.9835 330.345 17.5037 330.696C18.0239 331.046 18.6168 331.274 19.2378 331.363Z" fill="#2F2E41"/>
<path d="M38.7148 295.228L39.7881 308.098L97.5962 302.541C99.5887 302.316 101.5 301.626 103.175 300.524C104.85 299.423 106.242 297.943 107.237 296.203C108.232 294.464 108.802 292.514 108.901 290.513C109 288.512 108.626 286.516 107.808 284.686L92.3799 250.184V230.879L54.8144 224.445C30.8973 242.735 54.2007 262.996 81.6469 283.431L38.7148 295.228Z" fill="#2F2E41"/>
<path d="M75.2089 144.009C84.1004 144.009 91.3084 136.807 91.3084 127.922C91.3084 119.037 84.1004 111.835 75.2089 111.835C66.3174 111.835 59.1094 119.037 59.1094 127.922C59.1094 136.807 66.3174 144.009 75.2089 144.009Z" fill="#9F616A"/>
<path d="M53.7422 154.734L76.2815 169.748L95.6009 165.458L84.8679 154.734V138.646L67.6951 137.574C67.3345 143.998 63.6506 149.877 53.7422 154.734Z" fill="#9F616A"/>
<path d="M50.5194 229.807L92.3781 235.169L102.038 190.125C106.525 178.169 103.951 167.605 95.6423 158.172C95.3245 156.584 94.478 155.151 93.2408 154.106C92.0035 153.061 90.4485 152.465 88.829 152.416L84.865 152.589C85.3134 166.812 74.8258 163.386 59.1058 151.516L57.2076 152.085C54.7537 152.821 52.647 154.415 51.2728 156.575C49.8987 158.736 49.3491 161.318 49.7245 163.851L51.4554 175.525C52.1893 180.153 53.3295 184.708 54.8626 189.137C59.1542 201.953 57.6206 215.521 50.5194 229.807Z" fill="#5B97FC"/>
<path d="M31.2031 181.546L50.5225 187.98L59.109 156.879L56.2001 155.557C53.7884 154.462 51.0499 154.324 48.5404 155.173C46.031 156.021 43.9384 157.791 42.6874 160.125L31.2031 181.546Z" fill="#5B97FC"/>
<path d="M88.0859 152.589L98.8192 164.386L111.698 144.009L95.5988 135.429L88.0859 152.589Z" fill="#5B97FC"/>
<path d="M56.4258 123.096C66.5427 126.908 77.3396 126.513 88.6248 123.096V110.226H56.4258V123.096Z" fill="#2F2E41"/>
<path d="M558.543 344.017L547.443 348.638L473.449 247.898L419.803 350.486L405.93 347.714L446.627 206.309H493.798L558.543 344.017Z" fill="#2F2E41"/>
<path d="M573.434 367.517C572.819 367.685 572.176 367.729 571.544 367.648C570.911 367.566 570.301 367.361 569.748 367.043L546.341 353.576C545.709 353.213 545.169 352.709 544.764 352.103C544.358 351.498 544.098 350.807 544.002 350.085C543.906 349.363 543.978 348.629 544.213 347.939C544.447 347.249 544.837 346.622 545.352 346.107L547.444 344.016L558.543 343.092L575.511 359.368C576.128 359.96 576.577 360.705 576.812 361.527C577.047 362.349 577.059 363.219 576.848 364.047C576.637 364.876 576.21 365.633 575.61 366.243C575.01 366.852 574.259 367.292 573.434 367.517Z" fill="#2F2E41"/>
<path d="M391.962 371.214C392.578 371.381 393.22 371.426 393.853 371.344C394.485 371.263 395.095 371.057 395.648 370.739L419.055 357.273C419.687 356.909 420.227 356.405 420.632 355.8C421.038 355.195 421.299 354.504 421.394 353.782C421.49 353.06 421.418 352.325 421.184 351.635C420.949 350.946 420.559 350.319 420.044 349.804L417.952 347.713L406.853 346.789L389.885 363.065C389.268 363.657 388.819 364.402 388.584 365.224C388.349 366.046 388.337 366.916 388.548 367.744C388.759 368.572 389.186 369.33 389.786 369.94C390.386 370.549 391.137 370.989 391.962 371.214Z" fill="#2F2E41"/>
<path d="M415.177 59.3583L410.552 62.1309L400.969 46.5695C400.38 45.6137 400.03 44.5306 399.948 43.4114C399.866 42.2921 400.055 41.1697 400.499 40.1386C400.942 39.1075 401.627 38.1981 402.496 37.4871C403.365 36.776 404.392 36.2841 405.491 36.053C406.468 35.8474 407.478 35.853 408.453 36.0694C409.427 36.2858 410.345 36.7079 411.143 37.3075C411.941 37.9071 412.602 38.6704 413.08 39.546C413.559 40.4216 413.845 41.3894 413.919 42.3845L415.177 59.3583Z" fill="#FFB9B9"/>
<path d="M543.289 180.512L545.208 175.476L562.369 181.784C563.423 182.171 564.369 182.806 565.126 183.635C565.883 184.464 566.429 185.463 566.719 186.547C567.008 187.632 567.033 188.77 566.79 189.865C566.547 190.961 566.044 191.982 565.323 192.843C564.683 193.608 563.886 194.228 562.986 194.66C562.086 195.092 561.104 195.327 560.105 195.349C559.107 195.371 558.115 195.179 557.197 194.787C556.279 194.395 555.456 193.811 554.782 193.074L543.289 180.512Z" fill="#FFB9B9"/>
<path d="M470.675 114.811C478.337 114.811 484.549 108.604 484.549 100.948C484.549 93.2915 478.337 87.0847 470.675 87.0847C463.012 87.0847 456.801 93.2915 456.801 100.948C456.801 108.604 463.012 114.811 470.675 114.811Z" fill="#FFB9B9"/>
<path d="M482.697 130.523H463.273V109.266L479.922 107.417L482.697 130.523Z" fill="#FFB9B9"/>
<path d="M496.572 211.854H443.852C445.711 182.46 447.183 154.055 443.852 137.916L446.917 123.213C447.342 121.176 448.518 119.373 450.213 118.163C451.907 116.953 453.995 116.425 456.062 116.683L463.275 117.584C468.16 126.165 474.064 126.082 480.849 118.508H489.538C490.696 118.508 491.843 118.739 492.911 119.187C493.979 119.635 494.947 120.292 495.758 121.118C496.568 121.945 497.206 122.925 497.634 124.001C498.061 125.077 498.269 126.227 498.246 127.384C500.51 137.74 501.263 148.368 500.482 158.94L496.572 211.854Z" fill="#3F3D56"/>
<path d="M407.777 59.358L415.177 55.6614L454.949 121.281L443.85 137.916L407.777 59.358Z" fill="#3F3D56"/>
<path d="M543.392 183.141L549.715 177.812L516.115 130.765C512.828 126.162 508.296 122.59 503.051 120.468C497.805 118.346 492.063 117.762 486.498 118.783L485.438 118.977L498.143 141.194L514.877 153.854L543.392 183.141Z" fill="#3F3D56"/>
<path d="M486.718 92.7641C486.718 92.7641 489.311 87.065 482.57 84.4745C482.57 84.4745 476.867 75.1487 465.46 81.3659C465.46 81.3659 457.682 84.4745 457.682 92.7641C457.682 101.054 455.09 102.608 455.09 102.608C455.09 102.608 458.951 98.6504 459.988 95.5418C461.025 92.4332 469.089 91.7279 472.2 94.8365C475.311 97.9451 483.089 97.427 483.089 97.427L482.57 108.825C482.57 108.825 485.163 102.09 486.2 102.09C487.237 102.09 488.274 92.7641 486.718 92.7641Z" fill="#2F2E41"/>
<path d="M485.438 403C532.322 403 570.329 401.022 570.329 398.582C570.329 396.142 532.322 394.164 485.438 394.164C438.554 394.164 400.547 396.142 400.547 398.582C400.547 401.022 438.554 403 485.438 403Z" fill="#E6E6E6"/>
<path d="M61.5898 400.917C86.3714 400.917 106.461 399.872 106.461 398.582C106.461 397.292 86.3714 396.247 61.5898 396.247C36.8082 396.247 16.7188 397.292 16.7188 398.582C16.7188 399.872 36.8082 400.917 61.5898 400.917Z" fill="#E6E6E6"/>
<path d="M404.416 77.7299L131.632 102.159C130.292 102.277 128.96 101.86 127.929 100.999C126.897 100.137 126.249 98.9019 126.127 97.5638L120.063 29.9497C119.944 28.6113 120.362 27.2806 121.224 26.2495C122.086 25.2184 123.322 24.5711 124.662 24.4496L397.446 0.0204727C398.786 -0.0978918 400.118 0.319436 401.149 1.18091C402.181 2.04238 402.829 3.27765 402.951 4.61576L409.015 72.2299C409.134 73.5683 408.716 74.899 407.854 75.93C406.992 76.9611 405.756 77.6084 404.416 77.7299Z" fill="#5B97FC"/>
<path d="M163.509 81.4227C175.273 81.4227 184.81 71.893 184.81 60.1375C184.81 48.382 175.273 38.8523 163.509 38.8523C151.744 38.8523 142.207 48.382 142.207 60.1375C142.207 71.893 151.744 81.4227 163.509 81.4227Z" fill="white"/>
<path d="M211.242 41.6156C210.306 41.7013 209.442 42.1547 208.839 42.8764C208.237 43.5981 207.946 44.5291 208.03 45.4651C208.114 46.401 208.566 47.2655 209.287 47.8686C210.008 48.4718 210.939 48.7645 211.876 48.6824L378.578 33.7535C379.043 33.7125 379.495 33.5804 379.908 33.3646C380.322 33.1489 380.689 32.8538 380.989 32.4962C381.288 32.1385 381.514 31.7254 381.654 31.2805C381.793 30.8355 381.844 30.3674 381.802 29.903C381.76 29.4386 381.627 28.9869 381.411 28.5738C381.194 28.1607 380.898 27.7944 380.54 27.4956C380.182 27.1969 379.768 26.9717 379.323 26.8329C378.877 26.6941 378.409 26.6444 377.944 26.6867L211.242 41.6156Z" fill="white"/>
<path d="M213.143 62.8158C212.678 62.8566 212.225 62.9885 211.811 63.2042C211.397 63.4198 211.03 63.7149 210.73 64.0726C210.431 64.4303 210.205 64.8435 210.065 65.2886C209.925 65.7336 209.875 66.2019 209.917 66.6665C209.958 67.131 210.091 67.5829 210.308 67.996C210.524 68.4092 210.82 68.7757 211.179 69.0744C211.537 69.3731 211.951 69.5982 212.397 69.7369C212.843 69.8756 213.312 69.9251 213.776 69.8825L380.478 54.9537C380.943 54.9127 381.395 54.7806 381.809 54.5648C382.222 54.3491 382.589 54.054 382.889 53.6963C383.188 53.3387 383.414 52.9256 383.554 52.4807C383.693 52.0357 383.744 51.5676 383.702 51.1032C383.661 50.6387 383.528 50.1871 383.311 49.774C383.095 49.3609 382.799 48.9945 382.44 48.6958C382.082 48.3971 381.668 48.1719 381.223 48.0331C380.777 47.8943 380.309 47.8446 379.844 47.8869L213.143 62.8158Z" fill="white"/>
</svg>
