<svg xmlns="http://www.w3.org/2000/svg" viewBox="0 0 802.03 590.92"><defs><style>.cls-1{fill:#e6e6e6;}.cls-2{fill:#ccc;}.cls-3{fill:#6c63ff;}.cls-4{fill:#4690f9;}.cls-5{fill:#5b97fc;}.cls-6{fill:#2f2e41;}.cls-7{fill:#f9c7ce;}.cls-8{fill:#575a89;}.cls-9{fill:#3f3d56;}.cls-10{fill:#fff;}.cls-11{fill:#b3b3b3;}.cls-12{fill:#d0cde1;}.cls-13{opacity:0.2;isolation:isolate;}</style></defs><g id="Layer_2" data-name="Layer 2"><g id="Layer_1-2" data-name="Layer 1"><rect class="cls-1" x="464.91" y="218.81" width="337.12" height="9.89"/><rect class="cls-1" x="492.77" y="136.1" width="85.4" height="85.4"/><rect class="cls-2" x="509.86" y="153.18" width="51.24" height="51.24"/><rect class="cls-1" x="684.26" y="136.1" width="21.58" height="85.4"/><rect class="cls-2" x="684.26" y="149.59" width="21.58" height="9.89"/><rect class="cls-2" x="684.26" y="192.74" width="21.58" height="9.89"/><rect class="cls-1" x="651" y="136.1" width="21.58" height="85.4"/><rect class="cls-2" x="651" y="149.59" width="21.58" height="9.89"/><rect class="cls-2" x="651" y="192.74" width="21.58" height="9.89"/><rect class="cls-1" x="722.92" y="136.09" width="21.58" height="85.4" transform="translate(-3.15 344.11) rotate(-26.34)"/><rect class="cls-2" x="712.15" y="152.09" width="21.58" height="9.89" transform="translate(5.38 337.07) rotate(-26.34)"/><rect class="cls-2" x="731.29" y="190.77" width="21.58" height="9.89" transform="translate(-9.79 349.58) rotate(-26.34)"/><polygon class="cls-1" points="524.69 170.38 535.55 189.2 546.42 208.02 524.69 208.02 502.96 208.02 513.82 189.2 524.69 170.38"/><polygon class="cls-1" points="543.57 173.98 554.43 192.8 565.3 211.62 543.57 211.62 521.84 211.62 532.7 192.8 543.57 173.98"/><circle class="cls-1" cx="551.21" cy="162.17" r="6.29"/><rect class="cls-1" x="464.91" y="83.06" width="337.12" height="9.89"/><rect class="cls-1" x="688.75" y="0.35" width="85.4" height="85.4"/><rect class="cls-2" x="705.84" y="17.43" width="51.24" height="51.24"/><rect class="cls-1" x="561.1" y="0.35" width="21.58" height="85.4"/><rect class="cls-2" x="561.1" y="13.84" width="21.58" height="9.89"/><rect class="cls-2" x="561.1" y="56.99" width="21.58" height="9.89"/><rect class="cls-1" x="594.36" y="0.35" width="21.58" height="85.4"/><rect class="cls-2" x="594.36" y="13.84" width="21.58" height="9.89"/><rect class="cls-2" x="594.36" y="56.99" width="21.58" height="9.89"/><rect class="cls-1" x="490.53" y="32.26" width="85.4" height="21.58" transform="translate(258.05 501.82) rotate(-63.66)"/><rect class="cls-2" x="539.05" y="10.51" width="9.89" height="21.58" transform="translate(283.54 499.37) rotate(-63.66)"/><rect class="cls-2" x="519.91" y="49.19" width="9.89" height="21.58" transform="translate(238.23 503.73) rotate(-63.66)"/><polygon class="cls-1" points="742.24 34.63 731.38 53.45 720.51 72.27 742.24 72.27 763.98 72.27 753.11 53.45 742.24 34.63"/><polygon class="cls-1" points="723.37 38.23 712.5 57.05 701.63 75.87 723.37 75.87 745.1 75.87 734.23 57.05 723.37 38.23"/><circle class="cls-1" cx="715.72" cy="26.42" r="6.29"/><rect class="cls-1" x="464.91" y="354.56" width="337.12" height="9.89"/><rect class="cls-1" x="688.75" y="271.85" width="85.4" height="85.4"/><rect class="cls-2" x="705.84" y="288.93" width="51.24" height="51.24"/><rect class="cls-1" x="561.1" y="271.85" width="21.58" height="85.4"/><rect class="cls-2" x="561.1" y="285.33" width="21.58" height="9.89"/><rect class="cls-2" x="561.1" y="328.48" width="21.58" height="9.89"/><rect class="cls-1" x="594.36" y="271.85" width="21.58" height="85.4"/><rect class="cls-2" x="594.36" y="285.33" width="21.58" height="9.89"/><rect class="cls-2" x="594.36" y="328.48" width="21.58" height="9.89"/><rect class="cls-1" x="490.53" y="303.76" width="85.4" height="21.58" transform="translate(14.74 652.86) rotate(-63.66)"/><rect class="cls-2" x="539.05" y="282.02" width="9.89" height="21.58" transform="translate(40.22 650.41) rotate(-63.66)"/><rect class="cls-2" x="519.91" y="320.68" width="9.89" height="21.58" transform="translate(-5.08 654.76) rotate(-63.66)"/><polygon class="cls-1" points="742.24 306.13 731.38 324.95 720.51 343.77 742.24 343.77 763.98 343.77 753.11 324.95 742.24 306.13"/><polygon class="cls-1" points="723.37 309.73 712.5 328.54 701.63 347.36 723.37 347.36 745.1 347.36 734.23 328.54 723.37 309.73"/><circle class="cls-1" cx="715.72" cy="297.92" r="6.29"/><ellipse class="cls-1" cx="397.13" cy="562.71" rx="397.13" ry="28.21"/><path class="cls-3" d="M707.39,578.51c-64.76-11.53-135.57-9.61-209.85,0,33.86-28.59,63.07-57.17,29.22-85.75,66,13.63,75.29,12.25,148.75,0C658.47,521.34,690.35,549.92,707.39,578.51Z"/><path class="cls-4" d="M707.39,578.51c-64.76-11.53-135.57-9.61-209.85,0,33.86-28.59,63.07-57.17,29.22-85.75,66,13.63,75.29,12.25,148.75,0C658.47,521.34,690.35,549.92,707.39,578.51Z"/><path class="cls-5" d="M691.59,566.31c-55-9.2-115.16-7.67-178.26,0,28.76-22.81,53.58-45.63,24.83-68.44,56.09,10.87,64,9.77,126.35,0C650,520.68,677.12,543.5,691.59,566.31Z"/><circle class="cls-6" cx="670.64" cy="500.24" r="29.31"/><polygon class="cls-7" points="537.59 466.25 557.9 469.63 568.05 498.97 538.72 517.02 504.87 466.25 536.46 466.25 537.59 466.25"/><circle class="cls-7" cx="595.13" cy="463.99" r="47.38"/><path class="cls-6" d="M333.39,291.38S218.31,303.79,198,301.53,168.67,297,168.67,297s-13.54,18.05-6.77,26a48.85,48.85,0,0,0,13.54,11.28s12.41-3.39,21.43,0,100.41,18.05,116.21,4.51S333.39,291.38,333.39,291.38Z"/><path class="cls-6" d="M341.28,543s-75.59-21.44-89.13-116.21v-9s-15,26.23-20.3,31.59c-6.21,6.2-28.21,62.05-27.08,67.69s0,7.9,0,7.9l-32.72-3.39v-10.2s17.49-52.46,18.62-64.87,43.43-98.72,43.43-98.72,15.8-32.72,42.88,0,29.33,55.28,29.33,55.28l35,67.69Z"/><path class="cls-6" d="M172.05,293.63,136,281.22s-33.85-24.82-25.95,0,44,79,54.15,73.34,22.37-19.65,19.65-21.67S163,316.2,172.05,293.63Z"/><path class="cls-6" d="M176.42,504.72,147.27,519s-35.24,5.42-15.59,15.59,73.88,21,76.59,11.52,1.64-25.24-1.22-24.82S184.55,523.69,176.42,504.72Z"/><path class="cls-8" d="M326.62,468.51S312,531.69,336.77,545.22s198.57,15.8,212.1-9,6.77-24.82,6.77-24.82l-36.1-40.62,29.33-2.25s0-9-10.15-10.16S497,445.94,469.9,453.84,427,438,427,438Z"/><polygon class="cls-9" points="307.44 271.07 288.26 375.99 420.26 360.2 443.95 265.43 307.44 271.07"/><polygon class="cls-10" points="311.39 275.02 295.59 368.66 415.75 354.56 438.87 269.38 311.39 275.02"/><polygon class="cls-11" points="292.77 377.12 288.26 375.99 286 380.5 322.1 480.92 325.5 479.62 326.62 473.02 292.77 377.12"/><polygon class="cls-12" points="288.26 374.86 324.36 479.79 460.87 459.48 420.26 360.2 288.26 374.86"/><polygon class="cls-9" points="306.31 371.48 306.31 377.12 406.72 365.84 405.59 360.2 306.31 371.48"/><polygon class="cls-9" points="308.56 382.76 324.36 426.76 427.03 414.35 408.98 372.61 308.56 382.76"/><path class="cls-7" d="M437.18,444.81l-3.38-9s-25.95-45.13-39.49-36.11,28.2,53,28.2,53h13.54Z"/><path class="cls-7" d="M351.44,451.58,348.05,438s-9-41.74,6.77-39.48,20.31,41.74,20.31,41.74l-1.13,9Z"/><path class="cls-8" d="M378.51,445.94s-29.33-4.51-30.46,2.26-6.77,108.31,21.44,111.69S537.59,577.94,522.92,543s-37.23-30.46-37.23-30.46L389.8,522.66Z"/><polygon class="cls-8" points="467.08 458.92 437.18 438.04 417.44 453.27 442.26 480.35 467.08 458.92"/><polygon class="cls-13" points="386.98 479.22 391.49 522.1 469.33 517.58 401.64 516.46 386.98 479.22"/><circle class="cls-6" cx="618.52" cy="472.6" r="56.41"/><polygon class="cls-5" points="328.31 307.74 398.26 305.3 405.03 279.53 332.82 281.71 328.31 307.74"/><polygon class="cls-1" points="310.26 322.4 416.31 319.02 417.44 314.5 311.39 318.24 310.26 322.4"/><polygon class="cls-1" points="308 333.69 414.05 330.3 415.18 325.79 309.13 329.52 308 333.69"/><polygon class="cls-1" points="306.87 342.71 412.92 339.33 414.05 334.81 308 338.55 306.87 342.71"/></g></g></svg>
