<svg width="264" height="280" viewBox="0 0 264 280" fill="none" xmlns="http://www.w3.org/2000/svg">
<g clip-path="url(#clip0)">
<mask id="mask0" mask-type="alpha" maskUnits="userSpaceOnUse" x="12" y="39" width="240" height="241">
<path d="M132 279.204C198.274 279.204 252 225.631 252 159.545C252 93.4594 198.274 39.8862 132 39.8862C65.7258 39.8862 12 93.4594 12 159.545C12 225.631 65.7258 279.204 132 279.204Z" fill="white"/>
</mask>
<g mask="url(#mask0)">
<path d="M132 279.204C198.274 279.204 252 225.631 252 159.545C252 93.4594 198.274 39.8862 132 39.8862C65.7258 39.8862 12 93.4594 12 159.545C12 225.631 65.7258 279.204 132 279.204Z" fill="#E6E6E6"/>
<path d="M252 39.8862H12V279.204H252V39.8862Z" fill="#65C9FF"/>
</g>
<mask id="mask1" mask-type="alpha" maskUnits="userSpaceOnUse" x="0" y="0" width="264" height="280">
<path d="M12 159.545C12 225.631 65.7258 279.204 132 279.204C198.274 279.204 252 225.631 252 159.545H264V0H0V159.545H12Z" fill="white"/>
</mask>
<g mask="url(#mask1)">
<mask id="mask2" mask-type="alpha" maskUnits="userSpaceOnUse" x="32" y="35" width="200" height="245">
<path d="M156 180.097V198.434H160C199.764 198.434 232 230.578 232 270.23V279.204H32V270.23C32 230.578 64.2355 198.434 104 198.434H108V180.097C90.7626 171.932 78.3722 155.244 76.3051 135.495C70.4803 134.674 66 129.682 66 123.647V109.687C66 103.758 70.3246 98.8361 76 97.8867V91.7383C76 60.8983 101.072 35.8975 132 35.8975C162.928 35.8975 188 60.8983 188 91.7383V97.8867C193.675 98.8361 198 103.758 198 109.687V123.647C198 129.682 193.52 134.674 187.695 135.495C185.628 155.244 173.237 171.932 156 180.097Z" fill="white"/>
</mask>
<g mask="url(#mask2)">
<path d="M156 180.097V198.434H160C199.764 198.434 232 230.578 232 270.23V279.204H32V270.23C32 230.578 64.2355 198.434 104 198.434H108V180.097C90.7626 171.932 78.3722 155.244 76.3051 135.495C70.4803 134.674 66 129.682 66 123.647V109.687C66 103.758 70.3246 98.8361 76 97.8867V91.7383C76 60.8983 101.072 35.8975 132 35.8975C162.928 35.8975 188 60.8983 188 91.7383V97.8867C193.675 98.8361 198 103.758 198 109.687V123.647C198 129.682 193.52 134.674 187.695 135.495C185.628 155.244 173.237 171.932 156 180.097Z" fill="#D0C6AC"/>
<path d="M264 35.8975H0V279.204H264V35.8975Z" fill="#EDB98A"/>
<path fill-rule="evenodd" clip-rule="evenodd" d="M188 114.673V137.607C188 168.448 162.928 193.448 132 193.448C101.072 193.448 76 168.448 76 137.607V114.673V129.63C76 160.47 101.072 185.471 132 185.471C162.928 185.471 188 160.47 188 129.63V114.673Z" fill="black" fill-opacity="0.1"/>
</g>
<mask id="mask3" mask-type="alpha" maskUnits="userSpaceOnUse" x="32" y="198" width="200" height="82">
<path fill-rule="evenodd" clip-rule="evenodd" d="M165.96 198.728C202.936 201.75 232 232.631 232 270.281V279.204H32V270.281C32 232.29 61.592 201.192 99.0454 198.653C99.0153 199.026 99 199.401 99 199.778C99 211.608 113.998 221.197 132.5 221.197C151.002 221.197 166 211.608 166 199.778C166 199.426 165.987 199.076 165.96 198.728Z" fill="white"/>
</mask>
<g mask="url(#mask3)">
<path fill-rule="evenodd" clip-rule="evenodd" d="M165.96 198.728C202.936 201.75 232 232.631 232 270.281V279.204H32V270.281C32 232.29 61.592 201.192 99.0454 198.653C99.0153 199.026 99 199.401 99 199.778C99 211.608 113.998 221.197 132.5 221.197C151.002 221.197 166 211.608 166 199.778C166 199.426 165.987 199.076 165.96 198.728Z" fill="#E6E6E6"/>
<path d="M264 169.517H0V279.204H264V169.517Z" fill="#CFD0D0"/>
<g opacity="0.6">
<g opacity="0.6">
<path opacity="0.6" d="M132.5 228.111C154.39 228.111 172.135 216.096 172.135 201.274C172.135 186.452 154.39 174.437 132.5 174.437C110.61 174.437 92.8652 186.452 92.8652 201.274C92.8652 216.096 110.61 228.111 132.5 228.111Z" fill="black" fill-opacity="0.16"/>
</g>
</g>
</g>
<mask id="mask4" mask-type="alpha" maskUnits="userSpaceOnUse" x="113" y="146" width="38" height="20">
<path fill-rule="evenodd" clip-rule="evenodd" d="M113.118 148.705C114.176 158.169 122.226 165.529 132 165.529C141.804 165.529 149.874 158.124 150.892 148.617C150.974 147.852 150.117 146.583 149.043 146.583C134.149 146.583 122.738 146.583 115.087 146.583C114.007 146.583 113.012 147.758 113.118 148.705Z" fill="white"/>
</mask>
<g mask="url(#mask4)">
<path fill-rule="evenodd" clip-rule="evenodd" d="M113.118 148.705C114.176 158.169 122.226 165.529 132 165.529C141.804 165.529 149.874 158.124 150.892 148.617C150.974 147.852 150.117 146.583 149.043 146.583C134.149 146.583 122.738 146.583 115.087 146.583C114.007 146.583 113.012 147.758 113.118 148.705Z" fill="black" fill-opacity="0.7"/>
<path d="M143 135.614H122C119.239 135.614 117 137.846 117 140.6V146.583C117 149.336 119.239 151.568 122 151.568H143C145.761 151.568 148 149.336 148 146.583V140.6C148 137.846 145.761 135.614 143 135.614Z" fill="white"/>
<path d="M127 179.489C133.075 179.489 138 174.578 138 168.52C138 162.462 133.075 157.551 127 157.551C120.925 157.551 116 162.462 116 168.52C116 174.578 120.925 179.489 127 179.489Z" fill="#FF4F6D"/>
<path d="M137 179.489C143.075 179.489 148 174.578 148 168.52C148 162.462 143.075 157.551 137 157.551C130.925 157.551 126 162.462 126 168.52C126 174.578 130.925 179.489 137 179.489Z" fill="#FF4F6D"/>
</g>
<path fill-rule="evenodd" clip-rule="evenodd" d="M120 129.631C120 134.037 125.373 137.608 132 137.608C138.627 137.608 144 134.037 144 129.631" fill="black" fill-opacity="0.16"/>
<path d="M106 117.665C109.314 117.665 112 114.986 112 111.682C112 108.377 109.314 105.699 106 105.699C102.686 105.699 100 108.377 100 111.682C100 114.986 102.686 117.665 106 117.665Z" fill="black" fill-opacity="0.6"/>
<path d="M158 117.665C161.314 117.665 164 114.986 164 111.682C164 108.377 161.314 105.699 158 105.699C154.686 105.699 152 108.377 152 111.682C152 114.986 154.686 117.665 158 117.665Z" fill="black" fill-opacity="0.6"/>
<path d="M91.6304 98.877C95.5453 93.3839 106.278 90.3037 115.523 92.5676C116.596 92.8302 117.679 92.1761 117.942 91.1064C118.206 90.0368 117.55 88.9567 116.477 88.694C105.741 86.0649 93.3123 89.6317 88.3699 96.5664C87.73 97.4642 87.9412 98.7092 88.8416 99.3473C89.7419 99.9853 90.9905 99.7748 91.6304 98.877Z" fill="black" fill-opacity="0.6"/>
<path d="M172.37 98.877C168.455 93.3839 157.722 90.3037 148.477 92.5676C147.404 92.8302 146.321 92.1761 146.058 91.1064C145.794 90.0368 146.45 88.9567 147.523 88.694C158.259 86.0649 170.688 89.6317 175.63 96.5664C176.27 97.4642 176.059 98.7092 175.158 99.3473C174.258 99.9853 173.009 99.7748 172.37 98.877Z" fill="black" fill-opacity="0.6"/>
<mask id="mask5" mask-type="alpha" maskUnits="userSpaceOnUse" x="0" y="0" width="264" height="280">
<path d="M264 0H0V279.204H264V0Z" fill="white"/>
</mask>
<g mask="url(#mask5)">
<mask id="mask6" mask-type="alpha" maskUnits="userSpaceOnUse" x="58" y="17" width="148" height="195">
<path fill-rule="evenodd" clip-rule="evenodd" d="M66.4613 106.39C66.1609 107.438 66 108.544 66 109.687V122.65C66 128.652 70.4309 133.621 76.2086 134.484C77.9518 154.674 90.4692 171.793 108 180.098V198.434H104C88.381 198.434 73.9236 203.393 62.125 211.819C59.4527 204.194 58 195.999 58 187.466L58 91.7384C58 50.9855 91.1309 17.9487 132 17.9487C172.869 17.9487 206 50.9855 206 91.7384V187.466C206 195.999 204.547 204.194 201.875 211.819C190.076 203.393 175.619 198.434 160 198.434H156V180.098C173.531 171.793 186.048 154.674 187.791 134.484C193.569 133.621 198 128.652 198 122.65V109.687C198 108.003 197.651 106.4 197.021 104.946C184.065 102.764 169.479 97.4906 155.149 89.2409C143.017 82.2565 132.646 74.0468 124.67 65.5652C128.096 73.451 132.246 80.3589 137.118 86.289C124.443 80.7817 115.813 71.9273 111.227 59.7257C110.849 60.6451 110.455 61.5633 110.046 62.48C100.207 84.5165 83.5911 100.396 66.4613 106.39Z" fill="white"/>
</mask>
<g mask="url(#mask6)">
<path fill-rule="evenodd" clip-rule="evenodd" d="M66.4613 106.39C66.1609 107.438 66 108.544 66 109.687V122.65C66 128.652 70.4309 133.621 76.2086 134.484C77.9518 154.674 90.4692 171.793 108 180.098V198.434H104C88.381 198.434 73.9236 203.393 62.125 211.819C59.4527 204.194 58 195.999 58 187.466L58 91.7384C58 50.9855 91.1309 17.9487 132 17.9487C172.869 17.9487 206 50.9855 206 91.7384V187.466C206 195.999 204.547 204.194 201.875 211.819C190.076 203.393 175.619 198.434 160 198.434H156V180.098C173.531 171.793 186.048 154.674 187.791 134.484C193.569 133.621 198 128.652 198 122.65V109.687C198 108.003 197.651 106.4 197.021 104.946C184.065 102.764 169.479 97.4906 155.149 89.2409C143.017 82.2565 132.646 74.0468 124.67 65.5652C128.096 73.451 132.246 80.3589 137.118 86.289C124.443 80.7817 115.813 71.9273 111.227 59.7257C110.849 60.6451 110.455 61.5633 110.046 62.48C100.207 84.5165 83.5911 100.396 66.4613 106.39Z" fill="#ECC797"/>
<path d="M322 17.9487H58V297.153H322V17.9487Z" fill="#4A312C"/>
</g>
<path fill-rule="evenodd" clip-rule="evenodd" d="M58 102.128V108.528C77.9454 105.45 98.5896 88.1388 110.046 62.4799C110.456 61.5632 110.849 60.6449 111.227 59.7256C115.232 70.3813 122.321 78.4843 132.496 84.0345C133.956 86.2237 135.497 88.3047 137.118 90.2774C124.443 84.7702 115.813 75.9158 111.227 63.7142C110.849 64.6335 110.456 65.5518 110.046 66.4685C98.5896 92.1274 77.9454 109.438 58 112.517V102.128ZM206 100.853V109.967C191.047 109.101 172.901 103.45 155.149 93.2293C144.876 87.3152 135.866 80.5226 128.503 73.4302C127.138 70.9265 125.86 68.3048 124.67 65.5651C132.646 74.0466 143.017 82.2563 155.149 89.2407C172.901 99.4609 191.047 105.113 206 105.978V100.853Z" fill="black" fill-opacity="0.16"/>
</g>
</g>
</g>
<defs>
<clipPath id="clip0">
<rect width="264" height="279.204" fill="white"/>
</clipPath>
</defs>
</svg>
