<svg width="65" height="70" viewBox="0 0 65 70" fill="none" xmlns="http://www.w3.org/2000/svg">
<circle cx="32.5" cy="32.5" r="32.5" fill="white"/>
<path d="M2 39C2 21.8792 15.8792 8 33 8V8C50.1208 8 64 21.8792 64 39V39C64 56.1208 50.1208 70 33 70V70C15.8792 70 2 56.1208 2 39V39Z" fill="#7DB7FC"/>
<path d="M46.4852 48.7888C45.751 47.0496 44.6855 45.4698 43.348 44.1375C42.0147 42.8013 40.4352 41.7359 38.6967 41.0003C38.6812 40.9925 38.6656 40.9886 38.65 40.9808C41.0749 39.2293 42.6513 36.3762 42.6513 33.1573C42.6513 27.8248 38.3309 23.5044 32.9984 23.5044C27.666 23.5044 23.3455 27.8248 23.3455 33.1573C23.3455 36.3762 24.9219 39.2293 27.3468 40.9847C27.3312 40.9925 27.3157 40.9964 27.3001 41.0042C25.5563 41.7398 23.9916 42.7946 22.6488 44.1414C21.3126 45.4747 20.2473 47.0542 19.5116 48.7927C18.7889 50.4946 18.3991 52.3193 18.3634 54.1679C18.3623 54.2095 18.3696 54.2508 18.3848 54.2895C18.4 54.3282 18.4228 54.3634 18.4518 54.3932C18.4808 54.4229 18.5155 54.4465 18.5538 54.4627C18.5921 54.4788 18.6332 54.4871 18.6748 54.4871H21.0101C21.1814 54.4871 21.3176 54.3509 21.3215 54.1835C21.3994 51.1786 22.606 48.3645 24.739 46.2315C26.9459 44.0246 29.8768 42.8102 32.9984 42.8102C36.12 42.8102 39.0509 44.0246 41.2579 46.2315C43.3909 48.3645 44.5975 51.1786 44.6753 54.1835C44.6792 54.3548 44.8154 54.4871 44.9867 54.4871H47.3221C47.3636 54.4871 47.4048 54.4788 47.4431 54.4627C47.4814 54.4465 47.516 54.4229 47.5451 54.3932C47.5741 54.3634 47.5969 54.3282 47.612 54.2895C47.6272 54.2508 47.6345 54.2095 47.6335 54.1679C47.5945 52.3074 47.2092 50.4975 46.4852 48.7888V48.7888ZM32.9984 39.852C31.2119 39.852 29.5304 39.1553 28.2654 37.8903C27.0004 36.6253 26.3037 34.9439 26.3037 33.1573C26.3037 31.3707 27.0004 29.6893 28.2654 28.4243C29.5304 27.1593 31.2119 26.4625 32.9984 26.4625C34.785 26.4625 36.4665 27.1593 37.7315 28.4243C38.9965 29.6893 39.6932 31.3707 39.6932 33.1573C39.6932 34.9439 38.9965 36.6253 37.7315 37.8903C36.4665 39.1553 34.785 39.852 32.9984 39.852Z" fill="white"/>
</svg>
