<svg width="34" height="34" viewBox="0 0 34 34" fill="none" xmlns="http://www.w3.org/2000/svg">
<path d="M0 17C0 7.61116 7.61116 0 17 0C26.3888 0 34 7.61116 34 17C34 26.3888 26.3888 34 17 34C7.61116 34 0 26.3888 0 17Z" fill="#7DB7FC"/>
<path d="M24.396 22.3681C23.9933 21.4143 23.409 20.548 22.6756 19.8174C21.9444 19.0846 21.0782 18.5004 20.1249 18.097C20.1163 18.0927 20.1078 18.0906 20.0992 18.0863C21.429 17.1258 22.2935 15.5612 22.2935 13.796C22.2935 10.8717 19.9242 8.50244 17 8.50244C14.0757 8.50244 11.7064 10.8717 11.7064 13.796C11.7064 15.5612 12.5709 17.1258 13.9007 18.0884C13.8922 18.0927 13.8836 18.0948 13.8751 18.0991C12.9188 18.5025 12.0608 19.081 11.3244 19.8195C10.5916 20.5507 10.0074 21.4169 9.60397 22.3702C9.20764 23.3035 8.9939 24.3041 8.9743 25.3179C8.97373 25.3407 8.97772 25.3634 8.98605 25.3846C8.99437 25.4058 9.00686 25.4251 9.02278 25.4414C9.03869 25.4578 9.05771 25.4707 9.07871 25.4796C9.09971 25.4884 9.12227 25.493 9.14506 25.493H10.4257C10.5197 25.493 10.5944 25.4182 10.5965 25.3265C10.6392 23.6786 11.3009 22.1354 12.4706 20.9657C13.6808 19.7555 15.2881 19.0895 17 19.0895C18.7118 19.0895 20.3191 19.7555 21.5293 20.9657C22.699 22.1354 23.3607 23.6786 23.4034 25.3265C23.4056 25.4204 23.4803 25.493 23.5742 25.493H24.8549C24.8777 25.493 24.9002 25.4884 24.9212 25.4796C24.9422 25.4707 24.9612 25.4578 24.9772 25.4414C24.9931 25.4251 25.0056 25.4058 25.0139 25.3846C25.0222 25.3634 25.0262 25.3407 25.0256 25.3179C25.0043 24.2976 24.793 23.3051 24.396 22.3681ZM17 17.4673C16.0202 17.4673 15.0981 17.0852 14.4044 16.3915C13.7107 15.6978 13.3286 14.7757 13.3286 13.796C13.3286 12.8162 13.7107 11.8941 14.4044 11.2004C15.0981 10.5067 16.0202 10.1247 17 10.1247C17.9797 10.1247 18.9018 10.5067 19.5955 11.2004C20.2892 11.8941 20.6713 12.8162 20.6713 13.796C20.6713 14.7757 20.2892 15.6978 19.5955 16.3915C18.9018 17.0852 17.9797 17.4673 17 17.4673Z" fill="white"/>
</svg>
