<svg width="264" height="280" viewBox="0 0 264 280" fill="none" xmlns="http://www.w3.org/2000/svg">
<mask id="mask0" mask-type="alpha" maskUnits="userSpaceOnUse" x="12" y="40" width="240" height="240">
<path d="M132 280C198.274 280 252 226.274 252 160C252 93.7258 198.274 40 132 40C65.7258 40 12 93.7258 12 160C12 226.274 65.7258 280 132 280Z" fill="white"/>
</mask>
<g mask="url(#mask0)">
<path d="M132 280C198.274 280 252 226.274 252 160C252 93.7258 198.274 40 132 40C65.7258 40 12 93.7258 12 160C12 226.274 65.7258 280 132 280Z" fill="#E6E6E6"/>
<path d="M252 40H12V280H252V40Z" fill="#65C9FF"/>
</g>
<mask id="mask1" mask-type="alpha" maskUnits="userSpaceOnUse" x="0" y="0" width="264" height="280">
<path d="M12 160C12 226.274 65.7258 280 132 280C198.274 280 252 226.274 252 160H264V0H0V160H12Z" fill="white"/>
</mask>
<g mask="url(#mask1)">
<mask id="mask2" mask-type="alpha" maskUnits="userSpaceOnUse" x="32" y="36" width="200" height="244">
<path d="M156 180.611V199H160C199.764 199 232 231.236 232 271V280H32V271C32 231.236 64.2355 199 104 199H108V180.611C90.7626 172.422 78.3722 155.687 76.3051 135.881C70.4803 135.058 66 130.052 66 124V110C66 104.054 70.3246 99.1181 76 98.1659V92C76 61.0721 101.072 36 132 36C162.928 36 188 61.0721 188 92V98.1659C193.675 99.1181 198 104.054 198 110V124C198 130.052 193.52 135.058 187.695 135.881C185.628 155.687 173.237 172.422 156 180.611Z" fill="white"/>
</mask>
<g mask="url(#mask2)">
<path d="M156 180.611V199H160C199.764 199 232 231.236 232 271V280H32V271C32 231.236 64.2355 199 104 199H108V180.611C90.7626 172.422 78.3722 155.687 76.3051 135.881C70.4803 135.058 66 130.052 66 124V110C66 104.054 70.3246 99.1181 76 98.1659V92C76 61.0721 101.072 36 132 36C162.928 36 188 61.0721 188 92V98.1659C193.675 99.1181 198 104.054 198 110V124C198 130.052 193.52 135.058 187.695 135.881C185.628 155.687 173.237 172.422 156 180.611Z" fill="#D0C6AC"/>
<path d="M264 36H0V280H264V36Z" fill="#FFDBB4"/>
<path fill-rule="evenodd" clip-rule="evenodd" d="M188 115V138C188 168.928 162.928 194 132 194C101.072 194 76 168.928 76 138V115V130C76 160.928 101.072 186 132 186C162.928 186 188 160.928 188 130V115Z" fill="black" fill-opacity="0.1"/>
</g>
<mask id="mask3" mask-type="alpha" maskUnits="userSpaceOnUse" x="32" y="199" width="200" height="81">
<path fill-rule="evenodd" clip-rule="evenodd" d="M171.32 199.936C205.706 205.366 232 235.138 232 271.052V280H32V271.052C32 235.138 58.2944 205.366 92.6818 199.936C93.5836 205.005 96.1164 209.824 100.236 213.539L129.321 239.767C130.843 241.14 133.157 241.14 134.679 239.767L163.764 213.539C164.189 213.155 164.601 212.756 164.998 212.343C168.414 208.787 170.517 204.452 171.32 199.936Z" fill="white"/>
</mask>
<g mask="url(#mask3)">
<path fill-rule="evenodd" clip-rule="evenodd" d="M171.32 199.936C205.706 205.366 232 235.138 232 271.052V280H32V271.052C32 235.138 58.2944 205.366 92.6818 199.936C93.5836 205.005 96.1164 209.824 100.236 213.539L129.321 239.767C130.843 241.14 133.157 241.14 134.679 239.767L163.764 213.539C164.189 213.155 164.601 212.756 164.998 212.343C168.414 208.787 170.517 204.452 171.32 199.936Z" fill="#E6E6E6"/>
<path d="M264 170H0V280H264V170Z" fill="#3C4F5C"/>
</g>
<mask id="mask4" mask-type="alpha" maskUnits="userSpaceOnUse" x="113" y="147" width="38" height="19">
<path fill-rule="evenodd" clip-rule="evenodd" d="M113.118 149.128C114.176 158.62 122.226 166 132 166C141.804 166 149.874 158.574 150.892 149.04C150.974 148.273 150.117 147 149.043 147C134.149 147 122.738 147 115.087 147C114.007 147 113.012 148.178 113.118 149.128Z" fill="white"/>
</mask>
<g mask="url(#mask4)">
<path fill-rule="evenodd" clip-rule="evenodd" d="M113.118 149.128C114.176 158.62 122.226 166 132 166C141.804 166 149.874 158.574 150.892 149.04C150.974 148.273 150.117 147 149.043 147C134.149 147 122.738 147 115.087 147C114.007 147 113.012 148.178 113.118 149.128Z" fill="black" fill-opacity="0.7"/>
<path d="M143 136H122C119.239 136 117 138.239 117 141V147C117 149.761 119.239 152 122 152H143C145.761 152 148 149.761 148 147V141C148 138.239 145.761 136 143 136Z" fill="white"/>
<path d="M127 180C133.075 180 138 175.075 138 169C138 162.925 133.075 158 127 158C120.925 158 116 162.925 116 169C116 175.075 120.925 180 127 180Z" fill="#FF4F6D"/>
<path d="M137 180C143.075 180 148 175.075 148 169C148 162.925 143.075 158 137 158C130.925 158 126 162.925 126 169C126 175.075 130.925 180 137 180Z" fill="#FF4F6D"/>
</g>
<path fill-rule="evenodd" clip-rule="evenodd" d="M120 130C120 134.418 125.373 138 132 138C138.627 138 144 134.418 144 130" fill="black" fill-opacity="0.16"/>
<path d="M106 118C109.314 118 112 115.314 112 112C112 108.686 109.314 106 106 106C102.686 106 100 108.686 100 112C100 115.314 102.686 118 106 118Z" fill="black" fill-opacity="0.6"/>
<path d="M158 118C161.314 118 164 115.314 164 112C164 108.686 161.314 106 158 106C154.686 106 152 108.686 152 112C152 115.314 154.686 118 158 118Z" fill="black" fill-opacity="0.6"/>
<path d="M91.6304 99.1585C95.5453 93.6498 106.278 90.5607 115.523 92.8311C116.596 93.0945 117.679 92.4384 117.942 91.3658C118.206 90.2931 117.55 89.2099 116.477 88.9465C105.741 86.3099 93.3123 89.8869 88.3699 96.8413C87.73 97.7417 87.9412 98.9903 88.8416 99.6301C89.7419 100.27 90.9905 100.059 91.6304 99.1585Z" fill="black" fill-opacity="0.6"/>
<path d="M172.371 99.1585C168.456 93.6498 157.723 90.5607 148.478 92.8311C147.405 93.0945 146.322 92.4384 146.059 91.3658C145.795 90.2931 146.451 89.2099 147.524 88.9465C158.26 86.3099 170.689 89.8869 175.631 96.8413C176.271 97.7417 176.06 98.9903 175.159 99.6301C174.259 100.27 173.01 100.059 172.371 99.1585Z" fill="black" fill-opacity="0.6"/>
<mask id="mask5" mask-type="alpha" maskUnits="userSpaceOnUse" x="0" y="0" width="264" height="280">
<path d="M264 0H0V280H264V0Z" fill="white"/>
</mask>
<g mask="url(#mask5)">
<mask id="mask6" mask-type="alpha" maskUnits="userSpaceOnUse" x="58" y="18" width="148" height="258">
<path fill-rule="evenodd" clip-rule="evenodd" d="M191.506 99.3351C195.364 101.331 198 105.357 198 110V123C198 129.019 193.569 134.002 187.791 134.867C186.048 155.115 173.531 172.283 156 180.611V199H160C177.491 199 193.525 205.237 206 215.608V92C206 71.5655 197.717 53.0655 184.326 39.6741C170.935 26.2827 152.435 18 132 18C91.1309 18 58 51.1309 58 92V275.716C71.5692 273.776 82 262.106 82 248V202.423C88.9347 200.2 96.3272 199 104 199H108V180.611C96.7726 175.277 87.6015 166.318 82 155.246V93.266C91.1468 90.291 100.778 86.0171 110.342 80.4953C125.745 71.6024 138.431 60.9409 147.066 50.397C148.831 55.5951 151.175 60.801 154.11 65.8848C162.878 81.0705 175.224 92.2337 188 97.917V98.1659C188.4 98.2331 188.794 98.3201 189.18 98.4259C189.955 98.7493 190.73 99.0525 191.506 99.3351Z" fill="white"/>
</mask>
<g mask="url(#mask6)">
<path fill-rule="evenodd" clip-rule="evenodd" d="M191.506 99.3351C195.364 101.331 198 105.357 198 110V123C198 129.019 193.569 134.002 187.791 134.867C186.048 155.115 173.531 172.283 156 180.611V199H160C177.491 199 193.525 205.237 206 215.608V92C206 71.5655 197.717 53.0655 184.326 39.6741C170.935 26.2827 152.435 18 132 18C91.1309 18 58 51.1309 58 92V275.716C71.5692 273.776 82 262.106 82 248V202.423C88.9347 200.2 96.3272 199 104 199H108V180.611C96.7726 175.277 87.6015 166.318 82 155.246V93.266C91.1468 90.291 100.778 86.0171 110.342 80.4953C125.745 71.6024 138.431 60.9409 147.066 50.397C148.831 55.5951 151.175 60.801 154.11 65.8848C162.878 81.0705 175.224 92.2337 188 97.917V98.1659C188.4 98.2331 188.794 98.3201 189.18 98.4259C189.955 98.7493 190.73 99.0525 191.506 99.3351Z" fill="#944F23"/>
<path d="M322 18H58V298H322V18Z" fill="#4A312C"/>
</g>
<path fill-rule="evenodd" clip-rule="evenodd" d="M191.506 99.3353C196.374 101.108 201.263 102.072 206 102.148V92.0002C206 71.5657 197.717 53.0657 184.326 39.6743C197.717 53.0657 206 71.5657 206 92.0002V215.608C193.525 205.237 177.491 199 160 199H156V180.611C173.531 172.283 186.048 155.115 187.791 134.867C193.569 134.003 198 129.019 198 123V110C198 105.358 195.364 101.331 191.506 99.3353ZM189.18 98.4261C188.794 98.3203 188.4 98.2333 188 98.1661V97.9173C188.393 98.0921 188.786 98.2617 189.18 98.4261ZM82 155.246C87.6015 166.318 96.7726 175.278 108 180.611V199H104C96.3272 199 88.9347 200.2 82 202.423V155.246Z" fill="black" fill-opacity="0.24"/>
</g>
</g>
</svg>
