<svg width="264" height="280" viewBox="0 0 264 280" fill="none" xmlns="http://www.w3.org/2000/svg">
<mask id="mask0" mask-type="alpha" maskUnits="userSpaceOnUse" x="12" y="40" width="240" height="240">
<path d="M132 280C198.274 280 252 226.274 252 160C252 93.7258 198.274 40 132 40C65.7258 40 12 93.7258 12 160C12 226.274 65.7258 280 132 280Z" fill="white"/>
</mask>
<g mask="url(#mask0)">
<path d="M132 280C198.274 280 252 226.274 252 160C252 93.7258 198.274 40 132 40C65.7258 40 12 93.7258 12 160C12 226.274 65.7258 280 132 280Z" fill="#E6E6E6"/>
<path d="M252 40H12V280H252V40Z" fill="#65C9FF"/>
</g>
<mask id="mask1" mask-type="alpha" maskUnits="userSpaceOnUse" x="0" y="0" width="264" height="280">
<path d="M12 160C12 226.274 65.7258 280 132 280C198.274 280 252 226.274 252 160H264V0H0V160H12Z" fill="white"/>
</mask>
<g mask="url(#mask1)">
<mask id="mask2" mask-type="alpha" maskUnits="userSpaceOnUse" x="32" y="36" width="200" height="244">
<path d="M156 180.611V199H160C199.764 199 232 231.236 232 271V280H32V271C32 231.236 64.2355 199 104 199H108V180.611C90.7626 172.422 78.3722 155.687 76.3051 135.881C70.4803 135.058 66 130.052 66 124V110C66 104.054 70.3246 99.1181 76 98.1659V92C76 61.0721 101.072 36 132 36C162.928 36 188 61.0721 188 92V98.1659C193.675 99.1181 198 104.054 198 110V124C198 130.052 193.52 135.058 187.695 135.881C185.628 155.687 173.237 172.422 156 180.611Z" fill="white"/>
</mask>
<g mask="url(#mask2)">
<path d="M156 180.611V199H160C199.764 199 232 231.236 232 271V280H32V271C32 231.236 64.2355 199 104 199H108V180.611C90.7626 172.422 78.3722 155.687 76.3051 135.881C70.4803 135.058 66 130.052 66 124V110C66 104.054 70.3246 99.1181 76 98.1659V92C76 61.0721 101.072 36 132 36C162.928 36 188 61.0721 188 92V98.1659C193.675 99.1181 198 104.054 198 110V124C198 130.052 193.52 135.058 187.695 135.881C185.628 155.687 173.237 172.422 156 180.611Z" fill="#D0C6AC"/>
<path d="M264 36H0V280H264V36Z" fill="#FFDBB4"/>
<path fill-rule="evenodd" clip-rule="evenodd" d="M188 115V138C188 168.928 162.928 194 132 194C101.072 194 76 168.928 76 138V115V130C76 160.928 101.072 186 132 186C162.928 186 188 160.928 188 130V115Z" fill="black" fill-opacity="0.1"/>
</g>
<mask id="mask3" mask-type="alpha" maskUnits="userSpaceOnUse" x="32" y="183" width="200" height="97">
<path fill-rule="evenodd" clip-rule="evenodd" d="M108 183.071C90.0813 185.076 76.2798 190.552 76.0042 204.645C50.1464 215.568 32 241.165 32 270.999V280H232V270.999C232 241.165 213.854 215.568 187.996 204.645C187.72 190.552 173.919 185.076 156 183.071V202C156 215.255 145.255 226 132 226C118.745 226 108 215.255 108 202V183.071Z" fill="white"/>
</mask>
<g mask="url(#mask3)">
<path fill-rule="evenodd" clip-rule="evenodd" d="M108 183.071C90.0813 185.076 76.2798 190.552 76.0042 204.645C50.1464 215.568 32 241.165 32 270.999V280H232V270.999C232 241.165 213.854 215.568 187.996 204.645C187.72 190.552 173.919 185.076 156 183.071V202C156 215.255 145.255 226 132 226C118.745 226 108 215.255 108 202V183.071Z" fill="#B7C1DB"/>
<path d="M264 170H0V280H264V170Z" fill="#262E33"/>
<path fill-rule="evenodd" clip-rule="evenodd" d="M102 231.739V280H95V228.15C97.2038 229.46 99.5468 230.661 102 231.739ZM169 228.15V268.5C169 270.433 167.433 272 165.5 272C163.567 272 162 270.433 162 268.5V231.739C164.453 230.661 166.796 229.46 169 228.15Z" fill="#F4F4F4"/>
<path fill-rule="evenodd" clip-rule="evenodd" d="M90.9601 182.724C75.9093 185.571 65.5 191.243 65.5 202.307C65.5 222.02 98.5377 238 132 238C165.462 238 198.5 222.02 198.5 202.307C198.5 191.243 188.091 185.571 173.04 182.724C182.125 186.074 188 191.706 188 201.077C188 221.469 160.179 238 132 238C103.821 238 76 221.469 76 201.077C76 191.706 81.8751 186.074 90.9601 182.724Z" fill="black" fill-opacity="0.16"/>
</g>
<mask id="mask4" mask-type="alpha" maskUnits="userSpaceOnUse" x="106" y="147" width="52" height="20">
<path fill-rule="evenodd" clip-rule="evenodd" d="M107 149.609C108.411 159.231 119.063 167 132 167C144.969 167 155.647 159.183 157 148.739C157.102 148.34 156.776 147 154.827 147C134.839 147 119.74 147 109.174 147C107.384 147 106.871 148.24 107 149.609Z" fill="white"/>
</mask>
<g mask="url(#mask4)">
<path fill-rule="evenodd" clip-rule="evenodd" d="M107 149.609C108.411 159.231 119.063 167 132 167C144.969 167 155.647 159.183 157 148.739C157.102 148.34 156.776 147 154.827 147C134.839 147 119.74 147 109.174 147C107.384 147 106.871 148.24 107 149.609Z" fill="black" fill-opacity="0.7"/>
<path d="M143 136H122C119.239 136 117 138.239 117 141V147C117 149.761 119.239 152 122 152H143C145.761 152 148 149.761 148 147V141C148 138.239 145.761 136 143 136Z" fill="white"/>
<path fill-rule="evenodd" clip-rule="evenodd" d="M143.984 157.747C143.995 157.83 144 157.914 144 158V167C144 173.075 139.075 178 133 178H132C125.925 178 121 173.075 121 167V158C121 157.914 121.005 157.83 121.016 157.747C121.005 157.665 121 157.583 121 157.5C121 155.567 123.91 154 127.5 154C129.51 154 131.308 154.491 132.5 155.263C133.692 154.491 135.49 154 137.5 154C141.09 154 144 155.567 144 157.5C144 157.583 143.995 157.665 143.984 157.747Z" fill="#FF4F6D"/>
</g>
<path fill-rule="evenodd" clip-rule="evenodd" d="M120 130C120 134.418 125.373 138 132 138C138.627 138 144 134.418 144 130" fill="black" fill-opacity="0.16"/>
<path fill-rule="evenodd" clip-rule="evenodd" d="M92.1602 112.447C94.0067 108.649 98.1644 106 102.998 106C107.814 106 111.959 108.63 113.815 112.407C114.367 113.529 113.582 114.447 112.791 113.767C110.34 111.66 106.859 110.344 102.998 110.344C99.2572 110.344 95.8738 111.579 93.4375 113.572C92.5468 114.3 91.6201 113.558 92.1602 112.447Z" fill="black" fill-opacity="0.6"/>
<path fill-rule="evenodd" clip-rule="evenodd" d="M150.16 112.447C152.007 108.649 156.164 106 160.998 106C165.814 106 169.959 108.63 171.815 112.407C172.367 113.529 171.582 114.447 170.791 113.767C168.34 111.66 164.859 110.344 160.998 110.344C157.257 110.344 153.874 111.579 151.438 113.572C150.547 114.3 149.62 113.558 150.16 112.447Z" fill="black" fill-opacity="0.6"/>
<path d="M91.6304 99.1585C95.5453 93.6498 106.278 90.5607 115.523 92.8311C116.596 93.0945 117.679 92.4384 117.942 91.3658C118.206 90.2931 117.55 89.2099 116.477 88.9465C105.741 86.3099 93.3123 89.8869 88.3699 96.8413C87.73 97.7417 87.9412 98.9903 88.8416 99.6301C89.7419 100.27 90.9905 100.059 91.6304 99.1585Z" fill="black" fill-opacity="0.6"/>
<path d="M172.371 99.1585C168.456 93.6498 157.723 90.5607 148.478 92.8311C147.405 93.0945 146.322 92.4384 146.059 91.3658C145.795 90.2931 146.451 89.2099 147.524 88.9465C158.26 86.3099 170.689 89.8869 175.631 96.8413C176.271 97.7417 176.06 98.9903 175.159 99.6301C174.259 100.27 173.01 100.059 172.371 99.1585Z" fill="black" fill-opacity="0.6"/>
<mask id="mask5" mask-type="alpha" maskUnits="userSpaceOnUse" x="0" y="0" width="264" height="280">
<path d="M264 0H0V280H264V0Z" fill="white"/>
</mask>
<g mask="url(#mask5)">
<mask id="mask6" mask-type="alpha" maskUnits="userSpaceOnUse" x="49" y="18" width="157" height="172">
<path fill-rule="evenodd" clip-rule="evenodd" d="M58 102.34C58 118.921 58 145.474 58 182C58 186.418 61.5817 190 66 190H108V180.611C90.4692 172.283 77.9518 155.115 76.2086 134.867C70.4309 134.002 66 129.019 66 123V110C66 106.509 67.4904 103.367 69.8695 101.174C81.4088 98.5553 93.9707 93.6376 106.342 86.4953C118.473 79.4911 128.844 71.2579 136.821 62.7522C133.394 70.6604 129.245 77.588 124.372 83.535C137.047 78.0121 145.678 69.1324 150.264 56.8961C150.641 57.818 151.035 58.7389 151.444 59.6582C161.7 82.6926 179.318 99.0186 197.206 104.403C197.719 106.513 198 108.484 198 110V123C198 129.019 193.569 134.002 187.791 134.867C186.048 155.115 173.531 172.283 156 180.611V190H174C191.673 190 206 175.673 206 158C206 133.944 206 115.903 206 103.875C206 103.808 205.991 103.721 205.972 103.615C205.828 91.3537 205.624 84.2238 205.36 82.2256C200.577 45.9764 169.556 18 132 18C95.9151 18 65.8627 43.8283 59 78C53.4772 78 49 83.5964 49 90.5C49 95.0508 50.695 99.1432 53.8535 101.273C54.7582 101.883 56.3238 102.198 58 102.34Z" fill="white"/>
</mask>
<g mask="url(#mask6)">
<path fill-rule="evenodd" clip-rule="evenodd" d="M58 102.34C58 118.921 58 145.474 58 182C58 186.418 61.5817 190 66 190H108V180.611C90.4692 172.283 77.9518 155.115 76.2086 134.867C70.4309 134.002 66 129.019 66 123V110C66 106.509 67.4904 103.367 69.8695 101.174C81.4088 98.5553 93.9707 93.6376 106.342 86.4953C118.473 79.4911 128.844 71.2579 136.821 62.7522C133.394 70.6604 129.245 77.588 124.372 83.535C137.047 78.0121 145.678 69.1324 150.264 56.8961C150.641 57.818 151.035 58.7389 151.444 59.6582C161.7 82.6926 179.318 99.0186 197.206 104.403C197.719 106.513 198 108.484 198 110V123C198 129.019 193.569 134.002 187.791 134.867C186.048 155.115 173.531 172.283 156 180.611V190H174C191.673 190 206 175.673 206 158C206 133.944 206 115.903 206 103.875C206 103.808 205.991 103.721 205.972 103.615C205.828 91.3537 205.624 84.2238 205.36 82.2256C200.577 45.9764 169.556 18 132 18C95.9151 18 65.8627 43.8283 59 78C53.4772 78 49 83.5964 49 90.5C49 95.0508 50.695 99.1432 53.8535 101.273C54.7582 101.883 56.3238 102.198 58 102.34Z" fill="#944F23"/>
<path d="M263 0H-1V280H263V0Z" fill="#D6B370"/>
</g>
<g opacity="0.439991">
<path opacity="0.439991" fill-rule="evenodd" clip-rule="evenodd" d="M60.899 102.775C74.7109 101.015 90.6793 95.5379 106.342 86.4953C118.473 79.4911 128.844 71.2579 136.821 62.7522C133.394 70.6604 129.245 77.588 124.372 83.535C137.047 78.0121 145.678 69.1324 150.264 56.8961C150.641 57.818 151.035 58.7389 151.444 59.6582C163.382 86.4714 185.296 104.194 206 106.151V92C206 51.1309 172.869 18 132 18C95.9151 18 65.8627 43.8283 59.3213 78.0063C59.2146 78.0021 59.1075 78 59 78C53.4772 78 49 83.5964 49 90.5C49 96.9817 52.9467 102.311 58 102.938V103.093C58.3163 103.064 58.6339 103.033 58.9527 103C58.9685 103 58.9842 103 59 103C59.6493 103 60.2841 102.923 60.899 102.775Z" fill="white" fill-opacity="0.16"/>
</g>
</g>
</g>
</svg>
