<svg width="264" height="280" viewBox="0 0 264 280" fill="none" xmlns="http://www.w3.org/2000/svg">
<mask id="mask0" mask-type="alpha" maskUnits="userSpaceOnUse" x="12" y="40" width="240" height="240">
<path d="M132 280C198.274 280 252 226.274 252 160C252 93.7258 198.274 40 132 40C65.7258 40 12 93.7258 12 160C12 226.274 65.7258 280 132 280Z" fill="white"/>
</mask>
<g mask="url(#mask0)">
<path d="M132 280C198.274 280 252 226.274 252 160C252 93.7258 198.274 40 132 40C65.7258 40 12 93.7258 12 160C12 226.274 65.7258 280 132 280Z" fill="#E6E6E6"/>
<path d="M252 40H12V280H252V40Z" fill="#65C9FF"/>
</g>
<mask id="mask1" mask-type="alpha" maskUnits="userSpaceOnUse" x="0" y="0" width="264" height="280">
<path d="M12 160C12 226.274 65.7258 280 132 280C198.274 280 252 226.274 252 160H264V0H0V160H12Z" fill="white"/>
</mask>
<g mask="url(#mask1)">
<mask id="mask2" mask-type="alpha" maskUnits="userSpaceOnUse" x="32" y="36" width="200" height="244">
<path d="M156 180.611V199H160C199.764 199 232 231.236 232 271V280H32V271C32 231.236 64.2355 199 104 199H108V180.611C90.7626 172.422 78.3722 155.687 76.3051 135.881C70.4803 135.058 66 130.052 66 124V110C66 104.054 70.3246 99.1181 76 98.1659V92C76 61.0721 101.072 36 132 36C162.928 36 188 61.0721 188 92V98.1659C193.675 99.1181 198 104.054 198 110V124C198 130.052 193.52 135.058 187.695 135.881C185.628 155.687 173.237 172.422 156 180.611Z" fill="white"/>
</mask>
<g mask="url(#mask2)">
<path d="M156 180.611V199H160C199.764 199 232 231.236 232 271V280H32V271C32 231.236 64.2355 199 104 199H108V180.611C90.7626 172.422 78.3722 155.687 76.3051 135.881C70.4803 135.058 66 130.052 66 124V110C66 104.054 70.3246 99.1181 76 98.1659V92C76 61.0721 101.072 36 132 36C162.928 36 188 61.0721 188 92V98.1659C193.675 99.1181 198 104.054 198 110V124C198 130.052 193.52 135.058 187.695 135.881C185.628 155.687 173.237 172.422 156 180.611Z" fill="#D0C6AC"/>
<path d="M264 36H0V280H264V36Z" fill="#FFDBB4"/>
<path fill-rule="evenodd" clip-rule="evenodd" d="M188 115V138C188 168.928 162.928 194 132 194C101.072 194 76 168.928 76 138V115V130C76 160.928 101.072 186 132 186C162.928 186 188 160.928 188 130V115Z" fill="black" fill-opacity="0.1"/>
</g>
<mask id="mask3" mask-type="alpha" maskUnits="userSpaceOnUse" x="32" y="199" width="200" height="81">
<path fill-rule="evenodd" clip-rule="evenodd" d="M165.96 199.295C202.936 202.325 232 233.294 232 271.052V280H32V271.052C32 232.953 61.592 201.765 99.0454 199.219C99.0153 199.593 99 199.969 99 200.348C99 212.211 113.998 221.828 132.5 221.828C151.002 221.828 166 212.211 166 200.348C166 199.995 165.987 199.644 165.96 199.295Z" fill="white"/>
</mask>
<g mask="url(#mask3)">
<path fill-rule="evenodd" clip-rule="evenodd" d="M165.96 199.295C202.936 202.325 232 233.294 232 271.052V280H32V271.052C32 232.953 61.592 201.765 99.0454 199.219C99.0153 199.593 99 199.969 99 200.348C99 212.211 113.998 221.828 132.5 221.828C151.002 221.828 166 212.211 166 200.348C166 199.995 165.987 199.644 165.96 199.295Z" fill="#E6E6E6"/>
<path d="M264 170H0V280H264V170Z" fill="#3C4F5C"/>
<g opacity="0.6">
<g opacity="0.6">
<path opacity="0.6" d="M132.5 228.761C154.39 228.761 172.135 216.712 172.135 201.848C172.135 186.984 154.39 174.934 132.5 174.934C110.61 174.934 92.8652 186.984 92.8652 201.848C92.8652 216.712 110.61 228.761 132.5 228.761Z" fill="black" fill-opacity="0.16"/>
</g>
</g>
</g>
<mask id="mask4" mask-type="alpha" maskUnits="userSpaceOnUse" x="113" y="147" width="38" height="19">
<path fill-rule="evenodd" clip-rule="evenodd" d="M113.118 149.128C114.176 158.62 122.226 166 132 166C141.804 166 149.874 158.574 150.892 149.04C150.974 148.273 150.117 147 149.043 147C134.149 147 122.738 147 115.087 147C114.007 147 113.012 148.178 113.118 149.128Z" fill="white"/>
</mask>
<g mask="url(#mask4)">
<path fill-rule="evenodd" clip-rule="evenodd" d="M113.118 149.128C114.176 158.62 122.226 166 132 166C141.804 166 149.874 158.574 150.892 149.04C150.974 148.273 150.117 147 149.043 147C134.149 147 122.738 147 115.087 147C114.007 147 113.012 148.178 113.118 149.128Z" fill="black" fill-opacity="0.7"/>
<path d="M143 136H122C119.239 136 117 138.239 117 141V147C117 149.761 119.239 152 122 152H143C145.761 152 148 149.761 148 147V141C148 138.239 145.761 136 143 136Z" fill="white"/>
<path d="M127 180C133.075 180 138 175.075 138 169C138 162.925 133.075 158 127 158C120.925 158 116 162.925 116 169C116 175.075 120.925 180 127 180Z" fill="#FF4F6D"/>
<path d="M137 180C143.075 180 148 175.075 148 169C148 162.925 143.075 158 137 158C130.925 158 126 162.925 126 169C126 175.075 130.925 180 137 180Z" fill="#FF4F6D"/>
</g>
<path fill-rule="evenodd" clip-rule="evenodd" d="M120 130C120 134.418 125.373 138 132 138C138.627 138 144 134.418 144 130" fill="black" fill-opacity="0.16"/>
<path d="M106 118C109.314 118 112 115.314 112 112C112 108.686 109.314 106 106 106C102.686 106 100 108.686 100 112C100 115.314 102.686 118 106 118Z" fill="black" fill-opacity="0.6"/>
<path d="M158 118C161.314 118 164 115.314 164 112C164 108.686 161.314 106 158 106C154.686 106 152 108.686 152 112C152 115.314 154.686 118 158 118Z" fill="black" fill-opacity="0.6"/>
<path d="M91.6304 99.1585C95.5453 93.6498 106.278 90.5607 115.523 92.8311C116.596 93.0945 117.679 92.4384 117.942 91.3658C118.206 90.2931 117.55 89.2099 116.477 88.9465C105.741 86.3099 93.3123 89.8869 88.3699 96.8413C87.73 97.7417 87.9412 98.9903 88.8416 99.6301C89.7419 100.27 90.9905 100.059 91.6304 99.1585Z" fill="black" fill-opacity="0.6"/>
<path d="M172.371 99.1585C168.456 93.6498 157.723 90.5607 148.478 92.8311C147.405 93.0945 146.322 92.4384 146.059 91.3658C145.795 90.2931 146.451 89.2099 147.524 88.9465C158.26 86.3099 170.689 89.8869 175.631 96.8413C176.271 97.7417 176.06 98.9903 175.159 99.6301C174.259 100.27 173.01 100.059 172.371 99.1585Z" fill="black" fill-opacity="0.6"/>
<mask id="mask5" mask-type="alpha" maskUnits="userSpaceOnUse" x="0" y="0" width="264" height="280">
<path d="M264 0H0V280H264V0Z" fill="white"/>
</mask>
<g mask="url(#mask5)">
<mask id="mask6" mask-type="alpha" maskUnits="userSpaceOnUse" x="73" y="26" width="118" height="73">
<path fill-rule="evenodd" clip-rule="evenodd" d="M166.309 35.006C146.121 23.3064 126.129 25.2219 111.037 29.0299C95.9448 32.8379 87.0168 43.6512 79.3567 59.648C75.5956 67.5028 73.366 76.7914 73.0231 85.4813C72.8884 88.8932 73.3484 92.4151 74.2677 95.7003C74.6049 96.9061 76.4232 101.087 76.9225 97.7088C77.0885 96.5842 76.4804 95.0327 76.4216 93.8375C76.3444 92.2693 76.4273 90.6807 76.5342 89.1148C76.7341 86.1873 77.256 83.3153 78.1847 80.5246C79.5119 76.5367 81.2014 72.2128 83.7874 68.848C90.1884 60.5205 101.269 60.0458 110.066 55.4635C109.303 56.8686 106.36 59.1432 107.379 60.7268C108.084 61.8206 110.749 61.489 112.022 61.4539C115.371 61.3623 118.735 60.7796 122.043 60.3069C127.256 59.5617 132.141 58.0517 137.047 56.218C141.063 54.7163 145.65 53.3256 148.669 50.1404C153.54 55.188 159.81 59.9345 166.07 63.1428C171.688 66.0221 180.749 67.461 184.183 73.3006C188.248 80.2147 186.378 88.7073 187.619 96.2007C188.091 99.0503 189.164 98.9865 189.751 96.4377C190.748 92.1082 191.219 87.6101 190.902 83.1592C190.184 73.1114 186.497 46.7056 166.309 35.006Z" fill="white"/>
</mask>
<g mask="url(#mask6)">
<path fill-rule="evenodd" clip-rule="evenodd" d="M166.309 35.006C146.121 23.3064 126.129 25.2219 111.037 29.0299C95.9448 32.8379 87.0168 43.6512 79.3567 59.648C75.5956 67.5028 73.366 76.7914 73.0231 85.4813C72.8884 88.8932 73.3484 92.4151 74.2677 95.7003C74.6049 96.9061 76.4232 101.087 76.9225 97.7088C77.0885 96.5842 76.4804 95.0327 76.4216 93.8375C76.3444 92.2693 76.4273 90.6807 76.5342 89.1148C76.7341 86.1873 77.256 83.3153 78.1847 80.5246C79.5119 76.5367 81.2014 72.2128 83.7874 68.848C90.1884 60.5205 101.269 60.0458 110.066 55.4635C109.303 56.8686 106.36 59.1432 107.379 60.7268C108.084 61.8206 110.749 61.489 112.022 61.4539C115.371 61.3623 118.735 60.7796 122.043 60.3069C127.256 59.5617 132.141 58.0517 137.047 56.218C141.063 54.7163 145.65 53.3256 148.669 50.1404C153.54 55.188 159.81 59.9345 166.07 63.1428C171.688 66.0221 180.749 67.461 184.183 73.3006C188.248 80.2147 186.378 88.7073 187.619 96.2007C188.091 99.0503 189.164 98.9865 189.751 96.4377C190.748 92.1082 191.219 87.6101 190.902 83.1592C190.184 73.1114 186.497 46.7056 166.309 35.006Z" fill="#28354B"/>
<path d="M263 0H-1V280H263V0Z" fill="#724133"/>
<g filter="url(#filter0_d)">
<path d="M101 133H98.2421C84.3147 133 76 125.336 76 112.5C76 102.127 77.817 92 99.5299 92H102.47C124.183 92 126 102.127 126 112.5C126 124.569 115.721 133 101 133ZM99.3854 98C80 98 80 104.841 80 113.502C80 120.572 83.1163 129 97.9709 129H101C113.365 129 122 122.627 122 113.502C122 104.841 122 98 102.615 98H99.3854Z" fill="#252C2F"/>
<path d="M163 133H160.242C146.315 133 138 125.336 138 112.5C138 102.127 139.817 92 161.53 92H164.47C186.183 92 188 102.127 188 112.5C188 124.569 177.721 133 163 133ZM161.385 98C142 98 142 104.841 142 113.502C142 120.572 145.119 129 159.971 129H163C175.365 129 184 122.627 184 113.502C184 104.841 184 98 164.615 98H161.385Z" fill="#252C2F"/>
<path d="M69.9545 97.7716C70.6459 97.0963 78.2095 92 99.5 92C117.351 92 121.13 93.8527 126.85 96.6519L127.269 96.8585C127.667 96.999 129.7 97.6898 132.079 97.7658C134.246 97.6728 136.1 97.0854 136.642 96.8972C143.17 93.7221 149.561 92 164.5 92C185.79 92 193.354 97.0963 194.045 97.7716C195.679 97.7716 197 99.0615 197 100.657V103.543C197 105.139 195.679 106.429 194.045 106.429C194.045 106.429 187.144 106.429 187.144 109.315C187.144 112.2 185.182 105.139 185.182 103.543V100.732C181.579 99.3534 175.128 96.7862 164.5 96.7862C152.658 96.7862 146.761 98.886 141.702 100.971L141.759 101.108L141.756 103.094L139.539 108.444L136.8 107.361C136.556 107.264 136.028 107.09 135.296 106.91C133.256 106.407 131.159 106.254 129.304 106.634C128.624 106.774 127.992 106.984 127.413 107.267L124.77 108.558L122.127 103.396L122.244 101.102L122.325 100.907C117.962 98.8739 113.939 96.7862 99.5 96.7862C88.8721 96.7862 82.4221 99.3524 78.8182 100.731V103.543C78.8182 105.139 75.8636 112.2 75.8636 109.315C75.8636 106.429 69.9545 106.429 69.9545 106.429C68.3236 106.429 67 105.139 67 103.543V100.657C67 99.0615 68.3236 97.7716 69.9545 97.7716Z" fill="#252C2F"/>
</g>
</g>
</g>
</g>
<g filter="url(#filter1_d)">
<path d="M106.246 129.893H103.955C92.3842 129.893 85.4766 123.183 85.4766 111.946C85.4766 102.866 86.9861 94 105.024 94H107.467C125.505 94 127.015 102.866 127.015 111.946C127.015 122.512 118.476 129.893 106.246 129.893ZM104.904 99.2526C88.7996 99.2526 88.7996 105.241 88.7996 112.823C88.7996 119.013 91.3885 126.391 103.729 126.391H106.246C116.518 126.391 123.692 120.812 123.692 112.823C123.692 105.241 123.692 99.2526 107.587 99.2526H104.904Z" fill="#252C2F"/>
<path d="M157.755 129.893H155.463C143.893 129.893 136.985 123.183 136.985 111.946C136.985 102.866 138.495 94 156.533 94H158.976C177.014 94 178.524 102.866 178.524 111.946C178.524 122.512 169.985 129.893 157.755 129.893ZM156.413 99.2526C140.308 99.2526 140.308 105.241 140.308 112.823C140.308 119.013 142.9 126.391 155.238 126.391H157.755C168.027 126.391 175.201 120.812 175.201 112.823C175.201 105.241 175.201 99.2526 159.096 99.2526H156.413Z" fill="#252C2F"/>
<path d="M80.4545 99.0526C81.0289 98.4615 87.3125 94 105 94C119.83 94 122.97 95.6219 127.722 98.0724L128.07 98.2533C128.4 98.3763 130.089 98.9811 132.066 99.0476C133.866 98.9661 135.406 98.4519 135.856 98.2872C141.28 95.5076 146.589 94 159 94C176.687 94 182.971 98.4615 183.545 99.0526C184.903 99.0526 186 100.182 186 101.579V104.105C186 105.502 184.903 106.632 183.545 106.632C183.545 106.632 177.812 106.632 177.812 109.158C177.812 111.684 176.182 105.502 176.182 104.105V101.645C173.188 100.437 167.83 98.19 159 98.19C149.162 98.19 144.263 100.028 140.06 101.854L140.107 101.973L140.105 103.712L138.263 108.395L135.988 107.447C135.785 107.363 135.346 107.211 134.738 107.053C133.044 106.612 131.301 106.478 129.76 106.811C129.195 106.934 128.67 107.117 128.189 107.365L125.994 108.495L123.797 103.977L123.895 101.968L123.962 101.797C120.338 100.018 116.996 98.19 105 98.19C96.1707 98.19 90.8122 100.437 87.8182 101.644V104.105C87.8182 105.502 85.3636 111.684 85.3636 109.158C85.3636 106.632 80.4545 106.632 80.4545 106.632C79.0996 106.632 78 105.502 78 104.105V101.579C78 100.182 79.0996 99.0526 80.4545 99.0526Z" fill="#252C2F"/>
</g>
<defs>
<filter id="filter0_d" x="63" y="90" width="138" height="49" filterUnits="userSpaceOnUse" color-interpolation-filters="sRGB">
<feFlood flood-opacity="0" result="BackgroundImageFix"/>
<feColorMatrix in="SourceAlpha" type="matrix" values="0 0 0 0 0 0 0 0 0 0 0 0 0 0 0 0 0 0 127 0"/>
<feOffset dy="2"/>
<feGaussianBlur stdDeviation="2"/>
<feColorMatrix type="matrix" values="0 0 0 0 0 0 0 0 0 0 0 0 0 0 0 0 0 0 0.2 0"/>
<feBlend mode="normal" in2="BackgroundImageFix" result="effect1_dropShadow"/>
<feBlend mode="normal" in="SourceGraphic" in2="effect1_dropShadow" result="shape"/>
</filter>
<filter id="filter1_d" x="74" y="92" width="116" height="43.8927" filterUnits="userSpaceOnUse" color-interpolation-filters="sRGB">
<feFlood flood-opacity="0" result="BackgroundImageFix"/>
<feColorMatrix in="SourceAlpha" type="matrix" values="0 0 0 0 0 0 0 0 0 0 0 0 0 0 0 0 0 0 127 0"/>
<feOffset dy="2"/>
<feGaussianBlur stdDeviation="2"/>
<feColorMatrix type="matrix" values="0 0 0 0 0 0 0 0 0 0 0 0 0 0 0 0 0 0 0.2 0"/>
<feBlend mode="normal" in2="BackgroundImageFix" result="effect1_dropShadow"/>
<feBlend mode="normal" in="SourceGraphic" in2="effect1_dropShadow" result="shape"/>
</filter>
</defs>
</svg>
