<svg width="264" height="280" viewBox="0 0 264 280" fill="none" xmlns="http://www.w3.org/2000/svg">
<mask id="mask0" mask-type="alpha" maskUnits="userSpaceOnUse" x="12" y="40" width="240" height="240">
<path d="M132 280C198.274 280 252 226.274 252 160C252 93.7258 198.274 40 132 40C65.7258 40 12 93.7258 12 160C12 226.274 65.7258 280 132 280Z" fill="white"/>
</mask>
<g mask="url(#mask0)">
<path d="M132 280C198.274 280 252 226.274 252 160C252 93.7258 198.274 40 132 40C65.7258 40 12 93.7258 12 160C12 226.274 65.7258 280 132 280Z" fill="#E6E6E6"/>
<path d="M252 40H12V280H252V40Z" fill="#65C9FF"/>
</g>
<mask id="mask1" mask-type="alpha" maskUnits="userSpaceOnUse" x="0" y="0" width="264" height="280">
<path d="M12 160C12 226.274 65.7258 280 132 280C198.274 280 252 226.274 252 160H264V0H0V160H12Z" fill="white"/>
</mask>
<g mask="url(#mask1)">
<mask id="mask2" mask-type="alpha" maskUnits="userSpaceOnUse" x="32" y="36" width="200" height="244">
<path d="M156 180.611V199H160C199.764 199 232 231.236 232 271V280H32V271C32 231.236 64.2355 199 104 199H108V180.611C90.7626 172.422 78.3722 155.687 76.3051 135.881C70.4803 135.058 66 130.052 66 124V110C66 104.054 70.3246 99.1181 76 98.1659V92C76 61.0721 101.072 36 132 36C162.928 36 188 61.0721 188 92V98.1659C193.675 99.1181 198 104.054 198 110V124C198 130.052 193.52 135.058 187.695 135.881C185.628 155.687 173.237 172.422 156 180.611Z" fill="white"/>
</mask>
<g mask="url(#mask2)">
<path d="M156 180.611V199H160C199.764 199 232 231.236 232 271V280H32V271C32 231.236 64.2355 199 104 199H108V180.611C90.7626 172.422 78.3722 155.687 76.3051 135.881C70.4803 135.058 66 130.052 66 124V110C66 104.054 70.3246 99.1181 76 98.1659V92C76 61.0721 101.072 36 132 36C162.928 36 188 61.0721 188 92V98.1659C193.675 99.1181 198 104.054 198 110V124C198 130.052 193.52 135.058 187.695 135.881C185.628 155.687 173.237 172.422 156 180.611Z" fill="#D0C6AC"/>
<path d="M264 36H0V280H264V36Z" fill="#EDB98A"/>
<path fill-rule="evenodd" clip-rule="evenodd" d="M188 115V138C188 168.928 162.928 194 132 194C101.072 194 76 168.928 76 138V115V130C76 160.928 101.072 186 132 186C162.928 186 188 160.928 188 130V115Z" fill="black" fill-opacity="0.1"/>
</g>
<mask id="mask3" mask-type="alpha" maskUnits="userSpaceOnUse" x="32" y="199" width="200" height="81">
<path fill-rule="evenodd" clip-rule="evenodd" d="M171.32 199.937C205.706 205.367 232 235.139 232 271.052V280H32V271.052C32 235.138 58.2944 205.366 92.6818 199.936C93.5836 205.005 96.1164 209.824 100.236 213.539L129.321 239.768C130.843 241.14 133.157 241.14 134.679 239.768L163.764 213.539C164.189 213.155 164.601 212.756 164.998 212.343C168.414 208.787 170.517 204.452 171.32 199.937Z" fill="white"/>
</mask>
<g mask="url(#mask3)">
<path fill-rule="evenodd" clip-rule="evenodd" d="M171.32 199.937C205.706 205.367 232 235.139 232 271.052V280H32V271.052C32 235.138 58.2944 205.366 92.6818 199.936C93.5836 205.005 96.1164 209.824 100.236 213.539L129.321 239.768C130.843 241.14 133.157 241.14 134.679 239.768L163.764 213.539C164.189 213.155 164.601 212.756 164.998 212.343C168.414 208.787 170.517 204.452 171.32 199.937Z" fill="#E6E6E6"/>
<path d="M264 170H0V280H264V170Z" fill="#3C4F5C"/>
</g>
<mask id="mask4" mask-type="alpha" maskUnits="userSpaceOnUse" x="113" y="147" width="38" height="19">
<path fill-rule="evenodd" clip-rule="evenodd" d="M113.118 149.128C114.175 158.62 122.226 166 132 166C141.804 166 149.874 158.574 150.892 149.04C150.973 148.273 150.117 147 149.043 147C134.149 147 122.738 147 115.087 147C114.006 147 113.012 148.178 113.118 149.128Z" fill="white"/>
</mask>
<g mask="url(#mask4)">
<path fill-rule="evenodd" clip-rule="evenodd" d="M113.118 149.128C114.175 158.62 122.226 166 132 166C141.804 166 149.874 158.574 150.892 149.04C150.973 148.273 150.117 147 149.043 147C134.149 147 122.738 147 115.087 147C114.006 147 113.012 148.178 113.118 149.128Z" fill="black" fill-opacity="0.7"/>
<path d="M143 136H122C119.239 136 117 138.239 117 141V147C117 149.761 119.239 152 122 152H143C145.761 152 148 149.761 148 147V141C148 138.239 145.761 136 143 136Z" fill="white"/>
<path d="M127 180C133.075 180 138 175.075 138 169C138 162.925 133.075 158 127 158C120.925 158 116 162.925 116 169C116 175.075 120.925 180 127 180Z" fill="#FF4F6D"/>
<path d="M137 180C143.075 180 148 175.075 148 169C148 162.925 143.075 158 137 158C130.925 158 126 162.925 126 169C126 175.075 130.925 180 137 180Z" fill="#FF4F6D"/>
</g>
<path fill-rule="evenodd" clip-rule="evenodd" d="M120 130C120 134.418 125.373 138 132 138C138.627 138 144 134.418 144 130" fill="black" fill-opacity="0.16"/>
<path fill-rule="evenodd" clip-rule="evenodd" d="M103.241 110.346C102.463 111.357 102 112.625 102 114C102 117.314 104.686 120 108 120C111.314 120 114 117.314 114 114C114 113.71 113.979 113.424 113.94 113.145C113.947 112.923 113.91 112.671 113.815 112.407C113.77 112.281 113.722 112.157 113.671 112.035C113.337 111.072 112.765 110.22 112.025 109.551C109.899 107.317 106.506 106 102.998 106C98.1644 106 94.0067 108.649 92.1602 112.447C91.6201 113.558 92.5468 114.3 93.4375 113.572C95.8738 111.579 99.2572 110.344 102.998 110.344C103.079 110.344 103.16 110.344 103.241 110.346Z" fill="black" fill-opacity="0.6"/>
<path fill-rule="evenodd" clip-rule="evenodd" d="M161.241 110.346C160.463 111.357 160 112.625 160 114C160 117.314 162.686 120 166 120C169.314 120 172 117.314 172 114C172 113.71 171.979 113.424 171.94 113.145C171.947 112.923 171.91 112.671 171.815 112.407C171.77 112.281 171.722 112.157 171.671 112.035C171.337 111.072 170.765 110.22 170.025 109.551C167.899 107.317 164.506 106 160.998 106C156.164 106 152.007 108.649 150.16 112.447C149.62 113.558 150.547 114.3 151.438 113.572C153.874 111.579 157.257 110.344 160.998 110.344C161.079 110.344 161.16 110.344 161.241 110.346Z" fill="black" fill-opacity="0.6"/>
<path fill-rule="evenodd" clip-rule="evenodd" d="M120.095 99.1246C120.099 99.1164 120.099 99.1164 120.095 99.1246V99.1246ZM95.2836 87.0051C92.9159 86.7391 90.4264 87.5024 88.8574 89.4389C88.2673 90.1669 87.3038 91.9186 87.3485 92.8556C87.3652 93.2117 87.5733 93.2313 88.4722 93.4457C90.1177 93.8379 92.9721 92.3318 94.827 92.4739C97.4089 92.6716 99.8735 93.8694 102.11 95.1527C105.948 97.3555 110.464 101.993 115.203 101.751C115.556 101.733 120.623 100.012 119.614 99.0285C119.297 98.5444 116.579 97.9004 116.112 97.667C113.94 96.583 111.745 95.2189 109.669 93.9486C105.141 91.1772 100.725 87.6107 95.2836 87.0051Z" fill="black" fill-opacity="0.6"/>
<path fill-rule="evenodd" clip-rule="evenodd" d="M144.03 99.1246C144.026 99.1164 144.026 99.1164 144.03 99.1246V99.1246ZM168.906 87.0051C171.274 86.7391 173.763 87.5024 175.332 89.4389C175.922 90.1669 176.886 91.9186 176.841 92.8556C176.824 93.2117 176.616 93.2313 175.717 93.4457C174.072 93.8379 171.217 92.3318 169.362 92.4739C166.781 92.6716 164.316 93.8694 162.08 95.1527C158.241 97.3555 153.726 101.993 148.987 101.751C148.634 101.733 143.567 100.012 144.576 99.0285C144.893 98.5444 147.61 97.9004 148.078 97.667C150.249 96.583 152.445 95.2189 154.52 93.9486C159.048 91.1772 163.465 87.6107 168.906 87.0051Z" fill="black" fill-opacity="0.6"/>
<mask id="mask5" mask-type="alpha" maskUnits="userSpaceOnUse" x="0" y="0" width="264" height="280">
<path d="M264 0H0V280H264V0Z" fill="white"/>
</mask>
<g mask="url(#mask5)">
<mask id="mask6" mask-type="alpha" maskUnits="userSpaceOnUse" x="49" y="18" width="157" height="172">
<path fill-rule="evenodd" clip-rule="evenodd" d="M58 102.34C58 118.921 58 145.474 58 182C58 186.418 61.5817 190 66 190H108V180.611C90.4692 172.283 77.9518 155.115 76.2086 134.867C70.4309 134.002 66 129.019 66 123V110C66 106.509 67.4904 103.367 69.8695 101.174C81.4088 98.5553 93.9707 93.6376 106.342 86.4953C118.473 79.4911 128.844 71.2579 136.821 62.7522C133.394 70.6604 129.245 77.588 124.372 83.535C137.047 78.0121 145.678 69.1324 150.264 56.8961C150.641 57.818 151.035 58.7389 151.444 59.6582C161.7 82.6926 179.318 99.0186 197.206 104.403C197.719 106.513 198 108.484 198 110V123C198 129.019 193.569 134.002 187.791 134.867C186.048 155.115 173.531 172.283 156 180.611V190H174C191.673 190 206 175.673 206 158C206 133.944 206 115.903 206 103.875C206 103.808 205.991 103.721 205.972 103.615C205.828 91.3537 205.624 84.2238 205.36 82.2256C200.577 45.9764 169.556 18 132 18C95.9151 18 65.8627 43.8283 59 78C53.4772 78 49 83.5964 49 90.5C49 95.0508 50.695 99.1432 53.8535 101.273C54.7582 101.883 56.3238 102.198 58 102.34Z" fill="white"/>
</mask>
<g mask="url(#mask6)">
<path fill-rule="evenodd" clip-rule="evenodd" d="M58 102.34C58 118.921 58 145.474 58 182C58 186.418 61.5817 190 66 190H108V180.611C90.4692 172.283 77.9518 155.115 76.2086 134.867C70.4309 134.002 66 129.019 66 123V110C66 106.509 67.4904 103.367 69.8695 101.174C81.4088 98.5553 93.9707 93.6376 106.342 86.4953C118.473 79.4911 128.844 71.2579 136.821 62.7522C133.394 70.6604 129.245 77.588 124.372 83.535C137.047 78.0121 145.678 69.1324 150.264 56.8961C150.641 57.818 151.035 58.7389 151.444 59.6582C161.7 82.6926 179.318 99.0186 197.206 104.403C197.719 106.513 198 108.484 198 110V123C198 129.019 193.569 134.002 187.791 134.867C186.048 155.115 173.531 172.283 156 180.611V190H174C191.673 190 206 175.673 206 158C206 133.944 206 115.903 206 103.875C206 103.808 205.991 103.721 205.972 103.615C205.828 91.3537 205.624 84.2238 205.36 82.2256C200.577 45.9764 169.556 18 132 18C95.9151 18 65.8627 43.8283 59 78C53.4772 78 49 83.5964 49 90.5C49 95.0508 50.695 99.1432 53.8535 101.273C54.7582 101.883 56.3238 102.198 58 102.34Z" fill="#9C9793"/>
<path d="M263 0H-1V280H263V0Z" fill="#2C1B18"/>
</g>
<g opacity="0.439991">
<path opacity="0.439991" fill-rule="evenodd" clip-rule="evenodd" d="M60.899 102.775C74.7109 101.015 90.6793 95.5379 106.342 86.4953C118.473 79.4911 128.844 71.2579 136.821 62.7522C133.394 70.6604 129.245 77.588 124.372 83.535C137.047 78.0121 145.678 69.1324 150.264 56.8961C150.641 57.818 151.035 58.7389 151.444 59.6582C163.382 86.4714 185.296 104.194 206 106.151V92C206 51.1309 172.869 18 132 18C95.9151 18 65.8627 43.8283 59.3213 78.0063C59.2146 78.0021 59.1075 78 59 78C53.4772 78 49 83.5964 49 90.5C49 96.9817 52.9467 102.311 58 102.938V103.093C58.3163 103.064 58.6339 103.033 58.9527 103C58.9685 103 58.9842 103 59 103C59.6493 103 60.2841 102.923 60.899 102.775Z" fill="white" fill-opacity="0.16"/>
</g>
</g>
</g>
</svg>
