<svg width="264" height="279" viewBox="0 0 264 279" fill="none" xmlns="http://www.w3.org/2000/svg">
<g clip-path="url(#clip0)">
<mask id="mask0" mask-type="alpha" maskUnits="userSpaceOnUse" x="12" y="39" width="241" height="240">
<path d="M132.001 278.27C198.275 278.27 252.001 224.876 252.001 159.012C252.001 93.1469 198.275 39.7529 132.001 39.7529C65.7268 39.7529 12.001 93.1469 12.001 159.012C12.001 224.876 65.7268 278.27 132.001 278.27Z" fill="white"/>
</mask>
<g mask="url(#mask0)">
<path d="M132.001 278.27C198.275 278.27 252.001 224.876 252.001 159.012C252.001 93.1469 198.275 39.7529 132.001 39.7529C65.7268 39.7529 12.001 93.1469 12.001 159.012C12.001 224.876 65.7268 278.27 132.001 278.27Z" fill="#E6E6E6"/>
<path d="M252.001 39.7529H12.001V278.27H252.001V39.7529Z" fill="#65C9FF"/>
</g>
<mask id="mask1" mask-type="alpha" maskUnits="userSpaceOnUse" x="0" y="0" width="264" height="279">
<path d="M12 159.012C12 224.876 65.7258 278.27 132 278.27C198.274 278.27 252 224.876 252 159.012H264V0H0V159.012H12Z" fill="white"/>
</mask>
<g mask="url(#mask1)">
<mask id="mask2" mask-type="alpha" maskUnits="userSpaceOnUse" x="31" y="35" width="201" height="244">
<path d="M155.999 179.495V197.771H159.999C199.764 197.771 231.999 229.807 231.999 269.326V278.27H31.999V269.326C31.999 229.807 64.2345 197.771 103.999 197.771H107.999V179.495C90.7617 171.357 78.3712 154.725 76.3042 135.042C70.4793 134.224 65.999 129.249 65.999 123.234V109.321C65.999 103.411 70.3236 98.506 75.999 97.5597V91.4319C75.999 60.695 101.071 35.7778 131.999 35.7778C162.927 35.7778 187.999 60.695 187.999 91.4319V97.5597C193.674 98.506 197.999 103.411 197.999 109.321V123.234C197.999 129.249 193.519 134.224 187.694 135.042C185.627 154.725 173.236 171.357 155.999 179.495Z" fill="white"/>
</mask>
<g mask="url(#mask2)">
<path d="M155.999 179.495V197.771H159.999C199.764 197.771 231.999 229.807 231.999 269.326V278.27H31.999V269.326C31.999 229.807 64.2345 197.771 103.999 197.771H107.999V179.495C90.7617 171.357 78.3712 154.725 76.3042 135.042C70.4793 134.224 65.999 129.249 65.999 123.234V109.321C65.999 103.411 70.3236 98.506 75.999 97.5597V91.4319C75.999 60.695 101.071 35.7778 131.999 35.7778C162.927 35.7778 187.999 60.695 187.999 91.4319V97.5597C193.674 98.506 197.999 103.411 197.999 109.321V123.234C197.999 129.249 193.519 134.224 187.694 135.042C185.627 154.725 173.236 171.357 155.999 179.495Z" fill="#D0C6AC"/>
<path d="M264 35.7778H0V278.27H264V35.7778Z" fill="#EDB98A"/>
<path fill-rule="evenodd" clip-rule="evenodd" d="M187.999 114.29V137.147C187.999 167.884 162.927 192.802 131.999 192.802C101.071 192.802 75.999 167.884 75.999 137.147V114.29V129.197C75.999 159.934 101.071 184.851 131.999 184.851C162.927 184.851 187.999 159.934 187.999 129.197V114.29Z" fill="black" fill-opacity="0.1"/>
</g>
<mask id="mask3" mask-type="alpha" maskUnits="userSpaceOnUse" x="31" y="181" width="201" height="98">
<path fill-rule="evenodd" clip-rule="evenodd" d="M107.999 181.939C90.0803 183.932 76.2789 189.374 76.0032 203.38C50.1455 214.235 31.999 239.674 31.999 269.324V278.269H231.999V269.324C231.999 239.674 213.853 214.235 187.995 203.38C187.719 189.374 173.918 183.932 155.999 181.939V200.751C155.999 213.924 145.254 224.603 131.999 224.603C118.744 224.603 107.999 213.924 107.999 200.751V181.939Z" fill="white"/>
</mask>
<g mask="url(#mask3)">
<path fill-rule="evenodd" clip-rule="evenodd" d="M107.999 181.939C90.0803 183.932 76.2789 189.374 76.0032 203.38C50.1455 214.235 31.999 239.674 31.999 269.324V278.269H231.999V269.324C231.999 239.674 213.853 214.235 187.995 203.38C187.719 189.374 173.918 183.932 155.999 181.939V200.751C155.999 213.924 145.254 224.603 131.999 224.603C118.744 224.603 107.999 213.924 107.999 200.751V181.939Z" fill="#B7C1DB"/>
<path d="M264 168.95H0V278.27H264V168.95Z" fill="#3C4F5C"/>
<path fill-rule="evenodd" clip-rule="evenodd" d="M102 230.306V278.269H95V226.74C97.2038 228.041 99.5468 229.235 102 230.306ZM169 226.74V266.84C169 268.761 167.433 270.319 165.5 270.319C163.567 270.319 162 268.761 162 266.84V230.306C164.453 229.235 166.796 228.041 169 226.74Z" fill="#F4F4F4"/>
<path fill-rule="evenodd" clip-rule="evenodd" d="M90.9582 181.595C75.9074 184.424 65.498 190.061 65.498 201.057C65.498 220.648 98.5357 236.529 131.998 236.529C165.46 236.529 198.498 220.648 198.498 201.057C198.498 190.061 188.089 184.424 173.038 181.595C182.123 184.924 187.998 190.521 187.998 199.834C187.998 220.1 160.177 236.529 131.998 236.529C103.819 236.529 75.998 220.1 75.998 199.834C75.998 190.521 81.8731 184.924 90.9582 181.595Z" fill="black" fill-opacity="0.16"/>
</g>
<path fill-rule="evenodd" clip-rule="evenodd" d="M118.001 148.079C118.001 155.763 124.269 161.993 132.001 161.993C139.733 161.993 146.001 155.763 146.001 148.079" fill="black" fill-opacity="0.7"/>
<path fill-rule="evenodd" clip-rule="evenodd" d="M119.999 129.197C119.999 133.588 125.372 137.147 131.999 137.147C138.626 137.147 143.999 133.588 143.999 129.197" fill="black" fill-opacity="0.16"/>
<mask id="mask4" mask-type="alpha" maskUnits="userSpaceOnUse" x="92" y="102" width="28" height="16">
<path fill-rule="evenodd" clip-rule="evenodd" d="M106 116.324C115.61 116.324 120 120.748 120 113.853C120 106.958 113.732 102.363 106 102.363C98.268 102.363 92 106.958 92 113.853C92 120.748 96.39 116.324 106 116.324Z" fill="white"/>
</mask>
<g mask="url(#mask4)">
<path fill-rule="evenodd" clip-rule="evenodd" d="M106 116.324C115.61 116.324 120 120.748 120 113.853C120 106.958 113.732 102.363 106 102.363C98.268 102.363 92 106.958 92 113.853C92 120.748 96.39 116.324 106 116.324Z" fill="white"/>
<path d="M106 118.264C109.314 118.264 112 115.594 112 112.301C112 109.008 109.314 106.338 106 106.338C102.686 106.338 100 109.008 100 112.301C100 115.594 102.686 118.264 106 118.264Z" fill="black" fill-opacity="0.7"/>
</g>
<mask id="mask5" mask-type="alpha" maskUnits="userSpaceOnUse" x="144" y="102" width="28" height="16">
<path fill-rule="evenodd" clip-rule="evenodd" d="M158 116.324C167.61 116.324 172 120.748 172 113.853C172 106.958 165.732 102.363 158 102.363C150.268 102.363 144 106.958 144 113.853C144 120.748 148.39 116.324 158 116.324Z" fill="white"/>
</mask>
<g mask="url(#mask5)">
<path fill-rule="evenodd" clip-rule="evenodd" d="M158 116.324C167.61 116.324 172 120.748 172 113.853C172 106.958 165.732 102.363 158 102.363C150.268 102.363 144 106.958 144 113.853C144 120.748 148.39 116.324 158 116.324Z" fill="white"/>
<path d="M158 118.264C161.314 118.264 164 115.594 164 112.301C164 109.008 161.314 106.338 158 106.338C154.686 106.338 152 109.008 152 112.301C152 115.594 154.686 118.264 158 118.264Z" fill="black" fill-opacity="0.7"/>
</g>
<path fill-rule="evenodd" clip-rule="evenodd" d="M120.093 98.5119C120.097 98.5037 120.097 98.5037 120.093 98.5119V98.5119ZM95.2822 86.4673C92.9144 86.2029 90.4249 86.9615 88.8559 88.8861C88.2659 89.6095 87.3024 91.3505 87.347 92.2817C87.3638 92.6356 87.5719 92.6551 88.4708 92.8681C90.1163 93.2579 92.9706 91.7611 94.8255 91.9024C97.4075 92.0988 99.8721 93.2892 102.108 94.5646C105.947 96.7537 110.462 101.363 115.201 101.122C115.554 101.104 120.621 99.3939 119.612 98.4164C119.295 97.9354 116.578 97.2954 116.11 97.0633C113.939 95.986 111.743 94.6304 109.668 93.3679C105.14 90.6137 100.723 87.0692 95.2822 86.4673Z" fill="black" fill-opacity="0.6"/>
<path fill-rule="evenodd" clip-rule="evenodd" d="M144.03 98.5119C144.026 98.5038 144.026 98.5038 144.03 98.5119V98.5119ZM168.905 86.4673C171.273 86.2029 173.763 86.9615 175.332 88.8861C175.922 89.6095 176.885 91.3505 176.841 92.2817C176.824 92.6356 176.616 92.6551 175.717 92.8681C174.071 93.2579 171.217 91.7612 169.362 91.9024C166.78 92.0988 164.315 93.2892 162.079 94.5646C158.241 96.7537 153.725 101.363 148.986 101.122C148.633 101.104 143.566 99.3939 144.575 98.4164C144.892 97.9354 147.61 97.2954 148.077 97.0633C150.249 95.986 152.444 94.6304 154.52 93.3679C159.048 90.6137 163.464 87.0692 168.905 86.4673Z" fill="black" fill-opacity="0.6"/>
<mask id="mask6" mask-type="alpha" maskUnits="userSpaceOnUse" x="0" y="0" width="264" height="279">
<path d="M264 0H0V278.27H264V0Z" fill="white"/>
</mask>
<g mask="url(#mask6)">
<mask id="mask7" mask-type="alpha" maskUnits="userSpaceOnUse" x="70" y="9" width="125" height="91">
<path fill-rule="evenodd" clip-rule="evenodd" d="M182.68 38.7085C188.086 33.7888 189.387 23.8138 186.318 17.3418C182.549 9.3957 174.901 8.40022 167.572 11.895C160.664 15.1894 154.515 16.2869 146.95 14.6907C139.692 13.1591 132.806 10.4579 125.303 10.0143C112.978 9.28546 101.003 13.8289 92.6031 22.9866C91.0004 24.7337 89.7089 26.7313 88.4883 28.7559C87.5115 30.3759 86.4105 32.114 85.995 33.9812C85.7974 34.8691 86.1653 37.0598 85.7204 37.7872C85.2391 38.5728 83.4245 39.2933 82.651 39.8762C81.0843 41.0576 79.7268 42.3907 78.4714 43.8985C75.8053 47.1001 74.3377 50.4444 73.1035 54.4049C69.0005 67.568 68.6528 83.2242 73.9569 96.1494C74.6639 97.873 76.8551 101.468 78.1432 97.7773C78.3977 97.0478 77.8087 94.603 77.81 93.8669C77.8146 91.1637 79.3161 73.2662 85.8571 63.2402C87.9862 59.9766 97.8299 47.7557 99.8405 47.6576C100.906 49.34 111.721 60.0892 139.783 58.8295C152.445 58.2611 162.183 52.6074 164.521 50.1566C165.549 55.6552 177.513 63.8871 179.336 67.2743C184.603 77.059 185.771 97.3906 187.781 97.3525C189.791 97.3143 191.234 92.1473 191.648 91.1607C194.72 83.8308 195.243 74.6312 194.915 66.7538C194.488 56.6147 190.277 45.6584 182.68 38.7085Z" fill="white"/>
</mask>
<g mask="url(#mask7)">
<path fill-rule="evenodd" clip-rule="evenodd" d="M182.68 38.7085C188.086 33.7888 189.387 23.8138 186.318 17.3418C182.549 9.3957 174.901 8.40022 167.572 11.895C160.664 15.1894 154.515 16.2869 146.95 14.6907C139.692 13.1591 132.806 10.4579 125.303 10.0143C112.978 9.28546 101.003 13.8289 92.6031 22.9866C91.0004 24.7337 89.7089 26.7313 88.4883 28.7559C87.5115 30.3759 86.4105 32.114 85.995 33.9812C85.7974 34.8691 86.1653 37.0598 85.7204 37.7872C85.2391 38.5728 83.4245 39.2933 82.651 39.8762C81.0843 41.0576 79.7268 42.3907 78.4714 43.8985C75.8053 47.1001 74.3377 50.4444 73.1035 54.4049C69.0005 67.568 68.6528 83.2242 73.9569 96.1494C74.6639 97.873 76.8551 101.468 78.1432 97.7773C78.3977 97.0478 77.8087 94.603 77.81 93.8669C77.8146 91.1637 79.3161 73.2662 85.8571 63.2402C87.9862 59.9766 97.8299 47.7557 99.8405 47.6576C100.906 49.34 111.721 60.0892 139.783 58.8295C152.445 58.2611 162.183 52.6074 164.521 50.1566C165.549 55.6552 177.513 63.8871 179.336 67.2743C184.603 77.059 185.771 97.3906 187.781 97.3525C189.791 97.3143 191.234 92.1473 191.648 91.1607C194.72 83.8308 195.243 74.6312 194.915 66.7538C194.488 56.6147 190.277 45.6584 182.68 38.7085Z" fill="#28354B"/>
<path d="M262.999 0H-1.00098V278.27H262.999V0Z" fill="#2C1B18"/>
</g>
</g>
</g>
</g>
<defs>
<clipPath id="clip0">
<rect width="264" height="278.27" fill="white"/>
</clipPath>
</defs>
</svg>
