<svg width="264" height="280" viewBox="0 0 264 280" fill="none" xmlns="http://www.w3.org/2000/svg">
<mask id="mask0" mask-type="alpha" maskUnits="userSpaceOnUse" x="12" y="40" width="240" height="240">
<path d="M132 280C198.274 280 252 226.274 252 160C252 93.7258 198.274 40 132 40C65.7258 40 12 93.7258 12 160C12 226.274 65.7258 280 132 280Z" fill="white"/>
</mask>
<g mask="url(#mask0)">
<path d="M132 280C198.274 280 252 226.274 252 160C252 93.7258 198.274 40 132 40C65.7258 40 12 93.7258 12 160C12 226.274 65.7258 280 132 280Z" fill="#E6E6E6"/>
<path d="M252 40H12V280H252V40Z" fill="#65C9FF"/>
</g>
<mask id="mask1" mask-type="alpha" maskUnits="userSpaceOnUse" x="0" y="0" width="264" height="280">
<path d="M12 160C12 226.274 65.7258 280 132 280C198.274 280 252 226.274 252 160H264V0H0V160H12Z" fill="white"/>
</mask>
<g mask="url(#mask1)">
<mask id="mask2" mask-type="alpha" maskUnits="userSpaceOnUse" x="32" y="36" width="200" height="244">
<path d="M156 180.611V199H160C199.764 199 232 231.236 232 271V280H32V271C32 231.236 64.2355 199 104 199H108V180.611C90.7626 172.422 78.3722 155.687 76.3051 135.881C70.4803 135.058 66 130.052 66 124V110C66 104.054 70.3246 99.1181 76 98.1659V92C76 61.0721 101.072 36 132 36C162.928 36 188 61.0721 188 92V98.1659C193.675 99.1181 198 104.054 198 110V124C198 130.052 193.52 135.058 187.695 135.881C185.628 155.687 173.237 172.422 156 180.611Z" fill="white"/>
</mask>
<g mask="url(#mask2)">
<path d="M156 180.611V199H160C199.764 199 232 231.236 232 271V280H32V271C32 231.236 64.2355 199 104 199H108V180.611C90.7626 172.422 78.3722 155.687 76.3051 135.881C70.4803 135.058 66 130.052 66 124V110C66 104.054 70.3246 99.1181 76 98.1659V92C76 61.0721 101.072 36 132 36C162.928 36 188 61.0721 188 92V98.1659C193.675 99.1181 198 104.054 198 110V124C198 130.052 193.52 135.058 187.695 135.881C185.628 155.687 173.237 172.422 156 180.611Z" fill="#D0C6AC"/>
<path d="M264 36H0V280H264V36Z" fill="#EDB98A"/>
<path fill-rule="evenodd" clip-rule="evenodd" d="M188 115V138C188 168.928 162.928 194 132 194C101.072 194 76 168.928 76 138V115V130C76 160.928 101.072 186 132 186C162.928 186 188 160.928 188 130V115Z" fill="black" fill-opacity="0.1"/>
</g>
<mask id="mask3" mask-type="alpha" maskUnits="userSpaceOnUse" x="32" y="199" width="200" height="81">
<path fill-rule="evenodd" clip-rule="evenodd" d="M165.96 199.295C202.936 202.325 232 233.294 232 271.052V280H32V271.052C32 232.953 61.592 201.765 99.0454 199.219C99.0153 199.593 99 199.969 99 200.348C99 212.211 113.998 221.828 132.5 221.828C151.002 221.828 166 212.211 166 200.348C166 199.995 165.987 199.644 165.96 199.295Z" fill="white"/>
</mask>
<g mask="url(#mask3)">
<path fill-rule="evenodd" clip-rule="evenodd" d="M165.96 199.295C202.936 202.325 232 233.294 232 271.052V280H32V271.052C32 232.953 61.592 201.765 99.0454 199.219C99.0153 199.593 99 199.969 99 200.348C99 212.211 113.998 221.828 132.5 221.828C151.002 221.828 166 212.211 166 200.348C166 199.995 165.987 199.644 165.96 199.295Z" fill="#E6E6E6"/>
<path d="M264 170H0V280H264V170Z" fill="#3C4F5C"/>
<g opacity="0.6">
<g opacity="0.6">
<path opacity="0.6" d="M132.5 228.761C154.39 228.761 172.135 216.712 172.135 201.848C172.135 186.984 154.39 174.934 132.5 174.934C110.61 174.934 92.8652 186.984 92.8652 201.848C92.8652 216.712 110.61 228.761 132.5 228.761Z" fill="black" fill-opacity="0.16"/>
</g>
</g>
</g>
<mask id="mask4" mask-type="alpha" maskUnits="userSpaceOnUse" x="113" y="147" width="38" height="19">
<path fill-rule="evenodd" clip-rule="evenodd" d="M113.118 149.128C114.176 158.62 122.226 166 132 166C141.804 166 149.874 158.574 150.892 149.04C150.974 148.273 150.117 147 149.043 147C134.149 147 122.738 147 115.087 147C114.007 147 113.012 148.178 113.118 149.128Z" fill="white"/>
</mask>
<g mask="url(#mask4)">
<path fill-rule="evenodd" clip-rule="evenodd" d="M113.118 149.128C114.176 158.62 122.226 166 132 166C141.804 166 149.874 158.574 150.892 149.04C150.974 148.273 150.117 147 149.043 147C134.149 147 122.738 147 115.087 147C114.007 147 113.012 148.178 113.118 149.128Z" fill="black" fill-opacity="0.7"/>
<path d="M143 136H122C119.239 136 117 138.239 117 141V147C117 149.761 119.239 152 122 152H143C145.761 152 148 149.761 148 147V141C148 138.239 145.761 136 143 136Z" fill="white"/>
<path d="M127 180C133.075 180 138 175.075 138 169C138 162.925 133.075 158 127 158C120.925 158 116 162.925 116 169C116 175.075 120.925 180 127 180Z" fill="#FF4F6D"/>
<path d="M137 180C143.075 180 148 175.075 148 169C148 162.925 143.075 158 137 158C130.925 158 126 162.925 126 169C126 175.075 130.925 180 137 180Z" fill="#FF4F6D"/>
</g>
<path fill-rule="evenodd" clip-rule="evenodd" d="M120 130C120 134.418 125.373 138 132 138C138.627 138 144 134.418 144 130" fill="black" fill-opacity="0.16"/>
<path d="M106 118C109.314 118 112 115.314 112 112C112 108.686 109.314 106 106 106C102.686 106 100 108.686 100 112C100 115.314 102.686 118 106 118Z" fill="black" fill-opacity="0.6"/>
<path d="M158 118C161.314 118 164 115.314 164 112C164 108.686 161.314 106 158 106C154.686 106 152 108.686 152 112C152 115.314 154.686 118 158 118Z" fill="black" fill-opacity="0.6"/>
<path d="M91.6304 99.1585C95.5453 93.6498 106.278 90.5607 115.523 92.8311C116.596 93.0945 117.679 92.4384 117.942 91.3658C118.206 90.2931 117.55 89.2099 116.477 88.9465C105.741 86.3099 93.3123 89.8869 88.3699 96.8413C87.73 97.7417 87.9412 98.9903 88.8416 99.6301C89.7419 100.27 90.9905 100.059 91.6304 99.1585Z" fill="black" fill-opacity="0.6"/>
<path d="M172.371 99.1585C168.456 93.6498 157.723 90.5607 148.478 92.8311C147.405 93.0945 146.322 92.4384 146.059 91.3658C145.795 90.2931 146.451 89.2099 147.524 88.9465C158.26 86.3099 170.689 89.8869 175.631 96.8413C176.271 97.7417 176.06 98.9903 175.159 99.6301C174.259 100.27 173.01 100.059 172.371 99.1585Z" fill="black" fill-opacity="0.6"/>
<mask id="mask5" mask-type="alpha" maskUnits="userSpaceOnUse" x="0" y="0" width="264" height="280">
<path d="M264 0H0V280H264V0Z" fill="white"/>
</mask>
<g mask="url(#mask5)">
<mask id="mask6" mask-type="alpha" maskUnits="userSpaceOnUse" x="39" y="15" width="201" height="252">
<path fill-rule="evenodd" clip-rule="evenodd" d="M60 172.541V84.0464C60 80.5142 60.3981 77.075 61.1519 73.7712C64.205 53.7316 75.7753 37.8111 89 28.0002C108.905 13.2406 142.442 8.98191 154.047 26.5223C162.698 22.6812 175.519 26.1823 185 35.0002C194.565 44.4152 202.2 65.1976 197.657 82.2037C197.762 83.4694 197.815 84.7492 197.815 86.0411V107.892C196.934 102.919 192.989 99.0031 188 98.1661V98.0002C181.964 76.4644 164.23 66.5802 153.43 56.7773C136.535 75.6735 83.8226 75.74 66 113V123C66 129.019 70.4309 134.003 76.2086 134.867C77.9518 155.115 90.4692 172.283 108 180.611V181C110.93 224.855 101.358 279.798 39 263C52.6057 255.038 59.8081 204.056 60 172.541ZM156 180.611C173.531 172.283 186.048 155.115 187.791 134.867C192.879 134.106 196.922 130.151 197.815 125.108V126.471C197.815 142.299 201.573 157.901 208.778 171.994L235.727 224.701C242.69 238.32 240.646 254.174 231.791 265.469C228.966 228.289 197.903 199 160 199H156V180.611Z" fill="white"/>
</mask>
<g mask="url(#mask6)">
<path fill-rule="evenodd" clip-rule="evenodd" d="M60 172.541V84.0464C60 80.5142 60.3981 77.075 61.1519 73.7712C64.205 53.7316 75.7753 37.8111 89 28.0002C108.905 13.2406 142.442 8.98191 154.047 26.5223C162.698 22.6812 175.519 26.1823 185 35.0002C194.565 44.4152 202.2 65.1976 197.657 82.2037C197.762 83.4694 197.815 84.7492 197.815 86.0411V107.892C196.934 102.919 192.989 99.0031 188 98.1661V98.0002C181.964 76.4644 164.23 66.5802 153.43 56.7773C136.535 75.6735 83.8226 75.74 66 113V123C66 129.019 70.4309 134.003 76.2086 134.867C77.9518 155.115 90.4692 172.283 108 180.611V181C110.93 224.855 101.358 279.798 39 263C52.6057 255.038 59.8081 204.056 60 172.541ZM156 180.611C173.531 172.283 186.048 155.115 187.791 134.867C192.879 134.106 196.922 130.151 197.815 125.108V126.471C197.815 142.299 201.573 157.901 208.778 171.994L235.727 224.701C242.69 238.32 240.646 254.174 231.791 265.469C228.966 228.289 197.903 199 160 199H156V180.611Z" fill="#272C2E"/>
</g>
<path fill-rule="evenodd" clip-rule="evenodd" d="M66 113C83.8226 80.6649 136.535 80.6071 153.43 64.2086C164.208 72.6985 181.892 79.2668 187.963 97.8689C181.892 76.4242 164.208 66.5603 153.43 56.7773C136.535 75.6735 83.8226 75.74 66 113Z" fill="black" fill-opacity="0.16"/>
</g>
</g>
</svg>
