<svg width="264" height="281" viewBox="0 0 264 281" fill="none" xmlns="http://www.w3.org/2000/svg">
<g clip-path="url(#clip0)">
<mask id="mask0" mask-type="alpha" maskUnits="userSpaceOnUse" x="12" y="40" width="240" height="241">
<path d="M132 280.501C198.274 280.501 252 226.679 252 160.286C252 93.8938 198.274 40.072 132 40.072C65.7258 40.072 12 93.8938 12 160.286C12 226.679 65.7258 280.501 132 280.501Z" fill="white"/>
</mask>
<g mask="url(#mask0)">
<path d="M132 280.501C198.274 280.501 252 226.679 252 160.286C252 93.8938 198.274 40.072 132 40.072C65.7258 40.072 12 93.8938 12 160.286C12 226.679 65.7258 280.501 132 280.501Z" fill="#E6E6E6"/>
<path d="M252 40.072H12V280.501H252V40.072Z" fill="#65C9FF"/>
</g>
<mask id="mask1" mask-type="alpha" maskUnits="userSpaceOnUse" x="0" y="0" width="264" height="281">
<path d="M12 160.286C12 226.678 65.7258 280.5 132 280.5C198.274 280.5 252 226.678 252 160.286H264V0H0V160.286H12Z" fill="white"/>
</mask>
<g mask="url(#mask1)">
<mask id="mask2" mask-type="alpha" maskUnits="userSpaceOnUse" x="31" y="36" width="201" height="245">
<path d="M155.999 180.933V199.355H159.999C199.764 199.355 231.999 231.648 231.999 271.484V280.5H31.999V271.484C31.999 231.648 64.2345 199.355 103.999 199.355H107.999V180.933C90.7617 172.73 78.3713 155.965 76.3042 136.124C70.4793 135.299 65.999 130.284 65.999 124.221V110.196C65.999 104.24 70.3236 99.295 75.999 98.3411V92.1642C75.999 61.181 101.071 36.0642 131.999 36.0642C162.927 36.0642 187.999 61.181 187.999 92.1642V98.3411C193.674 99.295 197.999 104.24 197.999 110.196V124.221C197.999 130.284 193.519 135.299 187.694 136.124C185.627 155.965 173.236 172.73 155.999 180.933Z" fill="white"/>
</mask>
<g mask="url(#mask2)">
<path d="M155.999 180.933V199.355H159.999C199.764 199.355 231.999 231.648 231.999 271.484V280.5H31.999V271.484C31.999 231.648 64.2345 199.355 103.999 199.355H107.999V180.933C90.7617 172.73 78.3713 155.965 76.3042 136.124C70.4793 135.299 65.999 130.284 65.999 124.221V110.196C65.999 104.24 70.3236 99.295 75.999 98.3411V92.1642C75.999 61.181 101.071 36.0642 131.999 36.0642C162.927 36.0642 187.999 61.181 187.999 92.1642V98.3411C193.674 99.295 197.999 104.24 197.999 110.196V124.221C197.999 130.284 193.519 135.299 187.694 136.124C185.627 155.965 173.236 172.73 155.999 180.933Z" fill="#D0C6AC"/>
<path d="M264 36.0642H0V280.5H264V36.0642Z" fill="#EDB98A"/>
<path fill-rule="evenodd" clip-rule="evenodd" d="M188 115.205V138.246C188 169.229 162.927 194.346 132 194.346C101.072 194.346 75.9995 169.229 75.9995 138.246V115.205V130.232C75.9995 161.215 101.072 186.332 132 186.332C162.927 186.332 188 161.215 188 130.232V115.205Z" fill="black" fill-opacity="0.1"/>
</g>
<mask id="mask3" mask-type="alpha" maskUnits="userSpaceOnUse" x="31" y="199" width="201" height="82">
<path fill-rule="evenodd" clip-rule="evenodd" d="M165.96 199.65C202.936 202.685 231.999 233.71 231.999 271.535V280.499H31.999V271.535C31.999 233.368 61.591 202.124 99.0444 199.574C99.0143 199.949 98.999 200.326 98.999 200.705C98.999 212.589 113.997 222.223 132.499 222.223C151.001 222.223 165.999 212.589 165.999 200.705C165.999 200.351 165.986 199.999 165.96 199.65Z" fill="white"/>
</mask>
<g mask="url(#mask3)">
<path fill-rule="evenodd" clip-rule="evenodd" d="M165.96 199.65C202.936 202.685 231.999 233.71 231.999 271.535V280.499H31.999V271.535C31.999 233.368 61.591 202.124 99.0444 199.574C99.0143 199.949 98.999 200.326 98.999 200.705C98.999 212.589 113.997 222.223 132.499 222.223C151.001 222.223 165.999 212.589 165.999 200.705C165.999 200.351 165.986 199.999 165.96 199.65Z" fill="#E6E6E6"/>
<path d="M264 170.303H0V280.499H264V170.303Z" fill="#262E33"/>
<g opacity="0.6">
<g opacity="0.6">
<path opacity="0.6" d="M132.499 229.17C154.389 229.17 172.134 217.099 172.134 202.208C172.134 187.318 154.389 175.246 132.499 175.246C110.609 175.246 92.8638 187.318 92.8638 202.208C92.8638 217.099 110.609 229.17 132.499 229.17Z" fill="black" fill-opacity="0.16"/>
</g>
</g>
</g>
<path fill-rule="evenodd" clip-rule="evenodd" d="M100.784 199.478C62.5113 201.163 31.999 232.78 31.999 271.536H31.999V280.5H101.361C97.9598 268.398 95.999 254.162 95.999 238.926C95.999 224.573 97.739 211.107 100.784 199.478ZM163.637 280.5H231.999V271.536C231.999 233.122 202.024 201.722 164.228 199.529C167.264 211.147 168.999 224.595 168.999 238.926C168.999 254.162 167.038 268.398 163.637 280.5Z" fill="#3A4C5A"/>
<path fill-rule="evenodd" clip-rule="evenodd" d="M180.999 256.456L190.554 249.277C191.997 248.193 193.986 248.21 195.41 249.319L201.999 254.453L180.999 256.456Z" fill="#E6E6E6"/>
<path fill-rule="evenodd" clip-rule="evenodd" d="M101 198.353C96.9995 217.721 98.6662 245.103 106 280.5H89.9995L75.9995 244.435L81.9995 235.419L75.9995 229.409L94.9995 199.355C97.0272 198.723 99.0272 198.389 101 198.353Z" fill="#2F4351"/>
<path fill-rule="evenodd" clip-rule="evenodd" d="M163.001 198.353C167 217.721 165.334 245.103 158.001 280.5H174L188 244.435L182 235.419L188 229.409L169 199.355C166.973 198.723 164.973 198.389 163.001 198.353Z" fill="#2F4351"/>
<path fill-rule="evenodd" clip-rule="evenodd" d="M118 149.266C118 157.011 124.268 163.291 132 163.291C139.732 163.291 146 157.011 146 149.266" fill="black" fill-opacity="0.7"/>
<path fill-rule="evenodd" clip-rule="evenodd" d="M119.999 130.232C119.999 134.658 125.371 138.246 131.999 138.246C138.626 138.246 143.998 134.658 143.998 130.232" fill="black" fill-opacity="0.16"/>
<path d="M106 118.211C109.313 118.211 112 115.52 112 112.2C112 108.881 109.313 106.189 106 106.189C102.686 106.189 99.9995 108.881 99.9995 112.2C99.9995 115.52 102.686 118.211 106 118.211Z" fill="black" fill-opacity="0.6"/>
<path d="M158 118.211C161.313 118.211 164 115.52 164 112.2C164 108.881 161.313 106.189 158 106.189C154.686 106.189 152 108.881 152 112.2C152 115.52 154.686 118.211 158 118.211Z" fill="black" fill-opacity="0.6"/>
<path d="M91.6299 99.336C95.5448 93.8174 106.278 90.7229 115.523 92.9973C116.595 93.2612 117.679 92.6039 117.942 91.5293C118.205 90.4547 117.549 89.3696 116.477 89.1058C105.74 86.4644 93.3118 90.0478 88.3694 97.0147C87.7296 97.9166 87.9407 99.1675 88.8411 99.8085C89.7415 100.449 90.9901 100.238 91.6299 99.336Z" fill="black" fill-opacity="0.6"/>
<path d="M172.369 99.336C168.454 93.8174 157.721 90.7229 148.476 92.9973C147.403 93.2612 146.32 92.6039 146.057 91.5293C145.793 90.4547 146.449 89.3696 147.522 89.1058C158.258 86.4644 170.687 90.0478 175.629 97.0147C176.269 97.9166 176.058 99.1675 175.157 99.8085C174.257 100.449 173.008 100.238 172.369 99.336Z" fill="black" fill-opacity="0.6"/>
<mask id="mask4" mask-type="alpha" maskUnits="userSpaceOnUse" x="0" y="0" width="264" height="281">
<path d="M264 0H0V280.5H264V0Z" fill="white"/>
</mask>
<g mask="url(#mask4)">
<path fill-rule="evenodd" clip-rule="evenodd" d="M66 109.973C75.0375 108.911 87.9218 89.4898 93.3694 69.4577C104.486 71.1981 117.905 72.2149 132.354 72.2149C146.513 72.2149 159.683 71.2384 170.668 69.5614C176.13 89.5504 188.978 108.9 198 109.972V89.1583C198 66.2334 186.353 46.0336 168.664 34.1728C168.136 36.6594 167.785 39.405 167.624 42.3722C157.285 40.9651 145.228 40.1577 132.354 40.1577C119.19 40.1577 106.882 41.0017 96.3896 42.4679C96.2316 39.4619 95.8778 36.6823 95.3432 34.1677C77.6499 46.0278 66 66.2301 66 89.1583V109.973Z" fill="black" fill-opacity="0.16"/>
<mask id="mask5" mask-type="alpha" maskUnits="userSpaceOnUse" x="16" y="0" width="233" height="194">
<path fill-rule="evenodd" clip-rule="evenodd" d="M196.666 104.682C197.519 106.334 198.001 108.209 198.001 110.196V123.22C198.001 129.249 193.57 134.242 187.792 135.108C186.049 155.392 173.531 172.591 156.001 180.933V190.394C159.833 192.292 164.059 193.345 168.501 193.345C176.122 193.345 183.111 190.246 188.56 185.088C190.021 185.248 191.502 185.33 193.001 185.33C211.391 185.33 227.26 172.992 234.622 155.16C240.901 150.081 245.001 141.707 245.001 132.236C245.001 130.448 244.854 128.698 244.575 127.003C246.786 120.554 248.001 113.534 248.001 106.189C248.001 93.3008 244.262 81.4096 237.955 71.8532C237.985 71.2816 238.001 70.7054 238.001 70.125C238.001 59.1488 232.494 49.6451 224.471 45.0374C217.161 27.418 201.741 15.0174 183.697 14.0818C179.274 9.09079 173.202 6.01071 166.501 6.01071C165.55 6.01071 164.611 6.07273 163.689 6.19343C153.91 2.20033 143.212 0 132.001 0C120.789 0 110.091 2.20033 100.312 6.19343C99.3896 6.07273 98.4514 6.01071 97.5005 6.01071C90.7995 6.01071 84.7268 9.09079 80.3035 14.0818C62.2598 15.0174 46.8403 27.418 39.5299 45.0374C31.5071 49.6451 26.0005 59.1488 26.0005 70.125C26.0005 70.7054 26.0159 71.2816 26.0462 71.8532C19.7395 81.4096 16.0005 93.3008 16.0005 106.189C16.0005 113.534 17.2146 120.554 19.426 127.003C19.1466 128.698 19.0005 130.448 19.0005 132.236C19.0005 141.707 23.1003 150.081 29.379 155.16C36.7408 172.992 52.6104 185.33 71.0005 185.33C72.4986 185.33 73.98 185.248 75.4415 185.088C80.8897 190.246 87.879 193.345 95.5005 193.345C99.9418 193.345 104.168 192.292 108 190.394V180.933C90.4697 172.591 77.9523 155.392 76.2091 135.108C70.4314 134.242 66.0005 129.249 66.0005 123.22V110.196C66.0005 108.21 66.4815 106.336 67.3331 104.685C70.035 103.881 73.0108 101.626 75.9911 98.3428C75.9942 98.3423 75.9973 98.3417 76.0005 98.3412V98.3324C82.8669 90.7632 89.7554 77.7408 93.3699 64.4494C104.487 66.1897 117.906 67.2066 132.354 67.2066C146.514 67.2066 159.684 66.2301 170.668 64.5531C174.289 77.8029 181.155 90.7719 188.001 98.3228V98.3412C188.007 98.3423 188.014 98.3434 188.02 98.3445C190.996 101.623 193.968 103.876 196.666 104.682Z" fill="white"/>
</mask>
<g mask="url(#mask5)">
<path fill-rule="evenodd" clip-rule="evenodd" d="M196.666 104.682C197.519 106.334 198.001 108.209 198.001 110.196V123.22C198.001 129.249 193.57 134.242 187.792 135.108C186.049 155.392 173.531 172.591 156.001 180.933V190.394C159.833 192.292 164.059 193.345 168.501 193.345C176.122 193.345 183.111 190.246 188.56 185.088C190.021 185.248 191.502 185.33 193.001 185.33C211.391 185.33 227.26 172.992 234.622 155.16C240.901 150.081 245.001 141.707 245.001 132.236C245.001 130.448 244.854 128.698 244.575 127.003C246.786 120.554 248.001 113.534 248.001 106.189C248.001 93.3008 244.262 81.4096 237.955 71.8532C237.985 71.2816 238.001 70.7054 238.001 70.125C238.001 59.1488 232.494 49.6451 224.471 45.0374C217.161 27.418 201.741 15.0174 183.697 14.0818C179.274 9.09079 173.202 6.01071 166.501 6.01071C165.55 6.01071 164.611 6.07273 163.689 6.19343C153.91 2.20033 143.212 0 132.001 0C120.789 0 110.091 2.20033 100.312 6.19343C99.3896 6.07273 98.4514 6.01071 97.5005 6.01071C90.7995 6.01071 84.7268 9.09079 80.3035 14.0818C62.2598 15.0174 46.8403 27.418 39.5299 45.0374C31.5071 49.6451 26.0005 59.1488 26.0005 70.125C26.0005 70.7054 26.0159 71.2816 26.0462 71.8532C19.7395 81.4096 16.0005 93.3008 16.0005 106.189C16.0005 113.534 17.2146 120.554 19.426 127.003C19.1466 128.698 19.0005 130.448 19.0005 132.236C19.0005 141.707 23.1003 150.081 29.379 155.16C36.7408 172.992 52.6104 185.33 71.0005 185.33C72.4986 185.33 73.98 185.248 75.4415 185.088C80.8897 190.246 87.879 193.345 95.5005 193.345C99.9418 193.345 104.168 192.292 108 190.394V180.933C90.4697 172.591 77.9523 155.392 76.2091 135.108C70.4314 134.242 66.0005 129.249 66.0005 123.22V110.196C66.0005 108.21 66.4815 106.336 67.3331 104.685C70.035 103.881 73.0108 101.626 75.9911 98.3428C75.9942 98.3423 75.9973 98.3417 76.0005 98.3412V98.3324C82.8669 90.7632 89.7554 77.7408 93.3699 64.4494C104.487 66.1897 117.906 67.2066 132.354 67.2066C146.514 67.2066 159.684 66.2301 170.668 64.5531C174.289 77.8029 181.155 90.7719 188.001 98.3228V98.3412C188.007 98.3423 188.014 98.3434 188.02 98.3445C190.996 101.623 193.968 103.876 196.666 104.682Z" fill="#314756"/>
<path d="M280 0H16.0005V280.5H280V0Z" fill="#4A312C"/>
</g>
<mask id="mask6" mask-type="alpha" maskUnits="userSpaceOnUse" x="72" y="98" width="122" height="121">
<path fill-rule="evenodd" clip-rule="evenodd" d="M113.181 150.005C115.364 148.37 128.407 147.743 130.759 146.351C131.493 145.916 132.062 145.476 132.501 145.039C132.94 145.476 133.51 145.916 134.243 146.351C136.594 147.743 149.638 148.37 151.821 150.005C154.031 151.662 155.645 155.462 155.468 158.434C155.256 161.999 151.362 170.507 141.673 171.487C139.559 169.13 136.238 167.61 132.501 167.61C128.764 167.61 125.443 169.13 123.329 171.487C113.64 170.507 109.746 161.999 109.534 158.434C109.358 155.462 110.971 151.662 113.181 150.005ZM151.143 167.205C151.144 167.204 151.146 167.204 151.147 167.203C151.145 167.204 151.144 167.204 151.143 167.205ZM113.846 167.2C113.85 167.202 113.858 167.204 113.863 167.206C113.858 167.204 113.852 167.202 113.846 167.2ZM192.864 128.214C192.475 122.249 191.279 116.36 190.235 110.484C189.954 108.902 188.425 98.1755 187.736 98.1755C187.503 107.301 186.703 116.288 185.671 125.363C185.362 128.076 185.039 130.79 184.826 133.513C184.655 135.712 184.961 138.369 184.429 140.497C183.75 143.208 180.349 145.739 177.704 146.673C171.104 149.003 165.599 139.357 159.962 136.535C152.644 132.872 140.065 132 132.583 136.774C124.937 132 112.358 132.872 105.04 136.535C99.4034 139.357 93.8979 149.003 87.2982 146.673C84.6531 145.739 81.2514 143.208 80.5734 140.497C80.0412 138.369 80.3473 135.712 80.1759 133.513C79.9633 130.79 79.6398 128.076 79.3312 125.363C78.2993 116.288 77.4985 107.301 77.2664 98.1755C76.5772 98.1755 75.0478 108.902 74.7669 110.484C73.7231 116.36 72.5268 122.249 72.1386 128.214C71.7395 134.345 72.2158 140.418 73.4706 146.425C74.0697 149.294 74.7695 152.147 75.5198 154.981C76.3537 158.129 75.2 164.259 75.5733 167.491C76.2797 173.606 79.1553 185.531 82.3843 190.792C83.945 193.334 85.7745 194.922 87.8175 196.971C89.7836 198.943 90.6048 202.001 92.7271 204.101C96.683 208.016 102.447 210.347 108.367 210.92C113.678 215.435 122.507 218.39 132.501 218.39C142.496 218.39 151.324 215.435 156.636 210.92C162.555 210.347 168.319 208.016 172.275 204.101C174.397 202.001 175.218 198.943 177.185 196.971C179.227 194.922 181.057 193.334 182.618 190.792C185.847 185.531 188.722 173.606 189.429 167.491C189.802 164.259 188.648 158.129 189.482 154.981C190.233 152.147 190.932 149.294 191.532 146.425C192.786 140.418 193.262 134.345 192.864 128.214Z" fill="white"/>
</mask>
<g mask="url(#mask6)">
<path fill-rule="evenodd" clip-rule="evenodd" d="M113.181 150.005C115.364 148.37 128.407 147.743 130.759 146.351C131.493 145.916 132.062 145.476 132.501 145.039C132.94 145.476 133.51 145.916 134.243 146.351C136.594 147.743 149.638 148.37 151.821 150.005C154.031 151.662 155.645 155.462 155.468 158.434C155.256 161.999 151.362 170.507 141.673 171.487C139.559 169.13 136.238 167.61 132.501 167.61C128.764 167.61 125.443 169.13 123.329 171.487C113.64 170.507 109.746 161.999 109.534 158.434C109.358 155.462 110.971 151.662 113.181 150.005ZM151.143 167.205C151.144 167.204 151.146 167.204 151.147 167.203C151.145 167.204 151.144 167.204 151.143 167.205ZM113.846 167.2C113.85 167.202 113.858 167.204 113.863 167.206C113.858 167.204 113.852 167.202 113.846 167.2ZM192.864 128.214C192.475 122.249 191.279 116.36 190.235 110.484C189.954 108.902 188.425 98.1755 187.736 98.1755C187.503 107.301 186.703 116.288 185.671 125.363C185.362 128.076 185.039 130.79 184.826 133.513C184.655 135.712 184.961 138.369 184.429 140.497C183.75 143.208 180.349 145.739 177.704 146.673C171.104 149.003 165.599 139.357 159.962 136.535C152.644 132.872 140.065 132 132.583 136.774C124.937 132 112.358 132.872 105.04 136.535C99.4034 139.357 93.8979 149.003 87.2982 146.673C84.6531 145.739 81.2514 143.208 80.5734 140.497C80.0412 138.369 80.3473 135.712 80.1759 133.513C79.9633 130.79 79.6398 128.076 79.3312 125.363C78.2993 116.288 77.4985 107.301 77.2664 98.1755C76.5772 98.1755 75.0478 108.902 74.7669 110.484C73.7231 116.36 72.5268 122.249 72.1386 128.214C71.7395 134.345 72.2158 140.418 73.4706 146.425C74.0697 149.294 74.7695 152.147 75.5198 154.981C76.3537 158.129 75.2 164.259 75.5733 167.491C76.2797 173.606 79.1553 185.531 82.3843 190.792C83.945 193.334 85.7745 194.922 87.8175 196.971C89.7836 198.943 90.6048 202.001 92.7271 204.101C96.683 208.016 102.447 210.347 108.367 210.92C113.678 215.435 122.507 218.39 132.501 218.39C142.496 218.39 151.324 215.435 156.636 210.92C162.555 210.347 168.319 208.016 172.275 204.101C174.397 202.001 175.218 198.943 177.185 196.971C179.227 194.922 181.057 193.334 182.618 190.792C185.847 185.531 188.722 173.606 189.429 167.491C189.802 164.259 188.648 158.129 189.482 154.981C190.233 152.147 190.932 149.294 191.532 146.425C192.786 140.418 193.262 134.345 192.864 128.214Z" fill="#5E7AA9"/>
<path d="M280 72.1289H16.0005V316.565H280V72.1289Z" fill="#4A312C"/>
</g>
<g filter="url(#filter0_d)">
<path d="M101 133.237H98.2417C84.3142 133.237 75.9995 125.56 75.9995 112.701C75.9995 102.309 77.8165 92.1641 99.5294 92.1641H102.47C124.182 92.1641 126 102.309 126 112.701C126 124.791 115.721 133.237 101 133.237ZM99.3849 98.1748C79.9995 98.1748 79.9995 105.028 79.9995 113.704C79.9995 120.787 83.1158 129.23 97.9704 129.23H101C113.364 129.23 122 122.846 122 113.704C122 105.028 122 98.1748 102.614 98.1748H99.3849Z" fill="#252C2F"/>
<path d="M163.001 133.237H160.243C146.316 133.237 138.001 125.56 138.001 112.701C138.001 102.309 139.818 92.1641 161.531 92.1641H164.471C186.184 92.1641 188.001 102.309 188.001 112.701C188.001 124.791 177.722 133.237 163.001 133.237ZM161.386 98.1748C142.001 98.1748 142.001 105.028 142.001 113.704C142.001 120.787 145.12 129.23 159.972 129.23H163.001C175.366 129.23 184.001 122.846 184.001 113.704C184.001 105.028 184.001 98.1748 164.616 98.1748H161.386Z" fill="#252C2F"/>
<path d="M69.9555 97.9459C70.6469 97.2694 78.2105 92.1641 99.501 92.1641C117.352 92.1641 121.131 94.02 126.851 96.8242L127.27 97.0312C127.668 97.172 129.701 97.864 132.08 97.9401C134.247 97.847 136.101 97.2585 136.643 97.07C143.171 93.8892 149.562 92.1641 164.501 92.1641C185.791 92.1641 193.355 97.2694 194.046 97.9459C195.68 97.9459 197.001 99.2382 197.001 100.837V103.728C197.001 105.326 195.68 106.619 194.046 106.619C194.046 106.619 187.145 106.619 187.145 109.51C187.145 112.401 185.183 105.326 185.183 103.728V100.912C181.58 99.5306 175.129 96.9588 164.501 96.9588C152.659 96.9588 146.762 99.0624 141.703 101.151L141.76 101.288L141.757 103.278L139.54 108.637L136.801 107.552C136.557 107.455 136.029 107.281 135.297 107.101C133.257 106.597 131.16 106.443 129.305 106.824C128.625 106.964 127.993 107.174 127.414 107.458L124.771 108.751L122.128 103.581L122.245 101.282L122.326 101.087C117.963 99.0502 113.94 96.9588 99.501 96.9588C88.8731 96.9588 82.4231 99.5296 78.8192 100.911V103.728C78.8192 105.326 75.8646 112.401 75.8646 109.51C75.8646 106.619 69.9555 106.619 69.9555 106.619C68.3246 106.619 67.001 105.326 67.001 103.728V100.837C67.001 99.2382 68.3246 97.9459 69.9555 97.9459Z" fill="#252C2F"/>
</g>
</g>
</g>
</g>
<defs>
<filter id="filter0_d" x="63.001" y="90.1641" width="138" height="49.0732" filterUnits="userSpaceOnUse" color-interpolation-filters="sRGB">
<feFlood flood-opacity="0" result="BackgroundImageFix"/>
<feColorMatrix in="SourceAlpha" type="matrix" values="0 0 0 0 0 0 0 0 0 0 0 0 0 0 0 0 0 0 127 0"/>
<feOffset dy="2"/>
<feGaussianBlur stdDeviation="2"/>
<feColorMatrix type="matrix" values="0 0 0 0 0 0 0 0 0 0 0 0 0 0 0 0 0 0 0.2 0"/>
<feBlend mode="normal" in2="BackgroundImageFix" result="effect1_dropShadow"/>
<feBlend mode="normal" in="SourceGraphic" in2="effect1_dropShadow" result="shape"/>
</filter>
<clipPath id="clip0">
<rect width="264" height="280.5" fill="white"/>
</clipPath>
</defs>
</svg>
