<svg width="264" height="280" viewBox="0 0 264 280" fill="none" xmlns="http://www.w3.org/2000/svg">
<mask id="mask0" mask-type="alpha" maskUnits="userSpaceOnUse" x="12" y="40" width="240" height="240">
<path d="M132 280C198.274 280 252 226.274 252 160C252 93.7258 198.274 40 132 40C65.7258 40 12 93.7258 12 160C12 226.274 65.7258 280 132 280Z" fill="white"/>
</mask>
<g mask="url(#mask0)">
<path d="M132 280C198.274 280 252 226.274 252 160C252 93.7258 198.274 40 132 40C65.7258 40 12 93.7258 12 160C12 226.274 65.7258 280 132 280Z" fill="#E6E6E6"/>
<path d="M252 40H12V280H252V40Z" fill="#65C9FF"/>
</g>
<mask id="mask1" mask-type="alpha" maskUnits="userSpaceOnUse" x="0" y="0" width="264" height="280">
<path d="M12 160C12 226.274 65.7258 280 132 280C198.274 280 252 226.274 252 160H264V0H0V160H12Z" fill="white"/>
</mask>
<g mask="url(#mask1)">
<mask id="mask2" mask-type="alpha" maskUnits="userSpaceOnUse" x="32" y="36" width="200" height="244">
<path d="M156 180.611V199H160C199.764 199 232 231.236 232 271V280H32V271C32 231.236 64.2355 199 104 199H108V180.611C90.7626 172.422 78.3722 155.687 76.3051 135.881C70.4803 135.058 66 130.052 66 124V110C66 104.054 70.3246 99.1181 76 98.1659V92C76 61.0721 101.072 36 132 36C162.928 36 188 61.0721 188 92V98.1659C193.675 99.1181 198 104.054 198 110V124C198 130.052 193.52 135.058 187.695 135.881C185.628 155.687 173.237 172.422 156 180.611Z" fill="white"/>
</mask>
<g mask="url(#mask2)">
<path d="M156 180.611V199H160C199.764 199 232 231.236 232 271V280H32V271C32 231.236 64.2355 199 104 199H108V180.611C90.7626 172.422 78.3722 155.687 76.3051 135.881C70.4803 135.058 66 130.052 66 124V110C66 104.054 70.3246 99.1181 76 98.1659V92C76 61.0721 101.072 36 132 36C162.928 36 188 61.0721 188 92V98.1659C193.675 99.1181 198 104.054 198 110V124C198 130.052 193.52 135.058 187.695 135.881C185.628 155.687 173.237 172.422 156 180.611Z" fill="#D0C6AC"/>
<path d="M264 36H0V280H264V36Z" fill="#EDB98A"/>
<path fill-rule="evenodd" clip-rule="evenodd" d="M188 115V138C188 168.928 162.928 194 132 194C101.072 194 76 168.928 76 138V115V130C76 160.928 101.072 186 132 186C162.928 186 188 160.928 188 130V115Z" fill="black" fill-opacity="0.1"/>
</g>
<mask id="mask3" mask-type="alpha" maskUnits="userSpaceOnUse" x="32" y="199" width="200" height="82">
<path fill-rule="evenodd" clip-rule="evenodd" d="M165.96 199.295C202.936 202.325 232 233.294 232 271.052V280H32V271.052C32 232.953 61.592 201.765 99.0454 199.22C99.0153 199.593 99 199.969 99 200.348C99 212.211 113.998 221.828 132.5 221.828C151.002 221.828 166 212.211 166 200.348C166 199.995 165.987 199.644 165.96 199.295Z" fill="white"/>
</mask>
<g mask="url(#mask3)">
<path fill-rule="evenodd" clip-rule="evenodd" d="M165.96 199.295C202.936 202.325 232 233.294 232 271.052V280H32V271.052C32 232.953 61.592 201.765 99.0454 199.22C99.0153 199.593 99 199.969 99 200.348C99 212.211 113.998 221.828 132.5 221.828C151.002 221.828 166 212.211 166 200.348C166 199.995 165.987 199.644 165.96 199.295Z" fill="#E6E6E6"/>
<path d="M264 170H0V280H264V170Z" fill="#E6E6E6"/>
<g opacity="0.6">
<g opacity="0.6">
<path opacity="0.6" d="M132.5 228.762C154.39 228.762 172.135 216.712 172.135 201.848C172.135 186.984 154.39 174.934 132.5 174.934C110.61 174.934 92.8652 186.984 92.8652 201.848C92.8652 216.712 110.61 228.762 132.5 228.762Z" fill="black" fill-opacity="0.16"/>
</g>
</g>
</g>
<mask id="mask4" mask-type="alpha" maskUnits="userSpaceOnUse" x="113" y="147" width="38" height="19">
<path fill-rule="evenodd" clip-rule="evenodd" d="M113.118 149.128C114.176 158.62 122.226 166 132 166C141.804 166 149.874 158.574 150.892 149.04C150.974 148.273 150.117 147 149.043 147C134.149 147 122.738 147 115.087 147C114.007 147 113.012 148.178 113.118 149.128Z" fill="white"/>
</mask>
<g mask="url(#mask4)">
<path fill-rule="evenodd" clip-rule="evenodd" d="M113.118 149.128C114.176 158.62 122.226 166 132 166C141.804 166 149.874 158.574 150.892 149.04C150.974 148.273 150.117 147 149.043 147C134.149 147 122.738 147 115.087 147C114.007 147 113.012 148.178 113.118 149.128Z" fill="black" fill-opacity="0.7"/>
<path d="M143 136H122C119.239 136 117 138.239 117 141V147C117 149.761 119.239 152 122 152H143C145.761 152 148 149.761 148 147V141C148 138.239 145.761 136 143 136Z" fill="white"/>
<path d="M127 180C133.075 180 138 175.075 138 169C138 162.925 133.075 158 127 158C120.925 158 116 162.925 116 169C116 175.075 120.925 180 127 180Z" fill="#FF4F6D"/>
<path d="M137 180C143.075 180 148 175.075 148 169C148 162.925 143.075 158 137 158C130.925 158 126 162.925 126 169C126 175.075 130.925 180 137 180Z" fill="#FF4F6D"/>
</g>
<path fill-rule="evenodd" clip-rule="evenodd" d="M120 130C120 134.418 125.373 138 132 138C138.627 138 144 134.418 144 130" fill="black" fill-opacity="0.16"/>
<path d="M106 118C109.314 118 112 115.314 112 112C112 108.686 109.314 106 106 106C102.686 106 100 108.686 100 112C100 115.314 102.686 118 106 118Z" fill="black" fill-opacity="0.6"/>
<path d="M158 118C161.314 118 164 115.314 164 112C164 108.686 161.314 106 158 106C154.686 106 152 108.686 152 112C152 115.314 154.686 118 158 118Z" fill="black" fill-opacity="0.6"/>
<path d="M91.6304 99.1585C95.5453 93.6498 106.278 90.5607 115.523 92.8311C116.596 93.0945 117.679 92.4384 117.942 91.3658C118.206 90.2931 117.55 89.2099 116.477 88.9465C105.741 86.3099 93.3123 89.8869 88.3699 96.8413C87.73 97.7417 87.9412 98.9903 88.8416 99.6301C89.7419 100.27 90.9905 100.059 91.6304 99.1585Z" fill="black" fill-opacity="0.6"/>
<path d="M172.371 99.1585C168.456 93.6498 157.723 90.5607 148.478 92.8311C147.405 93.0945 146.322 92.4384 146.059 91.3658C145.795 90.2931 146.451 89.2099 147.524 88.9465C158.26 86.3099 170.689 89.8869 175.631 96.8413C176.271 97.7417 176.06 98.9903 175.159 99.6301C174.259 100.27 173.01 100.059 172.371 99.1585Z" fill="black" fill-opacity="0.6"/>
<mask id="mask5" mask-type="alpha" maskUnits="userSpaceOnUse" x="0" y="0" width="264" height="280">
<path d="M264 0H0V280H264V0Z" fill="white"/>
</mask>
<g mask="url(#mask5)">
<mask id="mask6" mask-type="alpha" maskUnits="userSpaceOnUse" x="75" y="98" width="114" height="89">
<path fill-rule="evenodd" clip-rule="evenodd" d="M149.428 170.169C146.915 172.463 144.237 173.494 140.853 172.773C140.271 172.649 137.896 168.235 132 168.235C126.103 168.235 123.729 172.649 123.147 172.773C119.762 173.494 117.085 172.463 114.571 170.169C109.846 165.856 105.917 159.908 108.278 153.419C109.508 150.037 111.51 146.324 115.151 145.246C119.038 144.096 124.497 145.244 128.415 144.458C129.684 144.204 131.071 143.751 132 143C132.929 143.751 134.316 144.204 135.585 144.458C139.503 145.244 144.961 144.096 148.849 145.246C152.49 146.324 154.491 150.037 155.722 153.419C158.083 159.908 154.154 165.856 149.428 170.169ZM188.081 98C184.671 106.4 185.988 116.858 185.357 125.676C184.844 132.843 183.337 143.586 176.973 148.215C173.718 150.582 167.794 154.56 163.542 153.45C160.615 152.686 160.302 144.29 156.455 141.147C152.092 137.582 146.643 136.016 141.149 136.258C138.779 136.362 133.984 136.337 132 138.16C130.016 136.337 125.222 136.362 122.851 136.258C117.357 136.016 111.908 137.582 107.545 141.147C103.698 144.29 103.386 152.686 100.458 153.45C96.2058 154.56 90.2818 150.582 87.027 148.215C80.6624 143.586 79.1562 132.843 78.6429 125.676C78.0121 116.858 79.3292 106.4 75.9188 98C74.2598 98 75.354 114.129 75.354 114.129V134.485C75.3857 149.773 84.9351 172.655 106.108 181.393C111.286 183.53 123.015 187 132 187C140.985 187 152.714 183.86 157.892 181.723C179.065 172.986 188.614 149.773 188.646 134.485V114.129C188.646 114.129 189.74 98 188.081 98Z" fill="white"/>
</mask>
<g mask="url(#mask6)">
<path fill-rule="evenodd" clip-rule="evenodd" d="M149.428 170.169C146.915 172.463 144.237 173.494 140.853 172.773C140.271 172.649 137.896 168.235 132 168.235C126.103 168.235 123.729 172.649 123.147 172.773C119.762 173.494 117.085 172.463 114.571 170.169C109.846 165.856 105.917 159.908 108.278 153.419C109.508 150.037 111.51 146.324 115.151 145.246C119.038 144.096 124.497 145.244 128.415 144.458C129.684 144.204 131.071 143.751 132 143C132.929 143.751 134.316 144.204 135.585 144.458C139.503 145.244 144.961 144.096 148.849 145.246C152.49 146.324 154.491 150.037 155.722 153.419C158.083 159.908 154.154 165.856 149.428 170.169ZM188.081 98C184.671 106.4 185.988 116.858 185.357 125.676C184.844 132.843 183.337 143.586 176.973 148.215C173.718 150.582 167.794 154.56 163.542 153.45C160.615 152.686 160.302 144.29 156.455 141.147C152.092 137.582 146.643 136.016 141.149 136.258C138.779 136.362 133.984 136.337 132 138.16C130.016 136.337 125.222 136.362 122.851 136.258C117.357 136.016 111.908 137.582 107.545 141.147C103.698 144.29 103.386 152.686 100.458 153.45C96.2058 154.56 90.2818 150.582 87.027 148.215C80.6624 143.586 79.1562 132.843 78.6429 125.676C78.0121 116.858 79.3292 106.4 75.9188 98C74.2598 98 75.354 114.129 75.354 114.129V134.485C75.3857 149.773 84.9351 172.655 106.108 181.393C111.286 183.53 123.015 187 132 187C140.985 187 152.714 183.86 157.892 181.723C179.065 172.986 188.614 149.773 188.646 134.485V114.129C188.646 114.129 189.74 98 188.081 98Z" fill="#331B0C"/>
<path d="M280 72H16V316H280V72Z" fill="#2C1B18"/>
</g>
<mask id="mask7" mask-type="alpha" maskUnits="userSpaceOnUse" x="72" y="9" width="121" height="91">
<path fill-rule="evenodd" clip-rule="evenodd" d="M93.2519 52.0221C93.3749 51.9677 93.0697 51.9468 92.3361 51.9595C93.2277 51.9577 93.5329 51.9785 93.2519 52.0221ZM85.117 36.3016C85.1148 36.282 85.1338 36.4527 85.117 36.3016V36.3016ZM192.765 70.7657C192.501 67.4487 192.033 64.1519 191.247 60.9111C190.622 58.3354 189.769 55.8775 188.76 53.42C188.151 51.9354 186.728 49.8961 186.56 48.2945C186.395 46.7169 187.627 44.9691 187.889 43.1323C188.144 41.3448 188.101 39.4652 187.734 37.6939C186.901 33.671 184.14 29.93 179.877 28.8814C178.925 28.6472 176.913 28.9358 176.241 28.3816C175.47 27.746 174.933 25.5807 174.235 24.7122C172.244 22.2362 169.14 20.6417 165.866 21.1976C163.455 21.6068 164.839 22.1053 163.032 20.6864C162.027 19.8976 161.276 18.6932 160.3 17.8392C158.833 16.5564 157.15 15.4582 155.408 14.557C150.851 12.1989 145.654 10.4849 140.564 9.64943C131.279 8.12524 121.369 9.45409 112.369 11.8688C107.89 13.0703 103.382 14.5952 99.2221 16.6118C97.4386 17.4764 96.409 18.1936 94.5495 18.4201C91.6207 18.7767 89.1405 18.7589 86.3661 20.001C77.8298 23.8229 73.9849 32.6898 77.3067 41.175C77.9748 42.8816 78.8795 44.3802 80.1267 45.7586C81.6475 47.4393 82.1976 47.1085 80.8878 49.0412C78.929 51.9312 77.2777 55.0129 75.9333 58.2129C72.4043 66.6146 71.8138 76.0772 72.0436 85.0373C72.124 88.1741 72.2586 91.3495 72.7532 94.4562C72.9668 95.8009 73.0267 98.3293 74.0354 99.3271C74.5471 99.8331 75.2762 100.115 76.0036 99.9138C77.7131 99.4402 77.1253 98.1787 77.165 97.0076C77.3649 91.124 77.095 85.9191 78.4943 80.1065C79.5279 75.8119 81.2505 71.9115 83.4828 68.0714C86.3214 63.1872 89.3857 58.8977 93.2895 54.7155C94.2073 53.732 94.4079 53.3151 95.6386 53.2438C96.5705 53.19 97.9338 53.8282 98.8399 54.0492C100.838 54.5361 102.839 55.0174 104.873 55.3453C108.613 55.9482 112.317 55.9886 116.09 55.8704C123.516 55.6381 130.975 55.1172 138.175 53.2471C142.957 52.0054 147.197 49.7762 151.777 48.1422C151.859 48.1131 153.007 47.2951 153.208 47.3285C153.489 47.3748 155.185 49.1543 155.471 49.3784C157.697 51.1239 160.138 51.8567 162.541 53.2082C165.505 54.8746 162.635 52.49 164.269 54.5668C164.746 55.1716 164.99 56.2932 165.372 56.9783C166.588 59.1611 168.28 61.0795 170.303 62.6018C172.258 64.0725 175.196 64.7829 176.193 66.6972C176.962 68.1741 177.221 70.1813 177.841 71.7579C179.469 75.8932 181.618 79.7495 183.767 83.6443C185.499 86.7831 187.392 89.525 187.585 93.1118C187.652 94.3603 186.464 101.849 189.358 99.5717C189.786 99.2341 190.711 95.4157 190.901 94.7678C191.673 92.1351 191.947 89.3867 192.296 86.6817C192.99 81.3022 193.219 76.1837 192.765 70.7657Z" fill="white"/>
</mask>
<g mask="url(#mask7)">
<path fill-rule="evenodd" clip-rule="evenodd" d="M93.2519 52.0221C93.3749 51.9677 93.0697 51.9468 92.3361 51.9595C93.2277 51.9577 93.5329 51.9785 93.2519 52.0221ZM85.117 36.3016C85.1148 36.282 85.1338 36.4527 85.117 36.3016V36.3016ZM192.765 70.7657C192.501 67.4487 192.033 64.1519 191.247 60.9111C190.622 58.3354 189.769 55.8775 188.76 53.42C188.151 51.9354 186.728 49.8961 186.56 48.2945C186.395 46.7169 187.627 44.9691 187.889 43.1323C188.144 41.3448 188.101 39.4652 187.734 37.6939C186.901 33.671 184.14 29.93 179.877 28.8814C178.925 28.6472 176.913 28.9358 176.241 28.3816C175.47 27.746 174.933 25.5807 174.235 24.7122C172.244 22.2362 169.14 20.6417 165.866 21.1976C163.455 21.6068 164.839 22.1053 163.032 20.6864C162.027 19.8976 161.276 18.6932 160.3 17.8392C158.833 16.5564 157.15 15.4582 155.408 14.557C150.851 12.1989 145.654 10.4849 140.564 9.64943C131.279 8.12524 121.369 9.45409 112.369 11.8688C107.89 13.0703 103.382 14.5952 99.2221 16.6118C97.4386 17.4764 96.409 18.1936 94.5495 18.4201C91.6207 18.7767 89.1405 18.7589 86.3661 20.001C77.8298 23.8229 73.9849 32.6898 77.3067 41.175C77.9748 42.8816 78.8795 44.3802 80.1267 45.7586C81.6475 47.4393 82.1976 47.1085 80.8878 49.0412C78.929 51.9312 77.2777 55.0129 75.9333 58.2129C72.4043 66.6146 71.8138 76.0772 72.0436 85.0373C72.124 88.1741 72.2586 91.3495 72.7532 94.4562C72.9668 95.8009 73.0267 98.3293 74.0354 99.3271C74.5471 99.8331 75.2762 100.115 76.0036 99.9138C77.7131 99.4402 77.1253 98.1787 77.165 97.0076C77.3649 91.124 77.095 85.9191 78.4943 80.1065C79.5279 75.8119 81.2505 71.9115 83.4828 68.0714C86.3214 63.1872 89.3857 58.8977 93.2895 54.7155C94.2073 53.732 94.4079 53.3151 95.6386 53.2438C96.5705 53.19 97.9338 53.8282 98.8399 54.0492C100.838 54.5361 102.839 55.0174 104.873 55.3453C108.613 55.9482 112.317 55.9886 116.09 55.8704C123.516 55.6381 130.975 55.1172 138.175 53.2471C142.957 52.0054 147.197 49.7762 151.777 48.1422C151.859 48.1131 153.007 47.2951 153.208 47.3285C153.489 47.3748 155.185 49.1543 155.471 49.3784C157.697 51.1239 160.138 51.8567 162.541 53.2082C165.505 54.8746 162.635 52.49 164.269 54.5668C164.746 55.1716 164.99 56.2932 165.372 56.9783C166.588 59.1611 168.28 61.0795 170.303 62.6018C172.258 64.0725 175.196 64.7829 176.193 66.6972C176.962 68.1741 177.221 70.1813 177.841 71.7579C179.469 75.8932 181.618 79.7495 183.767 83.6443C185.499 86.7831 187.392 89.525 187.585 93.1118C187.652 94.3603 186.464 101.849 189.358 99.5717C189.786 99.2341 190.711 95.4157 190.901 94.7678C191.673 92.1351 191.947 89.3867 192.296 86.6817C192.99 81.3022 193.219 76.1837 192.765 70.7657Z" fill="#28354B"/>
<path d="M263 0H-1V280H263V0Z" fill="#2C1B18"/>
</g>
</g>
</g>
</svg>
