<svg width="264" height="282" viewBox="0 0 264 282" fill="none" xmlns="http://www.w3.org/2000/svg">
<g clip-path="url(#clip0)">
<mask id="mask0" mask-type="alpha" maskUnits="userSpaceOnUse" x="11" y="40" width="241" height="242">
<path d="M132 281.184C198.274 281.184 252 227.231 252 160.676C252 94.1221 198.274 40.1692 132 40.1692C65.7253 40.1692 11.9995 94.1221 11.9995 160.676C11.9995 227.231 65.7253 281.184 132 281.184Z" fill="white"/>
</mask>
<g mask="url(#mask0)">
<path d="M132 281.184C198.274 281.184 252 227.231 252 160.676C252 94.1221 198.274 40.1692 132 40.1692C65.7253 40.1692 11.9995 94.1221 11.9995 160.676C11.9995 227.231 65.7253 281.184 132 281.184Z" fill="#E6E6E6"/>
<path d="M252 40.1692H11.9995V281.184H252V40.1692Z" fill="#65C9FF"/>
</g>
<mask id="mask1" mask-type="alpha" maskUnits="userSpaceOnUse" x="0" y="0" width="264" height="282">
<path d="M12 160.676C12 227.231 65.7258 281.183 132 281.183C198.274 281.183 252 227.231 252 160.676H264V0H0V160.676H12Z" fill="white"/>
</mask>
<g mask="url(#mask1)">
<mask id="mask2" mask-type="alpha" maskUnits="userSpaceOnUse" x="32" y="36" width="200" height="246">
<path d="M156 181.374V199.841H160C199.764 199.841 232 232.213 232 272.145V281.183H32V272.145C32 232.213 64.2355 199.841 104 199.841H108V181.374C90.7626 173.151 78.3722 156.345 76.3051 136.455C70.4803 135.629 66 130.602 66 124.524V110.465C66 104.494 70.3246 99.5369 76 98.5808V92.3888C76 61.3301 101.072 36.1521 132 36.1521C162.928 36.1521 188 61.3301 188 92.3888V98.5808C193.675 99.5369 198 104.494 198 110.465V124.524C198 130.602 193.52 135.629 187.695 136.455C185.628 156.345 173.237 173.151 156 181.374Z" fill="white"/>
</mask>
<g mask="url(#mask2)">
<path d="M156 181.374V199.841H160C199.764 199.841 232 232.213 232 272.145V281.183H32V272.145C32 232.213 64.2355 199.841 104 199.841H108V181.374C90.7626 173.151 78.3722 156.345 76.3051 136.455C70.4803 135.629 66 130.602 66 124.524V110.465C66 104.494 70.3246 99.5369 76 98.5808V92.3888C76 61.3301 101.072 36.1521 132 36.1521C162.928 36.1521 188 61.3301 188 92.3888V98.5808C193.675 99.5369 198 104.494 198 110.465V124.524C198 130.602 193.52 135.629 187.695 136.455C185.628 156.345 173.237 173.151 156 181.374Z" fill="#D0C6AC"/>
<path d="M264 36.1521H0V281.183H264V36.1521Z" fill="#EDB98A"/>
<path fill-rule="evenodd" clip-rule="evenodd" d="M188 115.486V138.583C188 169.642 162.927 194.82 132 194.82C101.072 194.82 75.9995 169.642 75.9995 138.583V115.486V130.549C75.9995 161.608 101.072 186.786 132 186.786C162.927 186.786 188 161.608 188 130.549V115.486Z" fill="black" fill-opacity="0.1"/>
</g>
<mask id="mask3" mask-type="alpha" maskUnits="userSpaceOnUse" x="32" y="200" width="200" height="82">
<path fill-rule="evenodd" clip-rule="evenodd" d="M165.96 200.137C202.936 203.18 232 234.28 232 272.197V281.183H32V272.197C32 233.937 61.592 202.617 99.0454 200.061C99.0152 200.436 99 200.814 99 201.194C99 213.107 113.998 222.765 132.5 222.765C151.002 222.765 166 213.107 166 201.194C166 200.84 165.987 200.487 165.96 200.137Z" fill="white"/>
</mask>
<g mask="url(#mask3)">
<path fill-rule="evenodd" clip-rule="evenodd" d="M165.96 200.137C202.936 203.18 232 234.28 232 272.197V281.183H32V272.197C32 233.937 61.592 202.617 99.0454 200.061C99.0152 200.436 99 200.814 99 201.194C99 213.107 113.998 222.765 132.5 222.765C151.002 222.765 166 213.107 166 201.194C166 200.84 165.987 200.487 165.96 200.137Z" fill="#E6E6E6"/>
<path d="M264 170.719H0V281.183H264V170.719Z" fill="#262E33"/>
<g opacity="0.6">
<g opacity="0.6">
<path opacity="0.6" d="M132.5 229.729C154.39 229.729 172.135 217.628 172.135 202.701C172.135 187.774 154.39 175.674 132.5 175.674C110.61 175.674 92.8647 187.774 92.8647 202.701C92.8647 217.628 110.61 229.729 132.5 229.729Z" fill="black" fill-opacity="0.16"/>
</g>
</g>
</g>
<path fill-rule="evenodd" clip-rule="evenodd" d="M100.785 199.964C62.5123 201.653 32 233.347 32 272.198H32V281.184H101.362C97.9607 269.053 96 254.781 96 239.508C96 225.121 97.74 211.622 100.785 199.964ZM163.638 281.184H232V272.198C232 233.691 202.025 202.214 164.229 200.016C167.265 211.662 169 225.142 169 239.508C169 254.781 167.039 269.053 163.638 281.184Z" fill="#3A4C5A"/>
<path fill-rule="evenodd" clip-rule="evenodd" d="M181 257.082L190.556 249.885C191.999 248.798 193.988 248.815 195.412 249.927L202 255.073L181 257.082Z" fill="#E6E6E6"/>
<path fill-rule="evenodd" clip-rule="evenodd" d="M101 198.837C96.9995 218.252 98.6662 245.701 106 281.184H89.9995L75.9995 245.031L81.9995 235.993L75.9995 229.968L94.9995 199.841C97.0272 199.208 99.0272 198.873 101 198.837Z" fill="#2F4351"/>
<path fill-rule="evenodd" clip-rule="evenodd" d="M163.001 198.837C167.001 218.252 165.334 245.701 158.001 281.184H174.001L188 245.031L182 235.993L188 229.968L169.001 199.841C166.973 199.208 164.973 198.873 163.001 198.837Z" fill="#2F4351"/>
<path fill-rule="evenodd" clip-rule="evenodd" d="M118.001 149.63C118.001 157.395 124.269 163.689 132.001 163.689C139.733 163.689 146.001 157.395 146.001 149.63" fill="black" fill-opacity="0.7"/>
<path fill-rule="evenodd" clip-rule="evenodd" d="M120 130.55C120 134.987 125.373 138.583 132 138.583C138.628 138.583 144 134.987 144 130.55" fill="black" fill-opacity="0.16"/>
<path d="M106.001 118.499C109.315 118.499 112.001 115.801 112.001 112.473C112.001 109.146 109.315 106.448 106.001 106.448C102.688 106.448 100.001 109.146 100.001 112.473C100.001 115.801 102.688 118.499 106.001 118.499Z" fill="black" fill-opacity="0.6"/>
<path d="M158.001 118.499C161.315 118.499 164.001 115.801 164.001 112.473C164.001 109.146 161.315 106.448 158.001 106.448C154.688 106.448 152.001 109.146 152.001 112.473C152.001 115.801 154.688 118.499 158.001 118.499Z" fill="black" fill-opacity="0.6"/>
<path d="M91.6309 99.5778C95.5458 94.0459 106.279 90.9438 115.524 93.2237C116.596 93.4882 117.68 92.8294 117.943 91.7522C118.206 90.675 117.55 89.5873 116.478 89.3227C105.741 86.675 93.3127 90.2671 88.3704 97.2509C87.7305 98.1551 87.9417 99.4089 88.8421 100.051C89.7424 100.694 90.991 100.482 91.6309 99.5778Z" fill="black" fill-opacity="0.6"/>
<path d="M172.371 99.5778C168.456 94.0459 157.723 90.9438 148.478 93.2237C147.405 93.4882 146.322 92.8294 146.058 91.7522C145.795 90.675 146.451 89.5873 147.524 89.3227C158.26 86.675 170.689 90.2671 175.631 97.2509C176.271 98.1551 176.06 99.4089 175.159 100.051C174.259 100.694 173.01 100.482 172.371 99.5778Z" fill="black" fill-opacity="0.6"/>
<mask id="mask4" mask-type="alpha" maskUnits="userSpaceOnUse" x="0" y="0" width="264" height="282">
<path d="M264 0H0V281.183H264V0Z" fill="white"/>
</mask>
<g mask="url(#mask4)">
<path fill-rule="evenodd" clip-rule="evenodd" d="M66 110.242C75.0375 109.177 87.9218 89.7086 93.3694 69.6277C104.486 71.3723 117.905 72.3916 132.354 72.3916C146.513 72.3916 159.683 71.4127 170.668 69.7316C176.13 89.7693 188.978 109.166 198 110.241V89.3763C198 66.3955 186.353 46.1465 168.664 34.2568C168.136 36.7494 167.785 39.5017 167.624 42.4762C157.285 41.0656 145.228 40.2563 132.354 40.2563C119.19 40.2563 106.882 41.1024 96.3896 42.5721C96.2316 39.5588 95.8778 36.7725 95.3432 34.2517C77.6499 46.1407 66 66.3922 66 89.3763V110.242Z" fill="black" fill-opacity="0.16"/>
<mask id="mask5" mask-type="alpha" maskUnits="userSpaceOnUse" x="16" y="0" width="232" height="194">
<path fill-rule="evenodd" clip-rule="evenodd" d="M196.666 104.937C197.518 106.593 198 108.472 198 110.465V123.52C198 129.564 193.569 134.569 187.791 135.437C186.048 155.77 173.531 173.011 156 181.374V190.857C159.832 192.761 164.059 193.816 168.5 193.816C176.122 193.816 183.111 190.709 188.559 185.539C190.021 185.7 191.502 185.782 193 185.782C211.39 185.782 227.26 173.413 234.622 155.538C240.9 150.447 245 142.052 245 132.558C245 130.765 244.854 129.012 244.575 127.313C246.786 120.848 248 113.81 248 106.448C248 93.5281 244.261 81.6079 237.954 72.0283C237.985 71.4553 238 70.8776 238 70.2959C238 59.2929 232.493 49.766 224.471 45.1471C217.16 27.4848 201.741 15.054 183.697 14.1161C179.274 9.11294 173.201 6.02536 166.5 6.02536C165.549 6.02536 164.611 6.08753 163.688 6.20852C153.91 2.20569 143.211 0 132 0C120.789 0 110.09 2.20569 100.312 6.20852C99.3891 6.08753 98.4509 6.02536 97.5 6.02536C90.799 6.02536 84.7263 9.11294 80.3031 14.1161C62.2593 15.054 46.8398 27.4848 39.5294 45.1471C31.5066 49.766 26 59.2929 26 70.2959C26 70.8776 26.0154 71.4553 26.0457 72.0283C19.739 81.6079 16 93.5281 16 106.448C16 113.81 17.2141 120.848 19.4255 127.313C19.1462 129.012 19 130.765 19 132.558C19 142.052 23.0999 150.447 29.3785 155.538C36.7403 173.413 52.6099 185.782 71 185.782C72.4981 185.782 73.9795 185.7 75.441 185.539C80.8893 190.709 87.8785 193.816 95.5 193.816C99.9413 193.816 104.168 192.761 108 190.857V181.374C90.4692 173.011 77.9518 155.77 76.2086 135.437C70.4309 134.569 66 129.564 66 123.52V110.465C66 108.474 66.481 106.595 67.3326 104.94C70.0345 104.134 73.0103 101.873 75.9906 98.5824C75.9937 98.5819 75.9969 98.5814 76 98.5808V98.572C82.8665 90.9843 89.7549 77.9303 93.3694 64.6065C104.486 66.351 117.905 67.3703 132.354 67.3703C146.513 67.3703 159.683 66.3914 170.668 64.7104C174.288 77.9925 181.154 90.9931 188 98.5624V98.5808C188.007 98.5819 188.013 98.583 188.02 98.5842C190.996 101.87 193.967 104.129 196.666 104.937Z" fill="white"/>
</mask>
<g mask="url(#mask5)">
<path fill-rule="evenodd" clip-rule="evenodd" d="M196.666 104.937C197.518 106.593 198 108.472 198 110.465V123.52C198 129.564 193.569 134.569 187.791 135.437C186.048 155.77 173.531 173.011 156 181.374V190.857C159.832 192.761 164.059 193.816 168.5 193.816C176.122 193.816 183.111 190.709 188.559 185.539C190.021 185.7 191.502 185.782 193 185.782C211.39 185.782 227.26 173.413 234.622 155.538C240.9 150.447 245 142.052 245 132.558C245 130.765 244.854 129.012 244.575 127.313C246.786 120.848 248 113.81 248 106.448C248 93.5281 244.261 81.6079 237.954 72.0283C237.985 71.4553 238 70.8776 238 70.2959C238 59.2929 232.493 49.766 224.471 45.1471C217.16 27.4848 201.741 15.054 183.697 14.1161C179.274 9.11294 173.201 6.02536 166.5 6.02536C165.549 6.02536 164.611 6.08753 163.688 6.20852C153.91 2.20569 143.211 0 132 0C120.789 0 110.09 2.20569 100.312 6.20852C99.3891 6.08753 98.4509 6.02536 97.5 6.02536C90.799 6.02536 84.7263 9.11294 80.3031 14.1161C62.2593 15.054 46.8398 27.4848 39.5294 45.1471C31.5066 49.766 26 59.2929 26 70.2959C26 70.8776 26.0154 71.4553 26.0457 72.0283C19.739 81.6079 16 93.5281 16 106.448C16 113.81 17.2141 120.848 19.4255 127.313C19.1462 129.012 19 130.765 19 132.558C19 142.052 23.0999 150.447 29.3785 155.538C36.7403 173.413 52.6099 185.782 71 185.782C72.4981 185.782 73.9795 185.7 75.441 185.539C80.8893 190.709 87.8785 193.816 95.5 193.816C99.9413 193.816 104.168 192.761 108 190.857V181.374C90.4692 173.011 77.9518 155.77 76.2086 135.437C70.4309 134.569 66 129.564 66 123.52V110.465C66 108.474 66.481 106.595 67.3326 104.94C70.0345 104.134 73.0103 101.873 75.9906 98.5824C75.9937 98.5819 75.9969 98.5814 76 98.5808V98.572C82.8665 90.9843 89.7549 77.9303 93.3694 64.6065C104.486 66.351 117.905 67.3703 132.354 67.3703C146.513 67.3703 159.683 66.3914 170.668 64.7104C174.288 77.9925 181.154 90.9931 188 98.5624V98.5808C188.007 98.5819 188.013 98.583 188.02 98.5842C190.996 101.87 193.967 104.129 196.666 104.937Z" fill="#314756"/>
<path d="M280 0H16V281.183H280V0Z" fill="#868686"/>
</g>
</g>
</g>
</g>
<defs>
<clipPath id="clip0">
<rect width="264" height="281.183" fill="white"/>
</clipPath>
</defs>
</svg>
