<svg width="264" height="280" viewBox="0 0 264 280" fill="none" xmlns="http://www.w3.org/2000/svg">
<mask id="mask0" mask-type="alpha" maskUnits="userSpaceOnUse" x="12" y="40" width="240" height="240">
<path d="M132 280C198.274 280 252 226.274 252 160C252 93.7258 198.274 40 132 40C65.7258 40 12 93.7258 12 160C12 226.274 65.7258 280 132 280Z" fill="white"/>
</mask>
<g mask="url(#mask0)">
<path d="M132 280C198.274 280 252 226.274 252 160C252 93.7258 198.274 40 132 40C65.7258 40 12 93.7258 12 160C12 226.274 65.7258 280 132 280Z" fill="#E6E6E6"/>
<path d="M252 40H12V280H252V40Z" fill="#65C9FF"/>
</g>
<mask id="mask1" mask-type="alpha" maskUnits="userSpaceOnUse" x="0" y="0" width="264" height="280">
<path d="M12 160C12 226.274 65.7258 280 132 280C198.274 280 252 226.274 252 160H264V0H0V160H12Z" fill="white"/>
</mask>
<g mask="url(#mask1)">
<mask id="mask2" mask-type="alpha" maskUnits="userSpaceOnUse" x="32" y="36" width="200" height="244">
<path d="M156 180.611V199H160C199.764 199 232 231.236 232 271V280H32V271C32 231.236 64.2355 199 104 199H108V180.611C90.7626 172.422 78.3722 155.687 76.3051 135.881C70.4803 135.058 66 130.052 66 124V110C66 104.054 70.3246 99.1181 76 98.1659V92C76 61.0721 101.072 36 132 36C162.928 36 188 61.0721 188 92V98.1659C193.675 99.1181 198 104.054 198 110V124C198 130.052 193.52 135.058 187.695 135.881C185.628 155.687 173.237 172.422 156 180.611Z" fill="white"/>
</mask>
<g mask="url(#mask2)">
<path d="M156 180.611V199H160C199.764 199 232 231.236 232 271V280H32V271C32 231.236 64.2355 199 104 199H108V180.611C90.7626 172.422 78.3722 155.687 76.3051 135.881C70.4803 135.058 66 130.052 66 124V110C66 104.054 70.3246 99.1181 76 98.1659V92C76 61.0721 101.072 36 132 36C162.928 36 188 61.0721 188 92V98.1659C193.675 99.1181 198 104.054 198 110V124C198 130.052 193.52 135.058 187.695 135.881C185.628 155.687 173.237 172.422 156 180.611Z" fill="#D0C6AC"/>
<path d="M264 36H0V280H264V36Z" fill="#FFDBB4"/>
<path fill-rule="evenodd" clip-rule="evenodd" d="M188 115V138C188 168.928 162.928 194 132 194C101.072 194 76 168.928 76 138V115V130C76 160.928 101.072 186 132 186C162.928 186 188 160.928 188 130V115Z" fill="black" fill-opacity="0.1"/>
</g>
<mask id="mask3" mask-type="alpha" maskUnits="userSpaceOnUse" x="32" y="199" width="200" height="81">
<path fill-rule="evenodd" clip-rule="evenodd" d="M165.96 199.295C202.936 202.325 232 233.294 232 271.052V280H32V271.052C32 232.953 61.592 201.765 99.0454 199.219C99.0153 199.593 99 199.969 99 200.348C99 212.211 113.998 221.828 132.5 221.828C151.002 221.828 166 212.211 166 200.348C166 199.995 165.987 199.644 165.96 199.295Z" fill="white"/>
</mask>
<g mask="url(#mask3)">
<path fill-rule="evenodd" clip-rule="evenodd" d="M165.96 199.295C202.936 202.325 232 233.294 232 271.052V280H32V271.052C32 232.953 61.592 201.765 99.0454 199.219C99.0153 199.593 99 199.969 99 200.348C99 212.211 113.998 221.828 132.5 221.828C151.002 221.828 166 212.211 166 200.348C166 199.995 165.987 199.644 165.96 199.295Z" fill="#E6E6E6"/>
<path d="M264 170H0V280H264V170Z" fill="#3C4F5C"/>
<g opacity="0.6">
<g opacity="0.6">
<path opacity="0.6" d="M132.5 228.761C154.39 228.761 172.135 216.712 172.135 201.848C172.135 186.984 154.39 174.934 132.5 174.934C110.61 174.934 92.8647 186.984 92.8647 201.848C92.8647 216.712 110.61 228.761 132.5 228.761Z" fill="black" fill-opacity="0.16"/>
</g>
</g>
</g>
<path fill-rule="evenodd" clip-rule="evenodd" d="M118 149C118 156.732 124.268 163 132 163C139.732 163 146 156.732 146 149" fill="black" fill-opacity="0.7"/>
<path fill-rule="evenodd" clip-rule="evenodd" d="M120 130C120 134.418 125.373 138 132 138C138.627 138 144 134.418 144 130" fill="black" fill-opacity="0.16"/>
<path d="M106 118C109.314 118 112 115.314 112 112C112 108.686 109.314 106 106 106C102.686 106 100 108.686 100 112C100 115.314 102.686 118 106 118Z" fill="black" fill-opacity="0.6"/>
<path d="M158 118C161.314 118 164 115.314 164 112C164 108.686 161.314 106 158 106C154.686 106 152 108.686 152 112C152 115.314 154.686 118 158 118Z" fill="black" fill-opacity="0.6"/>
<path d="M91.6304 99.1585C95.5453 93.6498 106.278 90.5607 115.523 92.8311C116.596 93.0945 117.679 92.4384 117.942 91.3658C118.206 90.2931 117.55 89.2099 116.477 88.9465C105.741 86.3099 93.3123 89.8869 88.3699 96.8413C87.73 97.7417 87.9412 98.9903 88.8416 99.6301C89.7419 100.27 90.9905 100.059 91.6304 99.1585Z" fill="black" fill-opacity="0.6"/>
<path d="M172.37 99.1585C168.455 93.6498 157.722 90.5607 148.477 92.8311C147.405 93.0945 146.321 92.4384 146.058 91.3658C145.795 90.2931 146.451 89.2099 147.523 88.9465C158.26 86.3099 170.688 89.8869 175.631 96.8413C176.27 97.7417 176.059 98.9903 175.159 99.6301C174.259 100.27 173.01 100.059 172.37 99.1585Z" fill="black" fill-opacity="0.6"/>
<mask id="mask4" mask-type="alpha" maskUnits="userSpaceOnUse" x="0" y="0" width="264" height="280">
<path d="M264 0H0V280H264V0Z" fill="white"/>
</mask>
<g mask="url(#mask4)">
<mask id="mask5" mask-type="alpha" maskUnits="userSpaceOnUse" x="72" y="19" width="118" height="82">
<path fill-rule="evenodd" clip-rule="evenodd" d="M185.832 73.9287C187.589 74.9174 188.98 84.8279 189.048 88.6177C189.09 90.9562 189.127 99.874 186.654 99.1031C185.901 98.8684 184.752 94.1472 184.588 91.3841C184.425 88.6209 182.855 79.22 180.447 74.8947C179.896 73.9063 178.321 72.1709 179.002 71.3348C179.846 70.2981 180.666 70.8996 181.697 71.3147C182.812 71.7641 185.634 73.818 185.832 73.9287ZM186.637 70.9566C185.891 71.9188 180.796 69.2177 178.671 68.044C160.826 58.1841 157.362 55.0487 129.246 55.4578C101.13 55.867 81.8675 69.04 80.784 70.3874C80.0302 71.3249 79.0678 73.8279 78.2764 80.8005C77.485 87.7732 78.4952 100.278 75.6305 100.263C73.1915 100.25 72.6609 76.477 73.7137 67.0464C73.8754 65.5985 74.4984 63.0084 74.0474 61.7059C73.6533 60.5682 71.7254 60.5706 72.0331 58.6751C72.3829 56.5173 74.5585 57.5891 75.506 56.5574C77.3006 54.603 74.5322 54.1404 74.073 52.4307C73.3906 49.8892 75.3628 49.2337 77.1397 48.4311C79.106 47.5438 78.8505 48.3231 80.4464 46.5849C78.3148 45.0225 77.5436 42.8939 80.4624 41.752C81.702 41.2669 84.9269 41.9089 85.8981 41.1802C86.1513 40.9901 86.2515 39.9008 86.4075 39.678C87.9584 37.4594 87.5757 35.8532 87.4184 33.3624C87.289 31.3242 87.3064 29.4532 89.7467 29.2496C91.3751 29.1139 92.6993 30.4442 94.1582 30.8359C95.7768 31.2706 95.1688 31.5878 96.4369 30.715C98.6631 29.1817 97.148 26.1943 98.9133 24.412C101.336 21.9662 102.924 25.5513 104.869 25.8218C109.091 26.4102 107.736 22.1219 110.236 20.5505C113.224 18.6739 113.513 22.8013 115.379 22.9483C116.996 23.0751 119.908 19.9545 121.317 19.3731C125.5 17.6472 127.572 22.5039 131.554 21.8845C134.443 21.4348 135.223 21.0677 137.831 22.7115C140.362 24.3071 140.963 23.1665 143.829 23.1436C145.854 23.1284 147.094 24.8203 148.788 24.9967C149.632 25.0851 150.441 24.2051 151.348 24.2604C154.585 24.4567 154.79 28.643 157.362 29.7956C159.712 30.8488 162.474 29.3691 164.807 29.0953C170.497 28.4275 166.6 33.7425 166.761 36.9147C168.994 37.4359 171.262 35.351 173.485 35.7347C176.987 36.3393 175.665 39.968 174.853 42.4145C177.28 42.3708 183.613 39.6777 185.185 43.122C185.995 44.898 184.107 47.2689 184.138 49.0744C184.181 51.6159 186.049 53.7186 186.709 56.124C187.601 59.371 188.872 68.074 186.637 70.9566Z" fill="white"/>
</mask>
<g mask="url(#mask5)">
<path fill-rule="evenodd" clip-rule="evenodd" d="M185.832 73.9287C187.589 74.9174 188.98 84.8279 189.048 88.6177C189.09 90.9562 189.127 99.874 186.654 99.1031C185.901 98.8684 184.752 94.1472 184.588 91.3841C184.425 88.6209 182.855 79.22 180.447 74.8947C179.896 73.9063 178.321 72.1709 179.002 71.3348C179.846 70.2981 180.666 70.8996 181.697 71.3147C182.812 71.7641 185.634 73.818 185.832 73.9287ZM186.637 70.9566C185.891 71.9188 180.796 69.2177 178.671 68.044C160.826 58.1841 157.362 55.0487 129.246 55.4578C101.13 55.867 81.8675 69.04 80.784 70.3874C80.0302 71.3249 79.0678 73.8279 78.2764 80.8005C77.485 87.7732 78.4952 100.278 75.6305 100.263C73.1915 100.25 72.6609 76.477 73.7137 67.0464C73.8754 65.5985 74.4984 63.0084 74.0474 61.7059C73.6533 60.5682 71.7254 60.5706 72.0331 58.6751C72.3829 56.5173 74.5585 57.5891 75.506 56.5574C77.3006 54.603 74.5322 54.1404 74.073 52.4307C73.3906 49.8892 75.3628 49.2337 77.1397 48.4311C79.106 47.5438 78.8505 48.3231 80.4464 46.5849C78.3148 45.0225 77.5436 42.8939 80.4624 41.752C81.702 41.2669 84.9269 41.9089 85.8981 41.1802C86.1513 40.9901 86.2515 39.9008 86.4075 39.678C87.9584 37.4594 87.5757 35.8532 87.4184 33.3624C87.289 31.3242 87.3064 29.4532 89.7467 29.2496C91.3751 29.1139 92.6993 30.4442 94.1582 30.8359C95.7768 31.2706 95.1688 31.5878 96.4369 30.715C98.6631 29.1817 97.148 26.1943 98.9133 24.412C101.336 21.9662 102.924 25.5513 104.869 25.8218C109.091 26.4102 107.736 22.1219 110.236 20.5505C113.224 18.6739 113.513 22.8013 115.379 22.9483C116.996 23.0751 119.908 19.9545 121.317 19.3731C125.5 17.6472 127.572 22.5039 131.554 21.8845C134.443 21.4348 135.223 21.0677 137.831 22.7115C140.362 24.3071 140.963 23.1665 143.829 23.1436C145.854 23.1284 147.094 24.8203 148.788 24.9967C149.632 25.0851 150.441 24.2051 151.348 24.2604C154.585 24.4567 154.79 28.643 157.362 29.7956C159.712 30.8488 162.474 29.3691 164.807 29.0953C170.497 28.4275 166.6 33.7425 166.761 36.9147C168.994 37.4359 171.262 35.351 173.485 35.7347C176.987 36.3393 175.665 39.968 174.853 42.4145C177.28 42.3708 183.613 39.6777 185.185 43.122C185.995 44.898 184.107 47.2689 184.138 49.0744C184.181 51.6159 186.049 53.7186 186.709 56.124C187.601 59.371 188.872 68.074 186.637 70.9566Z" fill="#2E3257"/>
<path d="M264 0H0V280H264V0Z" fill="#4A312C"/>
</g>
</g>
</g>
</svg>
