<svg width="10" height="14" viewBox="0 0 10 14" fill="none" xmlns="http://www.w3.org/2000/svg">
<path d="M9.27676 0.346462L0.732031 6.54451C0.422656 6.76951 0.422656 7.23006 0.732031 7.4533L9.27676 13.6531C9.29777 13.6684 9.3226 13.6775 9.34849 13.6795C9.37439 13.6815 9.40033 13.6763 9.42345 13.6645C9.44656 13.6527 9.46595 13.6347 9.47947 13.6125C9.49298 13.5903 9.50008 13.5648 9.5 13.5388L9.5 12.2205C9.5 12.1308 9.45605 12.0465 9.38398 11.9937L2.50039 6.99978L9.38398 2.00584C9.45605 1.9531 9.5 1.86873 9.5 1.77908L9.5 0.46072C9.5 0.346462 9.36992 0.279666 9.27676 0.346462Z" fill="#5B97FC"/>
</svg>
