<svg width="31" height="27" viewBox="0 0 31 27" fill="none" xmlns="http://www.w3.org/2000/svg">
  <path d="M29.5 9.44687L25.5 11.75V7C25.5 5.89688 24.6031 5 23.5 5H5C3.89688 5 3 5.89688 3 7V25C3 26.1031 3.89688 27 5 27H23.5C24.6031 27 25.5 26.1031 25.5 25V20.25L29.5 22.5531C30.1656 22.9375 31 22.4562 31 21.6906V10.3125C31 9.54375 30.1656 9.0625 29.5 9.44687ZM23.25 24.75H5.25V7.25H23.25V24.75ZM28.75 19.5312L25.5 17.6625V14.3406L28.75 12.4688V19.5312ZM7.5 11.25H11C11.1375 11.25 11.25 11.1375 11.25 11V9.5C11.25 9.3625 11.1375 9.25 11 9.25H7.5C7.3625 9.25 7.25 9.3625 7.25 9.5V11C7.25 11.1375 7.3625 11.25 7.5 11.25Z" fill="black"/>
  <circle cx="7" cy="7" r="6" fill="#F5222D" stroke="white"/>
</svg>
