<svg width="30" height="30" viewBox="0 0 30 30" fill="none" xmlns="http://www.w3.org/2000/svg">
<rect width="30" height="30" rx="15" fill="#FBA536"/>
<path d="M20.3531 11.5094L16.9906 8.14688C16.8969 8.05313 16.7703 8 16.6375 8H10C9.72344 8 9.5 8.22344 9.5 8.5V21.5C9.5 21.7766 9.72344 22 10 22H20C20.2766 22 20.5 21.7766 20.5 21.5V11.8641C20.5 11.7312 20.4469 11.6031 20.3531 11.5094ZM19.3469 12.0938H16.4062V9.15313L19.3469 12.0938ZM19.375 20.875H10.625V9.125H15.3438V12.5C15.3438 12.674 15.4129 12.841 15.536 12.964C15.659 13.0871 15.826 13.1562 16 13.1562H19.375V20.875ZM14.875 16.6562H12C11.9313 16.6562 11.875 16.7125 11.875 16.7812V17.5312C11.875 17.6 11.9313 17.6562 12 17.6562H14.875C14.9437 17.6562 15 17.6 15 17.5312V16.7812C15 16.7125 14.9437 16.6562 14.875 16.6562ZM11.875 14.6562V15.4062C11.875 15.475 11.9313 15.5312 12 15.5312H18C18.0688 15.5312 18.125 15.475 18.125 15.4062V14.6562C18.125 14.5875 18.0688 14.5312 18 14.5312H12C11.9313 14.5312 11.875 14.5875 11.875 14.6562Z" fill="black"/>
</svg>
