<svg width="100" height="100" viewBox="0 0 100 100" fill="none" xmlns="http://www.w3.org/2000/svg">
<path d="M0 50C0 22.3858 22.3858 0 50 0C77.6142 0 100 22.3858 100 50C100 77.6142 77.6142 100 50 100C22.3858 100 0 77.6142 0 50Z" fill="#7DB7FC"/>
<path d="M71.7486 65.7873C70.5644 62.9822 68.8458 60.4342 66.6886 58.2853C64.538 56.1301 61.9904 54.4118 59.1865 53.2253C59.1614 53.2127 59.1363 53.2064 59.1112 53.1939C63.0223 50.3688 65.5649 45.7671 65.5649 40.5753C65.5649 31.9746 58.5964 25.0061 49.9957 25.0061C41.395 25.0061 34.4265 31.9746 34.4265 40.5753C34.4265 45.7671 36.969 50.3688 40.8802 53.2002C40.8551 53.2127 40.83 53.219 40.8048 53.2315C37.9923 54.4181 35.4686 56.1194 33.3028 58.2915C31.1476 60.4421 29.4293 62.9897 28.2428 65.7936C27.0771 68.5387 26.4484 71.4817 26.3908 74.4634C26.3891 74.5304 26.4009 74.5971 26.4253 74.6595C26.4498 74.7219 26.4866 74.7787 26.5334 74.8267C26.5802 74.8747 26.6361 74.9128 26.6979 74.9388C26.7596 74.9648 26.826 74.9782 26.893 74.9782H30.6598C30.936 74.9782 31.1557 74.7585 31.162 74.4885C31.2875 69.642 33.2337 65.1031 36.674 61.6628C40.2336 58.1032 44.9608 56.1445 49.9957 56.1445C55.0306 56.1445 59.7578 58.1032 63.3174 61.6628C66.7577 65.1031 68.7038 69.642 68.8294 74.4885C68.8357 74.7648 69.0554 74.9782 69.3316 74.9782H73.0984C73.1654 74.9782 73.2317 74.9648 73.2935 74.9388C73.3553 74.9128 73.4112 74.8747 73.458 74.8267C73.5048 74.7787 73.5415 74.7219 73.566 74.6595C73.5905 74.5971 73.6023 74.5304 73.6006 74.4634C73.5378 71.4626 72.9163 68.5434 71.7486 65.7873ZM49.9957 51.3733C47.1141 51.3733 44.4021 50.2495 42.3618 48.2092C40.3214 46.1689 39.1977 43.4569 39.1977 40.5753C39.1977 37.6937 40.3214 34.9817 42.3618 32.9414C44.4021 30.9011 47.1141 29.7773 49.9957 29.7773C52.8772 29.7773 55.5893 30.9011 57.6296 32.9414C59.6699 34.9817 60.7937 37.6937 60.7937 40.5753C60.7937 43.4569 59.6699 46.1689 57.6296 48.2092C55.5893 50.2495 52.8772 51.3733 49.9957 51.3733Z" fill="white"/>
</svg>
