<svg xmlns="http://www.w3.org/2000/svg" xmlns:xlink="http://www.w3.org/1999/xlink" viewBox="0 0 1022.84 813.16"><defs><style>.cls-1,.cls-2{fill:#6c63ff;}.cls-1,.cls-18,.cls-19,.cls-7{opacity:0.1;}.cls-1,.cls-10,.cls-15,.cls-19,.cls-7,.cls-8{isolation:isolate;}.cls-3{fill:#5b97fc;}.cls-4{fill:#444053;}.cls-5{fill:#d5d6db;}.cls-6{fill:#2d8af9;}.cls-10,.cls-8{fill:#fff;}.cls-8{opacity:0.3;}.cls-9{fill:#3a3768;}.cls-10{opacity:0.45;}.cls-11{fill:url(#linear-gradient);}.cls-12{fill:#be6f72;}.cls-13{fill:#3e373a;}.cls-14{fill:#4b4b5b;}.cls-15{opacity:0.02;}.cls-16{fill:#e7c7ca;}.cls-17{fill:#c3c7d9;}.cls-19{fill:none;stroke:#000;stroke-miterlimit:10;}.cls-20{fill:#fba536;}.cls-21{fill:#f49227;}.cls-22{fill:#ffd037;}.cls-23{fill:#65617d;}.cls-24{fill:#9d9cb5;}</style><linearGradient id="linear-gradient" x1="635.23" y1="268.68" x2="635.23" y2="770.56" gradientTransform="matrix(1, 0, 0, -1, -88.58, 770.56)" gradientUnits="userSpaceOnUse"><stop offset="0" stop-color="gray" stop-opacity="0.25"/><stop offset="0.54" stop-color="gray" stop-opacity="0.12"/><stop offset="1" stop-color="gray" stop-opacity="0.1"/></linearGradient></defs><g id="Layer_2" data-name="Layer 2"><g id="_2cf41747-0c0c-4d70-aad4-093c093adad4" data-name="2cf41747-0c0c-4d70-aad4-093c093adad4"><path class="cls-1" d="M599.86,137.41c-64.72-2.25-126.37-23.14-185.23-46S297.47,43.22,234.3,31.11C193.67,23.32,147.2,22.22,114.47,44,83,65,72.78,101.15,67.31,134.73c-4.12,25.26-6.54,51.84,4.75,75.49,7.83,16.42,21.74,30.22,31.35,46,33.47,54.72,9.82,122.2-26.45,175.63-17,25.07-36.75,49-49.87,75.66S7.89,564.76,19.37,592c11.39,27,38.52,47.24,67.9,61.49,59.69,28.95,130,37.23,198.61,41.92,151.83,10.39,304.46,5.89,456.69,1.39,56.34-1.67,112.92-3.36,168.34-12.07,30.78-4.84,62.55-12.51,84.9-31.05,28.36-23.53,35.39-63.38,16.39-92.88-31.89-49.49-120-61.78-142.32-114.9-12.26-29.23.34-61.79,18.16-88.91,38.24-58.16,102.33-109.19,105.71-175.67,2.32-45.67-28.5-91.39-76.14-113-49.93-22.73-119.19-19.85-156,17.64C723.66,124.57,657,139.39,599.86,137.41Z"/><polygon class="cls-2" points="435.45 690.49 93.17 688.82 59.16 609.05 179.42 600.32 158.46 512.86 396.32 482.03 168.55 402.85 188.67 398.07 554.92 457.82 534.75 594.31 505.92 669.32 435.45 690.49"/><path class="cls-2" d="M98.42,655.41s21-3.36,33.6,11.48c0,0-9.24,7.28-29.12-2.8Z"/><path class="cls-2" d="M96.22,655.08s-13.4,16.49-6.8,34.85c0,0,10.92-4.37,12.11-26.63Z"/><path class="cls-2" d="M84.18,628s8.4-15.41,42,6.16c0,0-4.48,10.36-19.32,9.52S88.1,636.09,84.18,628Z"/><path class="cls-2" d="M82,626.86s-17.43-2-19.12,37.9c0,0,11,2.29,18.9-10.33S86.42,634.73,82,626.86Z"/><path class="cls-3" d="M71.86,595s9.8-27.16,45.36-7.84c0,0-8.12,24.92-41.72,17.08Z"/><path class="cls-3" d="M60.94,554.43s18.48-27.44,51.24-2c0,0-11.48,25.76-48.44,11.76Z"/><path class="cls-3" d="M57,515.79s21.56-25.21,54,0c0,0-20.44,22.12-54,6.44Z"/><path class="cls-3" d="M53.66,478.26s21.84-26.32,52.92-1.4c0,0-24.64,23.24-52.92,7.56Z"/><path class="cls-3" d="M55.62,444.94s23-33.88,52.08-10.92c0,0-24.64,29.12-52.08,17.36Z"/><path class="cls-3" d="M60.94,406s24.36-33.6,52.64-7.84c0,0-28.84,29.12-52.64,14Z"/><path class="cls-3" d="M69.06,371.23s28.84-31.58,54-19c0,0-30,33.54-55.26,27.38Z"/><path class="cls-3" d="M79.14,338.25s33.28-38.68,52.64-25.76c0,0-24.52,30-55,33Z"/><path class="cls-3" d="M93.69,300s29.13-31.58,50.41-23.74c0,0-24.92,32.76-54.32,33.6Z"/><path class="cls-3" d="M106.86,264.22s32.2-30.24,46.2-24.92c0,0-23.24,33.6-47.6,31.64Z"/><path class="cls-3" d="M119.74,231.18s27.72-36.13,42.85-33.33c0,0-16.81,32.21-42.85,37Z"/><path class="cls-3" d="M133.72,186.63s24.5-27.69,37.74-27.63c0,0-19.34,37-38.75,36.66Z"/><path class="cls-3" d="M142,157l23.67-57.68s1.18,52.14-26.68,68.38Z"/><path class="cls-3" d="M151.61,93.36s3.92-48.17,1.4-52.09c0,0,16.92,40-1.56,73.37Z"/><path class="cls-3" d="M70.94,594.39s-24.54-15.21-40.43,22c0,0,21.84,14.5,43.32-12.51Z"/><path class="cls-3" d="M60.15,552.88S30.05,539.15,15.45,578c0,0,23.25,16,47.44-15.3Z"/><path class="cls-3" d="M55.62,518.1s-21.56-25.21-54,0c0,0,20.44,22.12,54,6.44Z"/><path class="cls-3" d="M52.92,478.26S31.08,451.94,0,476.86c0,0,24.64,23.24,52.92,7.56Z"/><path class="cls-3" d="M55.62,445.9S40.3,408,7,424.27c0,0,18,33.65,47.26,27.93Z"/><path class="cls-3" d="M62.87,405.83s-15.23-38.61-49-20.71c0,0,20.68,35.39,47.5,26.67Z"/><path class="cls-3" d="M72.31,371.42s-6-42.33-34-46.12c0,0,5.94,44.64,30.23,53.75Z"/><path class="cls-3" d="M79.85,338.33s-2.34-51-25.49-52.78c0,0,.78,38.71,22.88,60Z"/><path class="cls-3" d="M96.09,298.57s-6.9-42.41-29-47.59c0,0,2.74,41.07,26.81,58Z"/><path class="cls-3" d="M109.48,264.57s-.23-44.18-13.73-50.67c0,0-8.37,40,9.82,56.31Z"/><path class="cls-3" d="M120.77,230.68s-1.89-45.49-15.87-51.9c0,0-4.78,36,13.78,54.88Z"/><path class="cls-3" d="M135.67,190.26s-.08-37-10.06-45.68c0,0-9.92,40.53,4.85,53.12Z"/><path class="cls-3" d="M140.83,155.15l-9.71-61.58s-13.19,50.46,10.17,72.7Z"/><path class="cls-3" d="M142.72,93.94s-24.92-41.4-24.41-46c0,0,2.65,43.39,34,65Z"/><path class="cls-3" d="M145.64,81.71s-23.52-58.8-34.16-63.56c0,0,33.6,17.08,36.12,61.88Z"/><path class="cls-4" d="M132.59,196l-1.61-.49c19.85-64.73,24.8-106,14-116.35L146.08,78C157.59,88.87,152.92,129.69,132.59,196Z"/><path class="cls-4" d="M77.93,347.57l-2.38-.85c2.11-5.93,4.38-12,6.76-17.88C103,277.2,120.67,229.16,132,192.28l2.07-1c-11.33,36.95-28.66,86.83-49.4,138.54C82.28,335.64,80,341.63,77.93,347.57Z"/><path class="cls-4" d="M128,703.85c-.32-.35-32.49-36.58-54.92-98.43A364.12,364.12,0,0,1,51.42,492.64C49.88,444.51,60,390.77,77.28,342l1.88,2.2c-38.84,109.57-23.41,203.46-2.94,260,22.19,61.29,54,97.12,54.31,97.48Z"/><path class="cls-5" d="M630.73,626.93s-22.67,27.67-4.67,69.5l-181,78.5-17.37,3.64-8-35L425,699.4V675.26Z"/><polygon class="cls-2" points="59.16 609.05 309.68 563.38 641.63 616.26 435.45 690.49 59.16 609.05"/><polygon class="cls-3" points="59.16 609.05 309.68 563.38 641.63 616.26 435.45 690.49 59.16 609.05"/><path class="cls-2" d="M59.16,609s-23.43,44.39,3.57,85.39l371.5,80.5s-23.06-35.36,1.19-84.44Z"/><path class="cls-6" d="M59.16,609s-23.43,44.39,3.57,85.39l371.5,80.5s-23.06-35.36,1.19-84.44Z"/><path class="cls-7" d="M70.23,624.43s-13.39,32.48,0,53.5"/><path class="cls-2" d="M434.23,774.93l207.4-88.5s11.6,2.5,4.1,11-207.5,86-207.5,86l-375.5-89Z"/><path class="cls-3" d="M434.23,774.93l207.4-88.5s11.6,2.5,4.1,11-207.5,86-207.5,86l-375.5-89Z"/><path class="cls-7" d="M417.23,699.43s-20,24,0,60"/><rect class="cls-7" x="422.08" y="713.97" width="94.57" height="1" transform="translate(-201.99 185.27) rotate(-18.45)"/><rect class="cls-7" x="420.74" y="716.49" width="115.23" height="1" transform="translate(-223.61 216.84) rotate(-20.82)"/><rect class="cls-7" x="420.13" y="721.16" width="133.56" height="1" transform="translate(-237.09 238.23) rotate(-22.26)"/><rect class="cls-7" x="419.75" y="723.17" width="153.74" height="1" transform="translate(-253.88 268.61) rotate(-24.31)"/><rect class="cls-7" x="420.64" y="725.22" width="168.15" height="1" transform="translate(-248.41 262.89) rotate(-23.61)"/><rect class="cls-7" x="421.75" y="725.84" width="201.22" height="1" transform="translate(-245.18 266.66) rotate(-23.36)"/><polygon class="cls-8" points="152.23 613.93 328.23 576.93 435.45 597.43 291.23 643.93 152.23 613.93"/><path class="cls-2" d="M641.63,616.26s9.1,3.67,3.76,9.34-210,64.89-210,64.89Z"/><path class="cls-5" d="M730,530.75s-22.66,27.66-4.66,69.5l-181,78.5L527,682.41l-8-35,5.43-44.16V579.08Z"/><polygon class="cls-9" points="158.46 512.86 408.97 467.2 740.93 520.08 534.75 594.31 158.46 512.86"/><path class="cls-9" d="M158.42,512.86S135,557.25,162,598.25l371.5,80.5s-23.05-35.39,1.23-84.45Z"/><path class="cls-7" d="M158.42,512.86S135,557.25,162,598.25l371.5,80.5s-23.05-35.39,1.23-84.45L417.23,568.87Z"/><path class="cls-7" d="M169.52,528.25s-13.38,32.47,0,53.5"/><path class="cls-9" d="M533.52,678.75l207.41-88.5s11.59,2.5,4.09,11-207.5,86-207.5,86l-375.5-89Z"/><path class="cls-7" d="M533.52,678.75l207.41-88.5s11.59,2.5,4.09,11-207.5,86-207.5,86l-375.5-89Z"/><path class="cls-7" d="M516.52,603.25s-20,24,0,60"/><rect class="cls-7" x="521.37" y="617.8" width="94.57" height="1" transform="translate(-166.45 211.75) rotate(-18.45)"/><rect class="cls-7" x="520.05" y="620.32" width="115.23" height="1" transform="translate(-182.94 245.86) rotate(-20.82)"/><rect class="cls-7" x="519.43" y="624.98" width="133.56" height="1" transform="translate(-193.25 268.68) rotate(-22.26)"/><rect class="cls-7" x="519.06" y="626.99" width="153.74" height="1" transform="translate(-205.48 300.97) rotate(-24.31)"/><rect class="cls-7" x="519.93" y="629.03" width="168.15" height="1" transform="translate(-201.57 294.6) rotate(-23.61)"/><rect class="cls-7" x="521.05" y="629.65" width="201.22" height="1" transform="translate(-198.9 298.14) rotate(-23.36)"/><polygon class="cls-10" points="251.53 517.75 427.53 480.75 534.75 501.25 390.53 547.75 251.53 517.75"/><path class="cls-9" d="M740.93,520.08s9.09,3.67,3.76,9.33S534.75,594.3,534.75,594.3Z"/><path class="cls-5" d="M739.42,420.72s-22.67,49.67-4.67,91.5l-181,56.5-17.33,3.67-8-35,5.35-44.17V469.05Z"/><polygon class="cls-3" points="167.89 402.84 418.41 357.17 750.37 410.05 544.18 484.28 167.89 402.84"/><path class="cls-2" d="M167.89,402.83s-23.47,44.39,3.53,85.39l371.5,80.5s-23.06-35.39,1.22-84.44Z"/><path class="cls-6" d="M167.89,402.83s-23.47,44.39,3.53,85.39l371.5,80.5s-23.06-35.39,1.22-84.44Z"/><path class="cls-7" d="M179,418.22s-13.39,32.48,0,53.5"/><path class="cls-2" d="M543,568.72l207.4-66.5s11.6,2.5,4.1,11-207.5,64-207.5,64l-375.5-89Z"/><path class="cls-3" d="M543,568.72l207.4-66.5s11.6,2.5,4.1,11-207.5,64-207.5,64l-375.5-89Z"/><path class="cls-7" d="M526,493.22s-20,24,0,60"/><rect class="cls-7" x="530.82" y="507.76" width="94.57" height="1" transform="translate(-131.14 209.08) rotate(-18.45)"/><rect class="cls-7" x="529.48" y="510.29" width="115.23" height="1" transform="translate(-143.22 242.03) rotate(-20.82)"/><rect class="cls-7" x="528.86" y="514.95" width="133.56" height="1" transform="translate(-150.87 264.05) rotate(-22.26)"/><rect class="cls-7" x="528.5" y="516.96" width="153.74" height="1" transform="translate(-159.35 295.1) rotate(-24.31)"/><rect class="cls-7" x="529.37" y="519" width="168.15" height="1" transform="translate(-156.72 289.18) rotate(-23.61)"/><rect class="cls-7" x="530.49" y="519.63" width="201.22" height="1" transform="translate(-154.51 292.87) rotate(-23.36)"/><polygon class="cls-8" points="260.96 407.72 436.96 370.72 544.18 391.22 399.96 437.72 260.96 407.72"/><path class="cls-2" d="M750.36,410.05s9.1,3.67,3.76,9.34-209.94,64.89-209.94,64.89Z"/><path class="cls-3" d="M310.42,106.49s-38-2.29-33.56,24.37c0,0-.89,4.71,3.38,6.85,0,0,.07-2,3.9-1.31a16.9,16.9,0,0,0,4.14.2,8.65,8.65,0,0,0,5.05-2.08h0s10.69-4.42,14.85-21.9c0,0,3.08-3.81,3-4.79l-6.44,2.74s2.19,4.63.47,8.48c0,0-.21-8.31-1.45-8.12-.25,0-3.33,1.61-3.33,1.61s3.77,8.07.92,13.93c0,0,1.08-9.94-2.1-13.35l-4.52,2.64s4.41,8.33,1.42,15.13c0,0,.77-10.43-2.37-14.49l-4.1,3.2s4.15,8.21,1.62,13.85c0,0-.33-12.14-2.5-13.06,0,0-3.59,3.16-4.13,4.46,0,0,2.84,6,1.07,9.11,0,0-1.07-8.09-2-8.13,0,0-3.57,5.36-3.94,9a19.44,19.44,0,0,1,3.07-9.54,10.74,10.74,0,0,0-5.46,2.83s.55-3.79,6.35-4.12c0,0,2.95-4.07,3.74-4.31,0,0-5.77-.49-9.26,1.06,0,0,3.08-3.57,10.31-2l4-3.3s-7.58-1-10.8.11c0,0,3.71-3.16,11.89-.86l4.41-2.63s-6.47-1.39-10.32-.89c0,0,4.06-2.19,11.61.18l3.14-1.41s-4.73-.93-6.12-1.08-1.46-.53-1.46-.53a16.61,16.61,0,0,1,8.9,1S310.55,106.91,310.42,106.49Z"/><path class="cls-1" d="M845,216.07s-38-2.29-33.56,24.37c0,0-.89,4.71,3.38,6.85,0,0,.07-2,3.9-1.31a17.41,17.41,0,0,0,4.14.2,8.51,8.51,0,0,0,5-2.08h0s10.7-4.42,14.85-21.9c0,0,3.08-3.81,3-4.79l-6.42,2.74s2.19,4.63.47,8.48c0,0-.21-8.31-1.44-8.12-.25,0-3.34,1.61-3.34,1.61s3.77,8.07.93,13.93c0,0,1.08-9.94-2.11-13.35l-4.52,2.64s4.41,8.33,1.42,15.13c0,0,.77-10.43-2.37-14.49l-4.09,3.2s4.14,8.21,1.61,13.85c0,0-.33-12.14-2.5-13.06,0,0-3.58,3.16-4.13,4.46,0,0,2.84,6,1.08,9.11,0,0-1.08-8.09-2-8.13,0,0-3.57,5.36-3.94,9a19.45,19.45,0,0,1,3.08-9.54A10.81,10.81,0,0,0,812,237.7s.56-3.79,6.35-4.12c0,0,2.95-4.07,3.74-4.32,0,0-5.76-.48-9.26,1.07,0,0,3.08-3.57,10.31-2l4-3.3s-7.59-1-10.8.11c0,0,3.7-3.16,11.89-.86l4.4-2.63s-6.47-1.39-10.32-.89c0,0,4.06-2.19,11.61.18l3.15-1.41s-4.74-.93-6.13-1.08-1.46-.53-1.46-.53a16.42,16.42,0,0,1,8.9,1S845.14,216.49,845,216.07Z"/><path class="cls-1" d="M374.42,271.19s-16.56-34.33-37.64-17.41c0,0-4.55,1.52-4.33,6.29,0,0,1.75-.91,3,2.77a17.5,17.5,0,0,0,1.84,3.7,8.63,8.63,0,0,0,4.29,3.4h0s9.07,7.18,26.36,2.28c0,0,4.83.83,5.62.25L368,268.2s-3,4.17-7.18,4.54c0,0,7.16-4.23,6.39-5.21-.16-.2-3-2.13-3-2.13s-5.21,7.23-11.71,7.6c0,0,9.2-3.9,10.62-8.35l-4.5-2.66s-5.13,7.92-12.52,8.62c0,0,9.48-4.41,11.49-9.13l-4.78-2s-5.15,7.62-11.31,8.17c0,0,10.44-6.21,10.18-8.56,0,0-4.51-1.58-5.91-1.43,0,0-3.82,5.39-7.42,5.39,0,0,6.53-4.89,6.13-5.68,0,0-6.42-.5-9.8,1a19.54,19.54,0,0,1,9.83-2,10.84,10.84,0,0,0-5.14-3.39s3.58-1.36,6.69,3.53c0,0,5,.59,5.59,1.16,0,0-2.39-5.26-5.44-7.55,0,0,4.62.93,6.73,8l4.85,1.92s-2.79-7.12-5.36-9.37c0,0,4.56,1.69,6.55,10l4.44,2.56s-1.93-6.33-4.25-9.44c0,0,3.89,2.48,5.5,10.22l2.77,2.06s-1.5-4.59-2-5.87-.25-1.54-.25-1.54a16.42,16.42,0,0,1,3.48,8.25S374.06,271.49,374.42,271.19Z"/><path class="cls-1" d="M758.2,167.57s-16.55-34.33-37.64-17.41c0,0-4.54,1.52-4.33,6.29,0,0,1.76-.9,3,2.77a17.61,17.61,0,0,0,1.85,3.71,8.53,8.53,0,0,0,4.28,3.39h0s9.08,7.18,26.36,2.29c0,0,4.83.82,5.63.24l-5.49-4.28s-3,4.18-7.17,4.55c0,0,7.15-4.24,6.38-5.22-.16-.2-3-2.13-3-2.13s-5.2,7.23-11.71,7.6c0,0,9.21-3.9,10.63-8.34l-4.57-2.64S737.3,166.3,729.9,167c0,0,9.48-4.42,11.5-9.14l-4.79-2s-5.15,7.63-11.3,8.17c0,0,10.43-6.21,10.17-8.55,0,0-4.5-1.59-5.9-1.43,0,0-3.82,5.38-7.43,5.38,0,0,6.54-4.89,6.14-5.68,0,0-6.42-.5-9.81,1a19.54,19.54,0,0,1,9.83-2,10.82,10.82,0,0,0-5.13-3.39s3.58-1.36,6.69,3.53c0,0,5,.6,5.59,1.17,0,0-2.39-5.27-5.45-7.56,0,0,4.62.94,6.73,8.05l4.86,1.92s-2.79-7.13-5.36-9.38c0,0,4.56,1.69,6.54,10l4.45,2.56s-1.94-6.32-4.26-9.44c0,0,3.9,2.48,5.5,10.22l2.77,2.06s-1.49-4.59-2-5.87-.25-1.53-.25-1.53a16.41,16.41,0,0,1,3.47,8.25S757.89,167.89,758.2,167.57Z"/><path class="cls-1" d="M811.09,337.38S794.54,303,773.42,320c0,0-4.54,1.52-4.33,6.29,0,0,1.76-.9,3,2.77a17.11,17.11,0,0,0,1.84,3.71,8.53,8.53,0,0,0,4.28,3.39h0s9.08,7.19,26.37,2.29c0,0,4.82.83,5.62.24l-5.52-4.27s-3,4.18-7.18,4.55c0,0,7.15-4.24,6.38-5.22-.16-.2-3-2.13-3-2.13s-5.2,7.23-11.71,7.61c0,0,9.21-3.91,10.63-8.35l-4.51-2.66s-5.12,7.92-12.52,8.62c0,0,9.48-4.42,11.5-9.14l-4.79-2s-5.15,7.62-11.3,8.17c0,0,10.44-6.21,10.18-8.56,0,0-4.51-1.59-5.91-1.43,0,0-3.82,5.38-7.43,5.38,0,0,6.54-4.89,6.14-5.68,0,0-6.42-.5-9.81,1a19.58,19.58,0,0,1,9.84-2,10.65,10.65,0,0,0-5.14-3.39s3.58-1.37,6.69,3.53c0,0,5,.59,5.59,1.16,0,0-2.39-5.26-5.44-7.56,0,0,4.62.94,6.73,8.05l4.85,1.92s-2.79-7.13-5.36-9.37c0,0,4.56,1.68,6.54,10l4.45,2.55s-1.94-6.32-4.26-9.44c0,0,3.9,2.48,5.51,10.23l2.77,2s-1.5-4.59-2-5.87-.25-1.53-.25-1.53a16.41,16.41,0,0,1,3.47,8.25S810.78,337.68,811.09,337.38Z"/><ellipse class="cls-1" cx="201.95" cy="781.58" rx="22.99" ry="2.57"/><ellipse class="cls-1" cx="51.24" cy="737.9" rx="22.99" ry="2.57"/><ellipse class="cls-1" cx="316.83" cy="810.59" rx="22.99" ry="2.57"/><ellipse class="cls-1" cx="905.53" cy="747.4" rx="22.99" ry="2.57"/><ellipse class="cls-1" cx="714.22" cy="734.93" rx="22.99" ry="2.57"/><ellipse class="cls-1" cx="590.46" cy="793.65" rx="27.19" ry="4.67"/><path class="cls-11" d="M715,377.28c-6.54-17.77-42.54-19.44-58.16-14.91-11.1,3.23-34.5,6.87-47,8.7l-.81-.77c1.62-.48,1.66-1.66,1.46-3.41a53.28,53.28,0,0,1,.1-6.92c7.66,2.38,14.48-3.25,14.48-3.25h0c9-4,6.58-21.12,8.3-25.8,1.29-3.5,2.68-24.12,3.3-34.4h.13l.07-3.45c.09-1.49.13-2.36.13-2.36s.88-25.14,2.6-30.23c1.6-4.68,2.9-28.26,3.1-32V228l-.13-2.18c.09-1.59.13-3.36.12-5.22,0-8.55-.89-19.32-1-21.06v-.91c.07-3.65-.39-21.93-15.94-28.84-5.73-2.56-12.62-5.61-19.29-8.58-1.72-14.85-5.65-29.62-5.31-44.58,0-2.25.2-4.5.42-6.74,0,.65-.07,1.31-.08,2v4.36c.59-18.71,7.66-37.52,7-55.83-.06,1.79-.19,3.59-.36,5.39a57.92,57.92,0,0,0-1.92-18.39c-.6-2.11-1.41-4.29-3.14-5.7a13,13,0,0,0-5.48-2.17,111.48,111.48,0,0,0-14.39-2.68,22.35,22.35,0,0,0-3.24-6.29c-10.14-13.92-25.16-27-42.92-30-8.91-1.5-19.16-.25-25.22,6.12A18.9,18.9,0,0,0,510,8.49c-3.26,3.89-4.66,9-8,12.88-.22.26-.47.5-.71.75-6.54,5.85-16.73,7.07-24,12.32a28.86,28.86,0,0,0-3.59,3.13,61.14,61.14,0,0,0-7.84,9.53c-3.27,4.6-6.63,9.39-7.67,14.88-2.09,11,5.4,21.43,6.79,32.5,3.1,24.77-24.31,46.75-19.12,71.19a32.48,32.48,0,0,0,8.82,15.83c-10.69,9.68-19.79,19.07-19.79,19.07v.56H433.2l.17,2h-.17l.93,10.85-.93,15.8v1.49h.06c.31,5.79,1.54,26.61,3,31,1.72,5.09,2.59,30.23,2.59,30.23s1.9,35.53,3.64,40.23-.73,21.77,8.3,25.8h0a18.89,18.89,0,0,0,9.07,3.76c-.46,3.74-.17,6.45,1.32,7.3a4.33,4.33,0,0,0,2.1.6,22.31,22.31,0,0,0-1.63,2.85,42,42,0,0,1-10.48-2.47c-9.7-4-41.89-13-51.24-6.67S368.08,376,378.47,401.45s15.23,26.12,15.23,26.12a37,37,0,0,1,8.31,8.35c3.12,4.69,32.19,15.42,39.46,15.42a71.46,71.46,0,0,1,9.25.46s-7.89,6.92-6.84,10.94-2.4,36.2-2.4,36.2,8,8.06,11.42-2.51l.12.16c.64.87,4.1,4.8,10.61-.16a59.5,59.5,0,0,1,8.46-5.36l31.52-4.46a90.28,90.28,0,0,1,9.87-.07c5,.41,9.91-2.55,13-4.84,6.53,2.48,13.87,5.19,17.36,6.18,7.08,2,39.62,10.73,47.23,8a10.58,10.58,0,0,0,4.1-2.92l7.26.23-3.4.68s6.62.11,15.62.23l-.38.22,11.29-.1c16.52.15,35.08.2,37.52-.35,3.82-.85,23.67-.25,29.52,0h1.63S716,489.52,707,467.39c-6.92-17-28.19-21.94-37.63-23.3,2.66-.53,5-.94,6.47-1.18,6.59-1,19.39-7,20.43-9.05s11.77-8,14.54-11.39S721.53,395.05,715,377.28ZM534.31,427l-1.07.35-.72.24L531.14,429c-1.1-.74-2.28-1.52-3.51-2.32C529.8,426.77,532,426.9,534.31,427Z"/><path class="cls-12" d="M598.07,321.57s15.3,40,24,36,6.34-21,8-25.66,3.5-40,3.5-40,.84-25,2.5-30.06c1.54-4.65,2.79-28.1,3-31.79v-.49l-1.65-29-9.34-2.33-21.66,8-3,17.13-1.17,6.69-.5,2.85Z"/><path class="cls-7" d="M603.11,314.87s14.6,11.95,19,13,7.1,10.37,7.1,10.37"/><path class="cls-12" d="M478.42,323.32s-15.3,40-24,36-6.34-21-8-25.66-3.5-40-3.5-40-.84-25-2.5-30.06c-1.54-4.65-2.79-28.1-3-31.79v-.49l1.66-29,9.34-2.33,21.66,8,3,17.13,1.17,6.69.5,2.85Z"/><rect class="cls-13" x="543.9" y="109.26" width="34.15" height="53.23"/><rect class="cls-7" x="543.9" y="109.26" width="34.15" height="53.23"/><path class="cls-14" d="M472.42,363.16s-11.67,12.83-7.34,15.16,32.34,46,32.34,46,92,11.33,109.35-5.67,17-47.37,17-47.37-13.94,3-15.46,1.37-9.87-9.49-9.87-9.49S480.42,356,472.42,363.16Z"/><path class="cls-15" d="M472.42,363.16s-11.67,12.83-7.34,15.16,32.34,46,32.34,46,92,11.33,109.35-5.67,17-47.37,17-47.37-13.94,3-15.46,1.37-9.87-9.49-9.87-9.49S480.42,356,472.42,363.16Z"/><path class="cls-12" d="M638,201l-30,24-9.07.66-3.33.24L539.71,230l-58-4.24-8.63-.63-11-.8-23-22s16.28-17.44,30.54-29.21c5.62-4.65,10.93-8.41,14.8-9.89l.66-.23a16.43,16.43,0,0,0,6.34-4.42c11.26-11.61,21.67-40.26,21.67-40.26s49.67-25.66,43.67,8,22.33,25.34,22.33,25.34l9.34,4.26,3.69,1.69,9.41,4.31,21.23,9.74C639.42,179.32,638,201,638,201Z"/><circle class="cls-7" cx="537.38" cy="101.05" r="44.67"/><path class="cls-7" d="M638.11,232.81H437.42v-.49l1.66-29s16.28-17.44,30.54-29.21l126-5,5.86-6.18,21.23,9.74C639.38,180.33,638,202,638,202S640.32,227.11,638.11,232.81Z"/><path class="cls-16" d="M638.11,231.81H437.42v-.49l1.66-29s16.28-17.44,30.54-29.21l126-5,5.86-6.18,21.23,9.74C639.38,179.33,638,201,638,201S640.32,226.11,638.11,231.81Z"/><path class="cls-7" d="M505.21,150.49s31.66,40.34,73.83-.83,4.67,91.83,4.67,91.83l-91,10.8Z"/><path class="cls-16" d="M505.21,152.49s31.66,40.34,73.83-.83,4.67,91.83,4.67,91.83l-91,10.8Z"/><path class="cls-7" d="M592.07,159.57l3.35,51.09,3.59,17,2.74,13s7,100,5,105,1,9,1.42,11.66-.42,9.34-.09,12.34,0,4.33-7.66,3.26S582.08,370,582.08,370s-27,2-36.33-1.33-27-3.34-27-3.34-26.67.67-35.33-.33-13.34,10.67-19,7.33,6.66-35.66,10.66-45-5.33-33-5.33-33l12-66.57,2.67-15.09V165.22l.66-.23a16.43,16.43,0,0,0,6.34-4.42l3,47.74,94,3.34V157.92"/><path class="cls-16" d="M592.07,157.57l3.35,51.09,3.59,17,2.74,13s7,100,5,105,1,9,1.42,11.66-.42,9.34-.09,12.34,0,4.33-7.66,3.26S582.08,368,582.08,368s-27,2-36.33-1.33-27-3.34-27-3.34-26.67.67-35.33-.33-13.34,10.67-19,7.33,6.66-35.66,10.66-45-5.33-33-5.33-33l12-66.57,2.67-15.09V163.22l.66-.23a16.43,16.43,0,0,0,6.34-4.42l3,47.74,94,3.34V155.92"/><path class="cls-7" d="M602.88,51c-.57-2.09-1.36-4.26-3-5.66a12.39,12.39,0,0,0-5.28-2.16,103.93,103.93,0,0,0-13.88-2.66,22.27,22.27,0,0,0-3-6.23c-9.8-13.84-24.3-26.89-41.36-29.84-8.93-1.55-19.28-.16-25,6.88-3.14,3.87-4.49,9-7.66,12.8-6.11,7.38-17.14,8.29-24.84,14-4.11,3-7.09,7.35-10,11.57-3.15,4.57-6.39,9.33-7.39,14.79-2,10.91,5.21,21.31,6.54,32.32,3,24.63-23.4,46.48-18.41,70.78,2.91,14.17,16,24.15,29.54,29.21,4.77,1.79,10.22,3.57,12.45,8.15,1,2,1.17,4.31,2.11,6.33,3.16,6.74,13.55,7,19.13,2.09s7.34-12.85,8-20.26c2.68-32.36-10.28-64.33-8.77-96.77.45-9.81,3.21-20.94,12-25.38,11.83-6,26.06,4,39.08,2.09a77.53,77.53,0,0,1,3.74,47.31c-2.07,8.63-5.65,17-5.91,25.9-.39,13.55,6.92,25.93,13.24,37.91a20.2,20.2,0,0,1,2.67,7.31,17.61,17.61,0,0,1-1.43,7.65c-3.57,9.61-9.73,18.53-10.43,28.76a4.61,4.61,0,0,0,.75,3.42,4.23,4.23,0,0,0,2.58,1.16c10.8,1.85,20.14-7.72,25.41-17.33a81.15,81.15,0,0,0,10-34.52c1.09-20.36-6.21-40.39-5.76-60.77C598.54,96.63,609,73.3,602.88,51Z"/><path class="cls-13" d="M603.88,50c-.57-2.09-1.36-4.26-3-5.66a12.39,12.39,0,0,0-5.28-2.16,103.93,103.93,0,0,0-13.88-2.66,22.27,22.27,0,0,0-3-6.23c-9.8-13.84-24.3-26.89-41.36-29.84-8.93-1.55-19.28-.16-25,6.88-3.14,3.87-4.49,9-7.66,12.8-6.11,7.38-17.14,8.29-24.84,14-4.11,3-7.09,7.35-10,11.57-3.15,4.57-6.39,9.33-7.39,14.79-2,10.91,5.21,21.31,6.54,32.32,3,24.63-23.4,46.48-18.41,70.78,2.91,14.17,16,24.15,29.54,29.21,4.77,1.79,10.22,3.57,12.45,8.15,1,2,1.17,4.31,2.11,6.33,3.16,6.74,13.55,7,19.13,2.09s7.34-12.85,8-20.26c2.68-32.36-10.28-64.33-8.77-96.77.45-9.81,3.21-20.94,12-25.38,11.83-6,26.06,4,39.08,2.09a77.53,77.53,0,0,1,3.74,47.31c-2.07,8.63-5.65,17-5.91,25.9-.39,13.55,6.92,25.93,13.24,37.91a20.2,20.2,0,0,1,2.67,7.31,17.61,17.61,0,0,1-1.43,7.65c-3.57,9.61-9.73,18.53-10.43,28.76a4.61,4.61,0,0,0,.75,3.42,4.23,4.23,0,0,0,2.58,1.16c10.8,1.85,20.14-7.72,25.41-17.33a81.15,81.15,0,0,0,10-34.52c1.09-20.36-6.21-40.39-5.76-60.77C599.54,95.63,610,72.3,603.88,50Z"/><polygon class="cls-17" points="581.79 492.72 621.46 493.99 615.77 464.57 585.38 467.46 581.79 492.72"/><path class="cls-14" d="M704.71,423c-2.67,3.33-13,9.33-14,11.33s-13.33,8-19.67,9-26.33,5.34-30,7.67c-2.63,1.68-23.74,7-37.61,9.95A104.94,104.94,0,0,1,592,463c-6,.33-71.66-22-71.66-22L533,428l.7-.24c3.58-1.21,20.12-6.8,29.3-9.46,10.34-3,22.34-15.33,22.34-15.33s17.66-6,20-6.67-6-23.33-6-23.33,38.33-5.32,53.33-9.83,49.67-2.84,56,14.83S707.42,419.66,704.71,423Z"/><path class="cls-16" d="M530,479.32s-7.66,8-15.33,7.34-34.49,2-34.49,2a54,54,0,0,0-13.51,7.83c-6.27,4.94-9.6,1-10.22.16l-.11-.16c-3.34,10.51-11,2.5-11,2.5s3.33-32,2.31-36,6.59-10.87,6.59-10.87l9-2.29,22.8-5.84,32.67,11.33Z"/><path class="cls-7" d="M463.24,449.83l-6.75,46.82-.11-.16c-3.34,10.51-11,2.5-11,2.5s3.33-32,2.31-36,6.59-10.87,6.59-10.87Z"/><path class="cls-7" d="M510.42,316.65s17.66,6,33,0"/><path class="cls-7" d="M570.71,328s7.33,3.66,13,0"/><path class="cls-7" d="M570.71,336.67S583,338.32,585.38,335"/><path class="cls-7" d="M566.71,355.32s23.16-3,28.91-7"/><path class="cls-7" d="M496,348.32s13,7.33,22.67,7"/><path class="cls-7" d="M603.42,460.94A104.94,104.94,0,0,1,592,463c-6,.33-71.66-22-71.66-22L533,428l.7-.24c2,1.41,3.64,2.62,4.81,3.54,5.51,4.34,10.83-1.33,12.83-1.33s19.33,14.33,19.33,14.33,16,3.67,18.67,7,12,2.67,13.66,5C603.53,457,603.59,458.78,603.42,460.94Z"/><path class="cls-14" d="M480.22,374.32s-16.18.93-25.51-3-40.33-13-49.33-6.63-30.67,12-20.67,37.34,14.67,26,14.67,26a36.22,36.22,0,0,1,8,8.3c3,4.67,31,15.33,38,15.33s19.33,0,36.66,12S515,477,515,477s22,9,28.85,11,38.15,10.66,45.49,8,12-19.34,12-19.34,3.33-15,1.66-17.33-11-1.67-13.66-5-18.67-7-18.67-7S553.42,433,551.42,433s-7.32,5.66-12.83,1.33a293.3,293.3,0,0,0-34.51-22C491.42,405.65,480.22,374.32,480.22,374.32Z"/><path class="cls-7" d="M447.69,384a19.12,19.12,0,0,1,16.39,4.33c8,6.67,34.92,20.06,34.92,20.06"/><path class="cls-7" d="M647.71,383.57S612,389,605.38,396.3"/><path class="cls-16" d="M688.71,494h-1.57c-5.64-.2-24.75-.8-28.43,0-4.33,1-61.67,0-61.67,0l11.21-2.33s-4.16-14.58-1.52-15.79c0,0-15-9.88-3.69-16.55s23.5-3.86,23.5-3.86l28.39-9.62,5.45-1.85s32,1.67,40.66,23.67S688.71,494,688.71,494Z"/><path class="cls-7" d="M688.71,494h-1.57c9.31-7.68,30.37-31.06-32.21-48.1l5.45-1.85s32,1.67,40.66,23.67S688.71,494,688.71,494Z"/><circle class="cls-14" cx="629.88" cy="466.32" r="1.75"/><circle class="cls-14" cx="619.71" cy="469.21" r="1.75"/><g class="cls-18"><path d="M570.16,99.4a77.59,77.59,0,0,0-5.74-32.14c-13,1.94-27.24-8.09-39.08-2.09-8.76,4.44-11.51,15.57-12,25.38-.12,2.59-.14,5.18-.09,7.77,0-.92,0-1.85.09-2.77.46-9.81,3.21-20.94,12-25.38,11.84-6,26.06,4,39.08,2.09A77.38,77.38,0,0,1,570.16,99.4Z"/><path d="M469.42,97.57a33.24,33.24,0,0,0-.13-6.54c-1.06-8.8-5.87-17.21-6.74-25.79C461.43,75.59,468,85.53,469.29,96A6.25,6.25,0,0,1,469.42,97.57Z"/><path d="M522.11,187.31c-.62,7.42-2.37,15.35-8,20.27s-16,4.65-19.13-2.09c-1-2-1.15-4.33-2.12-6.33-2.22-4.58-7.68-6.36-12.45-8.15-13.55-5.07-26.62-15-29.53-29.21a30,30,0,0,1-.53-3.9,31.26,31.26,0,0,0,.53,8.9c2.91,14.17,16,24.14,29.53,29.21,4.77,1.79,10.23,3.57,12.45,8.15,1,2,1.17,4.31,2.12,6.33,3.15,6.74,13.54,7,19.13,2.09s7.33-12.85,8-20.27a114.9,114.9,0,0,0,.31-11.74C522.42,182.84,522.29,185.08,522.11,187.31Z"/><path d="M599.35,114.06v4.33c.56-18.6,7.38-37.3,6.71-55.51C605.54,79.72,599.73,96.94,599.35,114.06Z"/><path d="M577.89,189.3a12.85,12.85,0,0,0,.23-3.61,20,20,0,0,0-2.67-7.31c-5.78-11-12.37-22.26-13.15-34.47,0,.52-.07,1-.08,1.56-.4,13.54,6.91,25.93,13.23,37.91A24.48,24.48,0,0,1,577.89,189.3Z"/><path d="M605.1,174.83A81.34,81.34,0,0,1,595,209.35c-5.28,9.61-14.61,19.18-25.42,17.33a4.19,4.19,0,0,1-2.58-1.17,2.58,2.58,0,0,1-.47-.78c-.12.78-.22,1.57-.28,2.37a4.58,4.58,0,0,0,.75,3.41,4.19,4.19,0,0,0,2.58,1.17c10.81,1.85,20.14-7.72,25.42-17.33a81.34,81.34,0,0,0,10.09-34.52c.12-2.34.13-4.67.06-7C605.14,173.5,605.14,174.16,605.1,174.83Z"/></g><path class="cls-19" d="M606.73,475.87s25.31,10.62,42-12.88"/><path class="cls-19" d="M611.71,494.43s20.67-13.44,47-.44"/><path class="cls-19" d="M473.35,491.38s8.68-19.58,31.86-4.65"/><path class="cls-7" d="M445.21,201.82l17.7-16s68.63-4.5,71.47,18.83c0,0,24.33-27.66,75.5-21.5l21.65,17.24-59.84,26.26-58.15,20.17-42.83-19.17Z"/><path class="cls-5" d="M445.21,202.82l17.7-16s68.63-4.5,71.47,18.83c0,0,24.33-27.66,75.5-21.5l21.65,17.24-59.84,26.26-58.15,20.17-42.83-19.17Z"/><polygon class="cls-7" points="437.38 204.82 445.21 298.49 528.21 302.66 524.61 209.39 524.54 207.82 437.38 204.82"/><polygon class="cls-20" points="437.38 202.82 445.21 296.49 528.21 300.66 524.61 207.39 524.54 205.82 437.38 202.82"/><polygon class="cls-7" points="635.33 202.82 549.71 215.66 549.71 309.75 633.38 297.66 635.33 202.82"/><polygon class="cls-20" points="635.33 200.82 549.71 213.66 549.71 307.75 633.38 295.66 635.33 200.82"/><polygon class="cls-8" points="615.14 223.78 568.89 228.92 569.9 244.68 615.11 239.74 615.14 223.78"/><path class="cls-12" d="M449.71,346.65l4.71,12.67s7,6,14.66,3,14.34-4.49,17.67-7.41,8-17.59,8-17.59,4.67-16,9.33-20,17-59.11,0-53.72-30,55.39-30,55.39-3,3.66-7.33,4-13-.67-14.67,3S444.71,339.32,449.71,346.65Z"/><path class="cls-7" d="M549.71,215.65a28.78,28.78,0,0,1-25.11-6.26l3.61,93.26s8.5,9.2,21.5,7.1Z"/><path class="cls-2" d="M549.71,213.65a28.78,28.78,0,0,1-25.11-6.26l3.61,93.26s8.5,9.2,21.5,7.1Z"/><path class="cls-21" d="M549.71,213.65a28.78,28.78,0,0,1-25.11-6.26l3.61,93.26s8.5,9.2,21.5,7.1Z"/><path class="cls-7" d="M551.71,203.14s34.83-10.65,43.91-9.15"/><path class="cls-7" d="M512.75,198.49s-33.76-8-39.4-5.73"/><path class="cls-7" d="M573.67,204.47S597,195.93,605.38,200"/><path class="cls-7" d="M561.94,418.7a77.13,77.13,0,0,1,11.48-7.13c6-2.89,17-10.39,17-10.39"/><path class="cls-7" d="M473.35,316.65s-14.61,12-19,13-7.1,10.37-7.1,10.37"/><path class="cls-12" d="M626.74,344.87l-4.66,12.7s-7,6-14.67,3-14.33-4.49-17.67-7.41-8-17.59-8-17.59-4.66-16-9.33-20-17-59.11,0-53.72,30,55.39,30,55.39,3,3.66,7.33,4,13-.67,14.67,3S631.74,337.57,626.74,344.87Z"/><path class="cls-7" d="M618.57,321.51s9.55,6.14,9.51,13.48"/><circle class="cls-12" cx="537.54" cy="98.86" r="44.67"/><path class="cls-13" d="M509.49,86.87c5.42-.85,10.17-4,15.35-5.81C536.43,77,549.25,79.78,561,83.45c4.5,1.41,9.07,3,13.79,3s9.73-1.93,12.14-6c2.22-3.74,1.79-8.6-.08-12.53s-5-7.09-8.16-10.07c-10.4-9.82-23.3-19-37.57-18-5.74.41-11.23,2.46-16.51,4.73a183.9,183.9,0,0,0-19.38,9.76c-4.81,2.79-13.72,6.52-16.49,11.62C482.42,77.45,499.69,88.41,509.49,86.87Z"/><path class="cls-7" d="M586.91,76.25c-2.41,4.07-7.42,6-12.14,6s-9.29-1.53-13.8-2.94c-11.73-3.67-24.54-6.47-36.14-2.39-5.17,1.81-9.93,5-15.35,5.8-7.9,1.24-20.62-5.64-22-14.39-1.55,10.11,13.2,18.77,22,17.39,5.42-.85,10.18-4,15.35-5.8,11.6-4.08,24.41-1.28,36.14,2.39,4.51,1.41,9.07,3,13.8,2.94s9.73-1.92,12.14-6a11.7,11.7,0,0,0,1.4-7.31A10.78,10.78,0,0,1,586.91,76.25Z"/><path class="cls-3" d="M949.42,618.2s5.93,7.75-2.74,19.46-15.81,21.59-12.93,28.89c0,0,13.08-21.74,23.72-22S961.11,631.27,949.42,618.2Z"/><path class="cls-7" d="M949.42,618.2a9.68,9.68,0,0,1,1.21,2.43c10.38,12.2,15.92,23.59,5.93,23.87-9.3.27-20.45,16.9-23.12,21.09.09.34.19.67.31,1,0,0,13.08-21.74,23.72-22.05S961.11,631.27,949.42,618.2Z"/><path class="cls-22" d="M960.42,628.08c0,2.73-.31,4.94-.68,4.94s-.69-2.21-.69-4.94.38-1.44.76-1.44S960.42,625.35,960.42,628.08Z"/><path class="cls-22" d="M964.21,631.34c-2.39,1.3-4.48,2.09-4.66,1.76s1.61-1.66,4-3,1.45-.36,1.63,0S966.61,630,964.21,631.34Z"/><path class="cls-3" d="M918.08,618.2s-5.93,7.75,2.74,19.46,15.81,21.59,12.92,28.89c0,0-13.07-21.74-23.72-22S906.42,631.27,918.08,618.2Z"/><path class="cls-7" d="M918.08,618.2a9.68,9.68,0,0,0-1.21,2.43c-10.38,12.2-15.92,23.59-5.93,23.87,9.29.27,20.45,16.9,23.12,21.09a6.85,6.85,0,0,1-.32,1S920.67,644.85,910,644.54,906.42,631.27,918.08,618.2Z"/><path class="cls-22" d="M907.06,628.08c0,2.73.3,4.94.68,4.94s.69-2.21.69-4.94-.39-1.44-.76-1.44S907.06,625.35,907.06,628.08Z"/><path class="cls-22" d="M903.28,631.34c2.39,1.3,4.48,2.09,4.66,1.76s-1.61-1.66-4-3-1.45-.36-1.63,0S900.88,630,903.28,631.34Z"/><ellipse class="cls-1" cx="933.75" cy="716.36" rx="62" ry="9.51"/><path class="cls-23" d="M965.66,656.1l-.3,2.42-.42,3.42-.17,1.43-.42,3.42-.18,1.43-.41,3.41L959,710.53c-.42,3.47-6.09,6.18-12.94,6.18H921.42c-6.85,0-12.51-2.71-12.94-6.18l-4.75-38.9-.42-3.41-.17-1.43-.42-3.42-.18-1.43-.41-3.42-.3-2.42c-.23-2,2.83-3.62,6.71-3.62H959C962.83,652.48,965.9,654.13,965.66,656.1Z"/><polygon class="cls-24" points="965.36 658.52 964.95 661.94 902.55 661.94 902.13 658.52 965.36 658.52"/><polygon class="cls-24" points="964.77 663.37 964.36 666.79 903.14 666.79 902.72 663.37 964.77 663.37"/><polygon class="cls-24" points="964.18 668.22 963.76 671.64 903.73 671.64 903.32 668.22 964.18 668.22"/></g></g></svg>
