<svg width="121" height="96" viewBox="0 0 121 96" fill="none" xmlns="http://www.w3.org/2000/svg">
<g clip-path="url(#clip0)">
<path opacity="0.1" d="M60.9624 16.2237C53.3062 15.958 46.0131 13.4918 39.0501 10.793C32.087 8.09419 25.1903 5.10379 17.7174 3.67411C12.9109 2.75443 7.41363 2.62457 3.54173 5.19587C-0.18584 7.67509 -1.39011 11.9429 -2.0372 15.9073C-2.52459 18.8894 -2.81087 22.0274 -1.47529 24.8195C-0.549015 26.758 1.09651 28.3872 2.23335 30.2501C6.19279 36.7103 3.39504 44.6768 -0.895629 50.9846C-2.9067 53.9444 -5.24308 56.7695 -6.79515 59.9169C-8.34722 63.0643 -9.06647 66.6757 -7.70841 69.8893C-6.361 73.0768 -3.15157 75.4663 0.324025 77.1487C7.38523 80.5664 15.7028 81.5439 23.8192 82.0976C41.7804 83.3243 59.8362 82.793 77.8447 82.2617C84.5096 82.0646 91.2029 81.8651 97.759 80.8368C101.4 80.2654 105.159 79.3599 107.803 77.1711C111.157 74.3932 111.989 69.6886 109.741 66.2059C105.969 60.3632 95.5457 58.9122 92.9052 52.641C91.4549 49.1902 92.9455 45.3462 95.0535 42.1445C99.5773 35.2782 107.159 29.2537 107.559 21.4052C107.833 16.0135 104.187 10.6159 98.5516 8.06468C92.645 5.38122 84.4517 5.72123 80.0959 10.1472C75.6077 14.7078 67.722 16.4574 60.9624 16.2237Z" fill="#5B97FC"/>
<path d="M41.5124 81.5191L1.02136 81.322L-3.00195 71.9045L11.2246 70.8738L8.74505 60.5485L36.8834 56.9087L9.93867 47.5609L12.3188 46.9966L55.6455 54.0505L53.2594 70.1643L49.8489 79.0198L41.5124 81.5191Z" fill="#5B97FC"/>
<path d="M1.64258 77.3774C1.64258 77.3774 4.12684 76.9807 5.61739 78.7327C5.61739 78.7327 4.52432 79.5922 2.17255 78.4022L1.64258 77.3774Z" fill="#5B97FC"/>
<path d="M1.38291 77.3389C1.38291 77.3389 -0.202282 79.2856 0.578486 81.4532C0.578486 81.4532 1.8703 80.9373 2.01108 78.3093L1.38291 77.3389Z" fill="#5B97FC"/>
<path d="M-0.0419922 74.1379C-0.0419922 74.1379 0.951711 72.3186 4.92653 74.8651C4.92653 74.8651 4.39655 76.0882 2.64101 75.9891C0.885465 75.8899 0.421736 75.0965 -0.0419922 74.1379Z" fill="#5B97FC"/>
<path d="M-0.29869 74.0068C-0.29869 74.0068 -2.36062 73.7707 -2.56055 78.4812C-2.56055 78.4812 -1.25335 78.7516 -0.324715 77.2617C0.603924 75.7718 0.223005 74.936 -0.29869 74.0068Z" fill="#5B97FC"/>
<path d="M-1.49902 70.2491C-1.49902 70.2491 -0.339703 67.0426 3.86698 69.3235C3.86698 69.3235 2.9064 72.2655 -1.06842 71.3399L-1.49902 70.2491Z" fill="#5B97FC"/>
<path d="M-2.79102 65.4562C-2.79102 65.4562 -0.604869 62.2167 3.27057 65.2201C3.27057 65.2201 1.91251 68.2613 -2.45978 66.6085L-2.79102 65.4562Z" fill="#5B97FC"/>
<path d="M-3.25488 60.8941C-3.25488 60.8941 -0.704376 57.9178 3.13321 60.8941C3.13321 60.8941 0.715201 63.5055 -3.25488 61.6544V60.8941Z" fill="#5B97FC"/>
<path d="M-3.65234 56.4635C-3.65234 56.4635 -1.06871 53.3563 2.60799 56.2983C2.60799 56.2983 -0.306874 59.0419 -3.65234 57.1908V56.4635Z" fill="#5B97FC"/>
<path d="M-3.41992 52.5298C-3.41992 52.5298 -0.699066 48.5299 2.74104 51.2406C2.74104 51.2406 -0.173822 54.6784 -3.41992 53.2901V52.5298Z" fill="#5B97FC"/>
<path d="M-2.79102 47.9352C-2.79102 47.9352 0.0907255 43.9685 3.4362 47.0096C3.4362 47.0096 0.0244787 50.4475 -2.79102 48.6624V47.9352Z" fill="#5B97FC"/>
<path d="M-1.83044 43.828C-1.83044 43.828 1.58128 40.0997 4.55766 41.5849C4.55766 41.5849 1.0028 45.5446 -1.97949 44.8173L-1.83044 43.828Z" fill="#5B97FC"/>
<path d="M-0.637809 39.934C-0.637809 39.934 3.29915 35.3676 5.5894 36.8929C5.5894 36.8929 2.68873 40.4346 -0.916992 40.7888L-0.637809 39.934Z" fill="#5B97FC"/>
<path d="M1.08266 35.4186C1.08266 35.4186 4.52868 31.6904 7.04607 32.6159C7.04607 32.6159 4.09808 36.4835 0.620117 36.5827L1.08266 35.4186Z" fill="#5B97FC"/>
<path d="M2.6412 31.1943C2.6412 31.1943 6.4504 27.6243 8.10658 28.2523C8.10658 28.2523 5.35733 32.2191 2.47559 31.9877L2.6412 31.1943Z" fill="#5B97FC"/>
<path d="M4.16504 27.294C4.16504 27.294 7.44426 23.0285 9.23411 23.3591C9.23411 23.3591 7.24552 27.1617 4.16504 27.7272V27.294Z" fill="#5B97FC"/>
<path d="M5.8187 22.0344C5.8187 22.0344 8.717 18.7654 10.2833 18.7725C10.2833 18.7725 7.99538 23.1406 5.69922 23.1005L5.8187 22.0344Z" fill="#5B97FC"/>
<path d="M6.79846 18.5327L9.59858 11.7231C9.59858 11.7231 9.73817 17.8787 6.44238 19.7959L6.79846 18.5327Z" fill="#5B97FC"/>
<path d="M7.93494 11.0232C7.93494 11.0232 8.39867 5.33632 8.10056 4.87354C8.10056 4.87354 10.1022 9.60176 7.91602 13.5355L7.93494 11.0232Z" fill="#5B97FC"/>
<path d="M6.5795 61.167C6.5795 61.167 4.029 58.1908 0.191406 61.167C0.191406 61.167 2.60942 63.7785 6.5795 61.9273V61.167Z" fill="#5B97FC"/>
<path d="M6.26033 56.4635C6.26033 56.4635 3.6767 53.3563 0 56.2983C0 56.2983 2.91486 59.0419 6.26033 57.1908V56.4635Z" fill="#5B97FC"/>
<path d="M6.57978 52.6433C6.57978 52.6433 4.76745 48.163 0.828125 50.0897C0.828125 50.0897 2.95749 54.0623 6.41889 53.387L6.57978 52.6433Z" fill="#5B97FC"/>
<path d="M1.36717 35.2497C1.36717 35.2497 0.550911 30.2429 -2.06348 29.6313C-2.06348 29.6313 -1.73934 34.48 1.10809 36.4787L1.36717 35.2497Z" fill="#5B97FC"/>
<path d="M2.95126 31.2354C2.95126 31.2354 2.92405 26.0196 1.32702 25.2534C1.32702 25.2534 0.336867 29.9757 2.48871 31.9013L2.95126 31.2354Z" fill="#5B97FC"/>
<path d="M4.2865 27.2346C4.2865 27.2346 4.06291 21.8642 2.40911 21.1074C2.40911 21.1074 1.84364 25.3575 4.03925 27.5864L4.2865 27.2346Z" fill="#5B97FC"/>
<path d="M6.04934 22.4627C6.04934 22.4627 6.03988 18.0946 4.85926 17.0698C4.85926 17.0698 3.68574 21.8547 5.43301 23.3411L6.04934 22.4627Z" fill="#5B97FC"/>
<path d="M6.65983 18.3179L5.51116 11.0479C5.51116 11.0479 3.95081 17.0051 6.71425 19.6307L6.65983 18.3179Z" fill="#5B97FC"/>
<path d="M6.88369 11.0913C6.88369 11.0913 3.9357 6.20371 3.99603 5.66064C3.99603 5.66064 4.30952 10.7832 8.01816 13.3344L6.88369 11.0913Z" fill="#5B97FC"/>
<path d="M7.22856 9.64781C7.22856 9.64781 4.44619 2.706 3.1875 2.14404C3.1875 2.14404 7.16232 4.16047 7.46043 9.44947L7.22856 9.64781Z" fill="#5B97FC"/>
<path d="M5.68558 23.1415L5.49512 23.0837C7.84333 15.4418 8.4289 10.5695 7.14537 9.34764L7.28142 9.20361C8.64302 10.4928 8.09057 15.3119 5.68558 23.1415Z" fill="#444053"/>
<path d="M-0.780952 41.0343L-1.0625 40.9339C-0.812891 40.2339 -0.544355 39.5231 -0.262806 38.8231C2.18833 32.7265 4.27511 27.055 5.61306 22.7011L5.85794 22.583C4.51762 26.9452 2.46751 32.834 0.0140111 38.9388C-0.266355 39.6259 -0.533709 40.333 -0.780952 41.0343Z" fill="#444053"/>
<path d="M5.14313 83.0963C5.10528 83.0549 1.29963 78.7777 -1.3538 71.4758C-2.90855 67.2009 -3.77381 62.7068 -3.91731 58.1612C-4.09949 52.4791 -2.90468 46.1347 -0.858128 40.3711L-0.635727 40.6308C-5.23042 53.5664 -3.40508 64.6509 -0.983523 71.3259C1.64151 78.5617 5.40457 82.7917 5.44124 82.8342L5.14313 83.0963Z" fill="#444053"/>
<path d="M64.614 74.0151C64.614 74.0151 61.9322 77.2818 64.0616 82.2202L42.6497 91.4877L40.5948 91.9174L39.6484 87.7854L40.2813 82.5708V79.7209L64.614 74.0151Z" fill="#D5D6DB"/>
<path d="M-3.00195 71.9044L26.6341 66.5127L65.9031 72.7556L41.5124 81.519L-3.00195 71.9044Z" fill="#5B97FC"/>
<path d="M-3.00195 71.9044L26.6341 66.5127L65.9031 72.7556L41.5124 81.519L-3.00195 71.9044Z" fill="#C3DFFE"/>
<path d="M-3.00152 71.9033C-3.00152 71.9033 -5.77324 77.1439 -2.57919 81.9843L41.3685 91.488C41.3685 91.488 38.6406 87.3134 41.5093 81.5191L-3.00152 71.9033Z" fill="#A0CCFD"/>
<path d="M41.3686 91.4877L65.9037 81.0396C65.9037 81.0396 67.2759 81.3347 66.3887 82.3382C65.5014 83.3417 41.8418 92.4912 41.8418 92.4912L-2.5791 81.984L41.3686 91.4877Z" fill="#5B97FC"/>
<path opacity="0.1" d="M41.3686 91.4877L65.9037 81.0396C65.9037 81.0396 67.2759 81.3347 66.3887 82.3382C65.5014 83.3417 41.8418 92.4912 41.8418 92.4912L-2.5791 81.984L41.3686 91.4877Z" fill="black"/>
<path opacity="0.1" d="M39.3582 82.5742C39.3582 82.5742 36.9922 85.4076 39.3582 89.6577Z" fill="black"/>
<path opacity="0.1" d="M50.8116 82.5262L40.1992 86.0596L40.2367 86.1716L50.8491 82.6382L50.8116 82.5262Z" fill="black"/>
<path opacity="0.1" d="M52.9377 82.175L40.1963 87.0103L40.2383 87.1206L52.9797 82.2854L52.9377 82.175Z" fill="black"/>
<path opacity="0.1" d="M54.89 82.1578L40.2676 88.1309L40.3124 88.2401L54.9348 82.2671L54.89 82.1578Z" fill="black"/>
<path opacity="0.1" d="M57.012 81.6462L40.4375 89.1182L40.4862 89.2258L57.0607 81.7538L57.012 81.6462Z" fill="black"/>
<path opacity="0.1" d="M58.7961 81.6489L40.5693 89.5996L40.6167 89.7078L58.8434 81.7571L58.7961 81.6489Z" fill="black"/>
<path opacity="0.1" d="M62.6966 80.988L40.8438 90.4072L40.8907 90.5156L62.7435 81.0963L62.6966 80.988Z" fill="black"/>
<path opacity="0.3" d="M8.00781 72.4804L28.8283 68.1123L41.5122 70.5325L24.4512 76.0222L8.00781 72.4804Z" fill="white"/>
<path d="M65.904 72.7554C65.904 72.7554 66.9805 73.1886 66.3488 73.858C65.7171 74.5274 41.5098 81.5188 41.5098 81.5188L65.904 72.7554Z" fill="#5B97FC"/>
<path d="M76.3599 62.6606C76.3599 62.6606 73.6793 65.9261 75.8087 70.8657L54.3967 80.1332L52.3419 80.5653L51.3955 76.4333L52.0379 71.2198V68.3664L76.3599 62.6606Z" fill="#D5D6DB"/>
<path d="M8.74512 60.5482L38.38 55.1577L77.6502 61.4006L53.2595 70.1641L8.74512 60.5482Z" fill="#3A3768"/>
<path d="M8.74052 60.5483C8.74052 60.5483 5.96761 65.7889 9.16166 70.6293L53.1094 80.133C53.1094 80.133 50.3826 75.9549 53.2549 70.163L8.74052 60.5483Z" fill="#3A3768"/>
<path opacity="0.1" d="M8.74052 60.5483C8.74052 60.5483 5.96761 65.7889 9.16166 70.6293L53.1094 80.133C53.1094 80.133 50.3826 75.9549 53.2549 70.163L39.3572 67.1608L8.74052 60.5483Z" fill="black"/>
<path opacity="0.1" d="M10.0541 62.3652C10.0541 62.3652 8.47124 66.1986 10.0541 68.6813Z" fill="black"/>
<path d="M53.1147 80.1332L77.6509 69.6851C77.6509 69.6851 79.022 69.9802 78.1348 70.9837C77.2475 71.9872 53.5879 81.1367 53.5879 81.1367L9.16699 70.6295L53.1147 80.1332Z" fill="#3A3768"/>
<path opacity="0.1" d="M53.1147 80.1332L77.6509 69.6851C77.6509 69.6851 79.022 69.9802 78.1348 70.9837C77.2475 71.9872 53.5879 81.1367 53.5879 81.1367L9.16699 70.6295L53.1147 80.1332Z" fill="black"/>
<path opacity="0.1" d="M51.1033 71.2197C51.1033 71.2197 48.7374 74.0531 51.1033 78.3032Z" fill="black"/>
<path opacity="0.1" d="M62.5587 71.1731L51.9463 74.7065L51.9837 74.8185L62.5961 71.2851L62.5587 71.1731Z" fill="black"/>
<path opacity="0.1" d="M64.6857 70.821L51.9443 75.6562L51.9864 75.7666L64.7278 70.9313L64.6857 70.821Z" fill="black"/>
<path opacity="0.1" d="M66.6361 70.8019L52.0137 76.7749L52.0585 76.8842L66.6809 70.9111L66.6361 70.8019Z" fill="black"/>
<path opacity="0.1" d="M68.7601 70.2907L52.1855 77.7627L52.2342 77.8703L68.8088 70.3983L68.7601 70.2907Z" fill="black"/>
<path opacity="0.1" d="M70.5422 70.292L52.3154 78.2427L52.3628 78.3509L70.5895 70.4002L70.5422 70.292Z" fill="black"/>
<path opacity="0.1" d="M74.4436 69.631L52.5908 79.0503L52.6377 79.1587L74.4905 69.7394L74.4436 69.631Z" fill="black"/>
<path opacity="0.45" d="M19.7549 61.1255L40.5753 56.7573L53.2593 59.1775L36.1983 64.6672L19.7549 61.1255Z" fill="white"/>
<path d="M77.6505 61.4009C77.6505 61.4009 78.7258 61.8342 78.0953 62.5024C77.4647 63.1706 53.2598 70.1631 53.2598 70.1631L77.6505 61.4009Z" fill="#3A3768"/>
<path d="M77.4716 49.6704C77.4716 49.6704 74.7898 55.5343 76.9192 60.4727L55.5072 67.143L53.4571 67.5762L52.5107 63.4442L53.1436 58.2296V55.3761L77.4716 49.6704Z" fill="#D5D6DB"/>
<path d="M9.86133 47.5597L39.4974 42.168L78.7676 48.4109L54.3757 57.1743L9.86133 47.5597Z" fill="#C3DFFE"/>
<path d="M9.86116 47.5586C9.86116 47.5586 7.0847 52.7992 10.2787 57.6396L54.2265 67.1432C54.2265 67.1432 51.4985 62.9652 54.3708 57.1744L9.86116 47.5586Z" fill="#A0CCFD"/>
<path opacity="0.1" d="M11.1708 49.3755C11.1708 49.3755 9.58679 53.21 11.1708 55.6916Z" fill="black"/>
<path d="M54.2309 67.1428L78.7659 59.292C78.7659 59.292 80.1382 59.5871 79.251 60.5906C78.3637 61.5941 54.7041 68.1463 54.7041 68.1463L10.2832 57.6392L54.2309 67.1428Z" fill="#5B97FC"/>
<path opacity="0.1" d="M54.2309 67.1428L78.7659 59.292C78.7659 59.292 80.1382 59.5871 79.251 60.5906C78.3637 61.5941 54.7041 68.1463 54.7041 68.1463L10.2832 57.6392L54.2309 67.1428Z" fill="black"/>
<path opacity="0.1" d="M52.2195 58.2295C52.2195 58.2295 49.8535 61.0629 52.2195 65.313Z" fill="black"/>
<path opacity="0.1" d="M63.6759 58.1829L53.0635 61.7163L53.1009 61.8283L63.7134 58.2949L63.6759 58.1829Z" fill="black"/>
<path opacity="0.1" d="M65.8019 57.8313L53.0605 62.6665L53.1026 62.7769L65.844 57.9416L65.8019 57.8313Z" fill="black"/>
<path opacity="0.1" d="M67.7513 57.8131L53.1289 63.7861L53.1737 63.8954L67.7961 57.9224L67.7513 57.8131Z" fill="black"/>
<path opacity="0.1" d="M69.8773 57.301L53.3027 64.7729L53.3514 64.8805L69.926 57.4086L69.8773 57.301Z" fill="black"/>
<path opacity="0.1" d="M71.6593 57.3033L53.4326 65.2539L53.48 65.3621L71.7067 57.4114L71.6593 57.3033Z" fill="black"/>
<path opacity="0.1" d="M75.5608 56.6428L53.708 66.062L53.7549 66.1704L75.6077 56.7511L75.5608 56.6428Z" fill="black"/>
<path opacity="0.3" d="M20.8711 48.1357L41.6915 43.7676L54.3755 46.1878L37.3145 51.6775L20.8711 48.1357Z" fill="white"/>
<path d="M78.7657 48.4106C78.7657 48.4106 79.8422 48.8439 79.2105 49.5133C78.5788 50.1827 54.375 57.1741 54.375 57.1741L78.7657 48.4106Z" fill="#5B97FC"/>
<path d="M26.7227 12.5732C26.7227 12.5732 22.2274 12.3028 22.7526 15.4503C22.7526 15.4503 22.6474 16.0063 23.1525 16.259C23.1525 16.259 23.1608 16.0228 23.6139 16.1043C23.7755 16.132 23.94 16.14 24.1036 16.1279C24.3242 16.1129 24.5338 16.0267 24.701 15.8824V15.8824C24.701 15.8824 25.9656 15.3605 26.4577 13.2969C26.4577 13.2969 26.8221 12.8471 26.8126 12.7314L26.0508 13.0549C26.0508 13.0549 26.3099 13.6015 26.1064 14.056C26.1064 14.056 26.0816 13.0749 25.9349 13.0974C25.9053 13.0974 25.5409 13.2874 25.5409 13.2874C25.5409 13.2874 25.9869 14.2402 25.6498 14.932C25.6498 14.932 25.7775 13.7585 25.4013 13.3559L24.8666 13.6676C24.8666 13.6676 25.3883 14.651 25.0346 15.4538C25.0346 15.4538 25.1257 14.2225 24.7543 13.7431L24.2692 14.1209C24.2692 14.1209 24.7602 15.0902 24.4609 15.756C24.4609 15.756 24.4218 14.3228 24.1651 14.2142C24.1651 14.2142 23.7404 14.5873 23.6766 14.7407C23.6766 14.7407 24.0125 15.4491 23.8031 15.8162C23.8031 15.8162 23.6766 14.8612 23.5665 14.8564C23.5665 14.8564 23.1442 15.4892 23.1004 15.919C23.1209 15.5183 23.2461 15.13 23.4636 14.7927C23.2202 14.8386 22.9957 14.9548 22.8177 15.1268C22.8177 15.1268 22.8828 14.6793 23.5689 14.6404C23.5689 14.6404 23.9179 14.1599 24.0113 14.1316C24.0113 14.1316 23.3288 14.0737 22.9159 14.2567C22.9159 14.2567 23.2803 13.8352 24.1356 14.0206L24.6087 13.631C24.6087 13.631 23.712 13.5129 23.3311 13.644C23.3311 13.644 23.77 13.2709 24.7377 13.5425L25.2594 13.232C25.2594 13.232 24.494 13.0679 24.0385 13.1269C24.0385 13.1269 24.5188 12.8683 25.412 13.1481L25.7834 12.9817C25.7834 12.9817 25.2239 12.8719 25.0595 12.8542C24.895 12.8365 24.8867 12.7916 24.8867 12.7916C25.2419 12.7334 25.6063 12.7742 25.9396 12.9097C25.9396 12.9097 26.7381 12.6228 26.7227 12.5732Z" fill="#5B97FC"/>
<path opacity="0.1" d="M89.9639 25.5097C89.9639 25.5097 85.4686 25.2394 85.9939 28.3868C85.9939 28.3868 85.8886 28.9428 86.3937 29.1955C86.3937 29.1955 86.402 28.9594 86.8551 29.0408C87.0168 29.0679 87.1812 29.0758 87.3448 29.0644C87.5634 29.0484 87.7708 28.9622 87.9363 28.8189V28.8189C87.9363 28.8189 89.2021 28.2971 89.693 26.2334C89.693 26.2334 90.0574 25.7836 90.0479 25.6679L89.2885 25.9914C89.2885 25.9914 89.5475 26.538 89.3441 26.9925C89.3441 26.9925 89.3192 26.0115 89.1737 26.0339C89.1441 26.0339 88.7786 26.224 88.7786 26.224C88.7786 26.224 89.2246 27.1767 88.8886 27.8685C88.8886 27.8685 89.0164 26.695 88.639 26.2924L88.1043 26.6041C88.1043 26.6041 88.626 27.5875 88.2723 28.3903C88.2723 28.3903 88.3634 27.159 87.9919 26.6797L87.5081 27.0575C87.5081 27.0575 87.9978 28.0267 87.6985 28.6926C87.6985 28.6926 87.6595 27.2593 87.4028 27.1507C87.4028 27.1507 86.9793 27.5238 86.9142 27.6773C86.9142 27.6773 87.2502 28.3856 87.042 28.7528C87.042 28.7528 86.9142 27.7977 86.8054 27.793C86.8054 27.793 86.3831 28.4257 86.3393 28.8555C86.3598 28.4547 86.4854 28.0663 86.7036 27.7292C86.4599 27.7753 86.235 27.8914 86.0566 28.0633C86.0566 28.0633 86.1228 27.6159 86.8078 27.5769C86.8078 27.5769 87.1567 27.0964 87.2502 27.0669C87.2502 27.0669 86.5688 27.0102 86.1548 27.1932C86.1548 27.1932 86.5191 26.7718 87.3744 26.9571L87.8476 26.5675C87.8476 26.5675 86.9497 26.4495 86.57 26.5805C86.57 26.5805 87.0077 26.2074 87.9765 26.479L88.4971 26.1685C88.4971 26.1685 87.7317 26.0044 87.2762 26.0634C87.2762 26.0634 87.7565 25.8049 88.6497 26.0847L89.0223 25.9182C89.0223 25.9182 88.4616 25.8084 88.2971 25.7907C88.1327 25.773 88.1244 25.7281 88.1244 25.7281C88.4795 25.6692 88.8441 25.71 89.1773 25.8462C89.1773 25.8462 89.9781 25.5593 89.9639 25.5097Z" fill="#5B97FC"/>
<path opacity="0.1" d="M34.293 32.0174C34.293 32.0174 32.334 27.9645 29.8403 29.9621C29.8403 29.9621 29.302 30.1415 29.3281 30.7046C29.3281 30.7046 29.5351 30.5972 29.683 31.0317C29.7382 31.1852 29.8112 31.3318 29.9006 31.4685C30.0217 31.6537 30.1998 31.7946 30.4081 31.8699C30.4081 31.8699 31.4811 32.7175 33.5265 32.139C33.5265 32.139 34.0978 32.237 34.1913 32.1686L33.5383 31.6645C33.5383 31.6645 33.1834 32.1568 32.6889 32.2004C32.6889 32.2004 33.5359 31.701 33.4448 31.5854C33.4259 31.5617 33.0899 31.3339 33.0899 31.3339C33.0899 31.3339 32.4736 32.1874 31.7047 32.2311C31.7047 32.2311 32.793 31.7707 32.961 31.2453L32.4287 30.9313C32.4287 30.9313 31.8218 31.8663 30.9476 31.949C30.9476 31.949 32.069 31.4283 32.3068 30.8711L31.7413 30.635C31.7413 30.635 31.1321 31.5346 30.4034 31.5995C30.4034 31.5995 31.6384 30.8664 31.6077 30.5889C31.6077 30.5889 31.0741 30.4024 30.9085 30.4201C30.9085 30.4201 30.4566 31.0565 30.0308 31.0565C30.0308 31.0565 30.8032 30.4791 30.7559 30.3859C30.7559 30.3859 29.9964 30.3269 29.5966 30.5039C29.9569 30.3252 30.3578 30.2438 30.7595 30.2678C30.6001 30.0782 30.3888 29.9391 30.1514 29.8676C30.1514 29.8676 30.5749 29.707 30.9428 30.2844C30.9428 30.2844 31.5343 30.354 31.6041 30.4213C31.6041 30.4213 31.3214 29.8003 30.9606 29.53C30.9606 29.53 31.5071 29.6398 31.7567 30.4744L32.3305 30.7011C32.3305 30.7011 32.0004 29.8605 31.6964 29.5949C31.6964 29.5949 32.2358 29.7944 32.4712 30.7755L32.9965 31.0777C32.9965 31.0777 32.7682 30.3304 32.4937 29.9632C32.4937 29.9632 32.9539 30.256 33.1444 31.1698L33.472 31.413C33.472 31.413 33.2946 30.8711 33.2355 30.72C33.1763 30.5689 33.2059 30.5382 33.2059 30.5382C33.4309 30.8185 33.5735 31.1557 33.6176 31.5122C33.6176 31.5122 34.2505 32.0529 34.293 32.0174Z" fill="#5B97FC"/>
<path opacity="0.1" d="M79.6933 19.784C79.6933 19.784 77.7355 15.7311 75.2406 17.7287C75.2406 17.7287 74.7035 17.9081 74.7284 18.4712C74.7284 18.4712 74.9366 18.365 75.0833 18.7983C75.1384 18.9525 75.2119 19.0995 75.3021 19.2363C75.4227 19.4211 75.6005 19.5616 75.8084 19.6365V19.6365C75.8084 19.6365 76.8826 20.4841 78.9268 19.9068C78.9268 19.9068 79.4981 20.0036 79.5928 19.9352L78.9433 19.4299C78.9433 19.4299 78.5884 19.9234 78.0951 19.967C78.0951 19.967 78.941 19.4665 78.8499 19.3508C78.831 19.3272 78.495 19.0993 78.495 19.0993C78.495 19.0993 77.8798 19.9529 77.1097 19.9965C77.1097 19.9965 78.1992 19.5361 78.3672 19.0119L77.8266 18.7003C77.8266 18.7003 77.2209 19.6341 76.3455 19.7179C76.3455 19.7179 77.467 19.1961 77.7059 18.6389L77.1393 18.4028C77.1393 18.4028 76.5301 19.3035 75.8025 19.3673C75.8025 19.3673 77.0364 18.6342 77.0056 18.3579C77.0056 18.3579 76.4733 18.1702 76.3076 18.1891C76.3076 18.1891 75.8558 18.8242 75.4287 18.8242C75.4287 18.8242 76.2024 18.2469 76.155 18.1537C76.155 18.1537 75.3956 18.0946 74.9945 18.2717C75.3548 18.0929 75.7558 18.0115 76.1574 18.0356C75.9987 17.8459 75.7877 17.7067 75.5505 17.6354C75.5505 17.6354 75.9741 17.4748 76.342 18.0521C76.342 18.0521 76.9334 18.123 77.0032 18.1903C77.0032 18.1903 76.7205 17.5681 76.3585 17.2977C76.3585 17.2977 76.9051 17.4087 77.1547 18.2481L77.7296 18.4748C77.7296 18.4748 77.3995 17.633 77.0955 17.3674C77.0955 17.3674 77.635 17.5669 77.8692 18.548L78.3956 18.8502C78.3956 18.8502 78.1661 18.1041 77.8917 17.7357C77.8917 17.7357 78.353 18.0285 78.5423 18.9423L78.87 19.1855C78.87 19.1855 78.6937 18.6436 78.6334 18.4925C78.5731 18.3414 78.6038 18.3119 78.6038 18.3119C78.8282 18.5924 78.9703 18.9296 79.0143 19.2858C79.0143 19.2858 79.6567 19.8218 79.6933 19.784Z" fill="#5B97FC"/>
<path opacity="0.1" d="M85.9508 39.832C85.9508 39.832 83.993 35.7779 81.4945 37.7754C81.4945 37.7754 80.9574 37.9549 80.9823 38.518C80.9823 38.518 81.1905 38.4117 81.3372 38.845C81.3919 38.9992 81.465 39.1462 81.5548 39.283C81.6755 39.4679 81.8532 39.6084 82.0612 39.6832C82.0612 39.6832 83.1353 40.5321 85.1807 39.9536C85.1807 39.9536 85.7509 40.0516 85.8455 39.9819L85.1925 39.4778C85.1925 39.4778 84.8376 39.9713 84.3431 40.015C84.3431 40.015 85.189 39.5144 85.0979 39.3987C85.079 39.3751 84.743 39.1472 84.743 39.1472C84.743 39.1472 84.1278 40.0008 83.3577 40.0457C83.3577 40.0457 84.4472 39.5841 84.6152 39.0599L84.0817 38.7458C84.0817 38.7458 83.476 39.6809 82.6006 39.7635C82.6006 39.7635 83.7221 39.2417 83.961 38.6845L83.3944 38.4483C83.3944 38.4483 82.7852 39.3479 82.0576 39.4129C82.0576 39.4129 83.2927 38.6797 83.2619 38.4023C83.2619 38.4023 82.7284 38.2146 82.5628 38.2335C82.5628 38.2335 82.1108 38.8686 81.6838 38.8686C81.6838 38.8686 82.4575 38.2913 82.4101 38.1981C82.4101 38.1981 81.6507 38.139 81.2496 38.3161C81.6104 38.1375 82.0117 38.0561 82.4137 38.08C82.2547 37.89 82.0433 37.7508 81.8056 37.6798C81.8056 37.6798 82.2292 37.518 82.5971 38.0965C82.5971 38.0965 83.1885 38.1662 83.2583 38.2335C83.2583 38.2335 82.9756 37.6125 82.6148 37.341C82.6148 37.341 83.1613 37.4519 83.411 38.2913L83.9847 38.518C83.9847 38.518 83.6546 37.6762 83.3506 37.4118C83.3506 37.4118 83.8901 37.6101 84.1243 38.5924L84.6507 38.8934C84.6507 38.8934 84.4212 38.1473 84.1468 37.7789C84.1468 37.7789 84.6081 38.0717 84.7986 38.9867L85.1263 39.2228C85.1263 39.2228 84.9488 38.6809 84.8897 38.5298C84.8305 38.3787 84.8601 38.3492 84.8601 38.3492C85.0851 38.6294 85.2272 38.9667 85.2706 39.3231C85.2706 39.3231 85.9141 39.8674 85.9508 39.832Z" fill="#5B97FC"/>
<path opacity="0.1" d="M13.8906 92.5765C15.3926 92.5765 16.6102 92.4407 16.6102 92.2731C16.6102 92.1056 15.3926 91.9697 13.8906 91.9697C12.3885 91.9697 11.1709 92.1056 11.1709 92.2731C11.1709 92.4407 12.3885 92.5765 13.8906 92.5765Z" fill="#5B97FC"/>
<path opacity="0.1" d="M27.4804 96.0009C28.9824 96.0009 30.2001 95.865 30.2001 95.6974C30.2001 95.5299 28.9824 95.394 27.4804 95.394C25.9784 95.394 24.7607 95.5299 24.7607 95.6974C24.7607 95.865 25.9784 96.0009 27.4804 96.0009Z" fill="#5B97FC"/>
<path opacity="0.1" d="M97.123 88.5414C98.625 88.5414 99.8427 88.4055 99.8427 88.238C99.8427 88.0704 98.625 87.9346 97.123 87.9346C95.621 87.9346 94.4033 88.0704 94.4033 88.238C94.4033 88.4055 95.621 88.5414 97.123 88.5414Z" fill="#5B97FC"/>
<path opacity="0.1" d="M74.4902 87.0687C75.9922 87.0687 77.2099 86.9329 77.2099 86.7653C77.2099 86.5978 75.9922 86.4619 74.4902 86.4619C72.9881 86.4619 71.7705 86.5978 71.7705 86.7653C71.7705 86.9329 72.9881 87.0687 74.4902 87.0687Z" fill="#5B97FC"/>
<path opacity="0.1" d="M59.8503 94.2491C61.6267 94.2491 63.0668 94.0023 63.0668 93.6978C63.0668 93.3933 61.6267 93.1465 59.8503 93.1465C58.0739 93.1465 56.6338 93.3933 56.6338 93.6978C56.6338 94.0023 58.0739 94.2491 59.8503 94.2491Z" fill="#5B97FC"/>
<path d="M61.2857 88.1562C61.2857 88.1562 56.8069 90.4654 59.1208 93.1855C59.1208 93.1855 59.3385 93.7758 59.9678 93.7345C59.9678 93.7345 59.8424 93.5054 60.3227 93.3224C60.4936 93.2565 60.656 93.1705 60.8066 93.0663C61.0099 92.9259 61.162 92.7233 61.2395 92.489V92.489C61.2395 92.489 62.1552 91.2659 61.4454 89.0027C61.4454 89.0027 61.5376 88.3628 61.4572 88.259L60.913 89.0039C60.913 89.0039 61.4749 89.3805 61.54 89.9342C61.54 89.9342 60.9485 89.0051 60.8302 89.1078C60.8042 89.129 60.5605 89.5151 60.5605 89.5151C60.5605 89.5151 61.5353 90.175 61.6074 91.0321C61.6074 91.0321 61.0585 89.8315 60.4659 89.6603L60.1263 90.2648C60.1263 90.2648 61.191 90.9117 61.3093 91.8845C61.3093 91.8845 60.6906 90.6508 60.0589 90.4017L59.8093 91.0404C59.8093 91.0404 60.8361 91.6921 60.9308 92.5019C60.9308 92.5019 60.0719 91.1478 59.7632 91.1903C59.7632 91.1903 59.5692 91.7901 59.5952 91.9754C59.5952 91.9754 60.3203 92.4594 60.3334 92.9352C60.3334 92.9352 59.6638 92.0911 59.5609 92.1466C59.5609 92.1466 59.5183 92.9954 59.7241 93.437C59.7241 93.437 59.3692 92.8065 59.4272 92.1466C59.2197 92.3297 59.0705 92.5693 58.9978 92.836C58.9978 92.836 58.805 92.3697 59.4402 91.94C59.4402 91.94 59.5005 91.28 59.5739 91.1986C59.5739 91.1986 58.8866 91.5339 58.5944 91.9447C58.5944 91.9447 58.702 91.332 59.6342 91.0274L59.8708 90.3804C59.8708 90.3804 58.9386 90.7748 58.6512 91.1219C58.6512 91.1219 58.8582 90.5139 59.9442 90.2223L60.2659 89.632C60.2659 89.632 59.4378 89.9106 59.0333 90.2223C59.0333 90.2223 59.3468 89.6993 60.3653 89.4584L60.6267 89.0865C60.6267 89.0865 60.0258 89.3002 59.8578 89.377C59.6898 89.4537 59.6567 89.4159 59.6567 89.4159C59.9638 89.1567 60.3368 88.9875 60.7344 88.9272C60.7344 88.9272 61.3271 88.1964 61.2857 88.1562Z" fill="#5B97FC"/>
<path d="M74.5785 44.5422C73.8048 42.4443 69.5461 42.2471 67.6983 42.7819C66.3852 43.1633 63.617 43.593 62.1383 43.809L62.0425 43.7181C62.2341 43.6615 62.2388 43.5221 62.2152 43.3155C62.2014 43.0433 62.2054 42.7704 62.227 42.4986C63.1332 42.7796 63.94 42.1149 63.94 42.1149C65.0046 41.6427 64.7184 39.6215 64.9218 39.069C65.0744 38.6558 65.2389 36.2214 65.3122 35.0078H65.3276L65.3359 34.6005C65.3465 34.4246 65.3513 34.3219 65.3513 34.3219C65.3513 34.3219 65.4554 31.3539 65.6588 30.753C65.8481 30.2005 66.0019 27.4167 66.0256 26.9751C66.0256 26.9374 66.0256 26.9173 66.0256 26.9173L66.0102 26.6599C66.0208 26.4722 66.0256 26.2633 66.0244 26.0437C66.0244 25.0343 65.9191 23.7628 65.9061 23.5574C65.9061 23.5279 65.9061 23.4924 65.9061 23.4499C65.9144 23.019 65.8599 20.8609 64.0204 20.0451C63.3426 19.7429 62.5275 19.3828 61.7384 19.0322C61.535 17.279 61.0701 15.5353 61.1103 13.7692C61.1103 13.5036 61.1339 13.2379 61.16 12.9735C61.16 13.0502 61.1517 13.1281 61.1505 13.2096C61.1505 13.3808 61.1505 13.5531 61.1505 13.7243C61.2203 11.5155 62.0567 9.29479 61.9786 7.13315C61.9715 7.34447 61.9561 7.55698 61.936 7.76948C61.9768 7.03833 61.9002 6.30536 61.7089 5.59839C61.6379 5.34929 61.5421 5.09193 61.3374 4.92546C61.144 4.7914 60.9221 4.70373 60.6891 4.66928C60.1294 4.52628 59.5607 4.42059 58.9868 4.35288C58.8996 4.08651 58.7702 3.83581 58.6035 3.6103C57.404 1.96693 55.6272 0.422734 53.5262 0.0685605C52.4722 -0.108526 51.2596 0.0390459 50.5427 0.791075C50.4678 0.857139 50.3975 0.928132 50.3321 1.00358C49.9465 1.46282 49.7809 2.0661 49.3858 2.52417C49.3597 2.55486 49.3302 2.5832 49.3018 2.61271C48.5281 3.30335 47.3226 3.44738 46.4626 4.06718C46.3111 4.17845 46.169 4.30204 46.0379 4.4367C45.6914 4.77942 45.3806 5.15638 45.1105 5.5618C44.7236 6.10486 44.3261 6.67036 44.2031 7.3185C43.9559 8.61714 44.8419 9.84848 45.0064 11.1554C45.3731 14.0797 42.1305 16.6746 42.7445 19.5599C42.9083 20.2688 43.2701 20.9168 43.7879 21.4288C42.5233 22.5716 41.4468 23.6802 41.4468 23.6802V23.7463H41.2468L41.267 23.9824H41.2468L41.3569 25.2633L41.2468 27.1286C41.2468 27.1286 41.2468 27.1487 41.2468 27.1865V27.1959V27.2467C41.2468 27.2467 41.2468 27.2668 41.2468 27.3045H41.2539C41.2906 27.9881 41.4361 30.4461 41.6088 30.9643C41.8123 31.5652 41.9152 34.5332 41.9152 34.5332C41.9152 34.5332 42.14 38.7278 42.3458 39.2827C42.5517 39.8376 42.2595 41.8528 43.3277 42.3286C43.6402 42.5678 44.0102 42.7209 44.4007 42.7725C44.3463 43.214 44.3806 43.534 44.5568 43.6343C44.6323 43.6786 44.7178 43.7029 44.8052 43.7051C44.7328 43.8124 44.6683 43.9249 44.6124 44.0416C44.1884 43.9974 43.7718 43.8994 43.3727 43.75C42.2252 43.2778 38.4172 42.2152 37.3111 42.9626C36.205 43.7099 33.5433 44.3875 34.7724 47.3956C36.0015 50.4037 36.5741 50.4793 36.5741 50.4793C36.9524 50.7534 37.2843 51.0862 37.5571 51.4651C37.9262 52.0188 41.3651 53.2855 42.2252 53.2855C42.5907 53.2799 42.9562 53.2981 43.3194 53.3398C43.3194 53.3398 42.3861 54.1568 42.5103 54.6314C42.6345 55.106 42.2263 58.9051 42.2263 58.9051C42.2263 58.9051 43.1727 59.8566 43.5773 58.6088L43.5915 58.6277C43.6672 58.7304 44.0765 59.1943 44.8467 58.6088C45.1618 58.3701 45.4966 58.1585 45.8475 57.976L49.5762 57.4494C49.965 57.4252 50.3548 57.4224 50.7438 57.4412C51.3353 57.4896 51.9161 57.1401 52.2817 56.8698C53.0542 57.1626 53.9225 57.4825 54.3353 57.5994C55.1729 57.8355 59.0223 58.8661 59.9226 58.5438C60.1097 58.4696 60.2761 58.3513 60.4076 58.1991L61.2664 58.2263L60.8642 58.3065C60.8642 58.3065 61.6473 58.3195 62.712 58.3337L62.6671 58.3597L64.0027 58.3479C65.957 58.3656 68.1526 58.3715 68.4412 58.3065C68.8931 58.2062 71.2413 58.277 71.9334 58.3065H72.1262C72.1262 58.3065 74.7063 57.793 73.6416 55.1804C72.823 53.1734 70.3068 52.5902 69.19 52.4296C69.5047 52.367 69.7756 52.3186 69.9554 52.2903C70.735 52.1723 72.2492 51.4639 72.3723 51.2219C72.4953 50.9799 73.7646 50.2774 74.0923 49.8772C74.42 49.477 75.3557 46.6401 74.5785 44.5422ZM53.208 50.4132L53.0814 50.4545L52.9962 50.4828L52.833 50.6434C52.7028 50.556 52.5632 50.464 52.4177 50.3695C52.6744 50.3849 52.9382 50.4002 53.208 50.4132Z" fill="url(#paint0_linear)"/>
<path d="M60.75 37.9654C60.75 37.9654 62.56 42.6877 63.5891 42.2154C64.6183 41.7432 64.3392 39.7362 64.5355 39.1861C64.7319 38.6359 64.9496 34.4638 64.9496 34.4638C64.9496 34.4638 65.0489 31.5123 65.2453 30.9149C65.4275 30.366 65.5754 27.5975 65.6002 27.1619C65.6002 27.1241 65.6002 27.104 65.6002 27.104L65.405 23.6803L64.3001 23.4053L61.7378 24.3497L61.3829 26.3721L61.2445 27.1619L61.1853 27.4983L60.75 37.9654Z" fill="#BE6F72"/>
<path opacity="0.1" d="M61.3467 37.1743C61.3467 37.1743 63.0738 38.5851 63.5943 38.7091C64.1149 38.833 64.4343 39.9333 64.4343 39.9333" fill="black"/>
<path d="M46.5963 38.1714C46.5963 38.1714 44.7864 42.8937 43.7572 42.4215C42.728 41.9493 43.0072 39.9423 42.8108 39.3921C42.6144 38.842 42.3967 34.6698 42.3967 34.6698C42.3967 34.6698 42.2974 31.7184 42.101 31.121C41.9188 30.572 41.7709 27.8036 41.7461 27.3679C41.7461 27.3302 41.7461 27.3101 41.7461 27.3101L41.9425 23.8864L43.0474 23.6113L45.6097 24.5558L45.9646 26.5781L46.103 27.3679L46.1622 27.7044L46.5963 38.1714Z" fill="#BE6F72"/>
<path d="M58.3826 12.8999H54.3428V19.1841H58.3826V12.8999Z" fill="#3E373A"/>
<path opacity="0.1" d="M58.3826 12.8999H54.3428V19.1841H58.3826V12.8999Z" fill="black"/>
<path d="M45.8866 42.8752C45.8866 42.8752 44.506 44.3899 45.0183 44.665C45.5305 44.94 48.844 50.0956 48.844 50.0956C48.844 50.0956 59.7274 51.4332 61.7799 49.4262C63.8324 47.4192 63.791 43.8338 63.791 43.8338C63.791 43.8338 62.1419 44.188 61.9621 43.9956C61.7823 43.8031 60.7945 42.8752 60.7945 42.8752C60.7945 42.8752 46.833 42.0299 45.8866 42.8752Z" fill="#4B4B5B"/>
<path opacity="0.02" d="M45.8866 42.8752C45.8866 42.8752 44.506 44.3899 45.0183 44.665C45.5305 44.94 48.844 50.0956 48.844 50.0956C48.844 50.0956 59.7274 51.4332 61.7799 49.4262C63.8324 47.4192 63.791 43.8338 63.791 43.8338C63.791 43.8338 62.1419 44.188 61.9621 43.9956C61.7823 43.8031 60.7945 42.8752 60.7945 42.8752C60.7945 42.8752 46.833 42.0299 45.8866 42.8752Z" fill="black"/>
<path d="M65.479 23.7296L61.9301 26.563L60.8571 26.6409L60.4632 26.6693L53.8467 27.1533L46.9854 26.6527L45.9645 26.5784L44.6632 26.4839L41.9424 23.8866C41.9424 23.8866 43.8683 21.8277 45.5552 20.4382C46.2201 19.8892 46.8482 19.4453 47.306 19.2706L47.3841 19.2434C47.6721 19.1313 47.9292 18.9525 48.1341 18.7216C49.4662 17.351 50.6976 13.9686 50.6976 13.9686C50.6976 13.9686 56.5735 10.9392 55.8637 14.9131C55.1539 18.8869 58.5053 17.9046 58.5053 17.9046L59.6102 18.4076L60.0467 18.6071L61.1599 19.1159L63.6714 20.2658C65.6423 21.1713 65.479 23.7296 65.479 23.7296Z" fill="#BE6F72"/>
<path opacity="0.1" d="M53.5715 17.2045C56.49 17.2045 58.8559 14.8434 58.8559 11.9309C58.8559 9.01832 56.49 6.65723 53.5715 6.65723C50.653 6.65723 48.2871 9.01832 48.2871 11.9309C48.2871 14.8434 50.653 17.2045 53.5715 17.2045Z" fill="black"/>
<path opacity="0.1" d="M65.4873 27.4862H41.7461C41.7461 27.4484 41.7461 27.4284 41.7461 27.4284L41.9425 24.0047C41.9425 24.0047 43.8684 21.9458 45.5553 20.5562L60.4608 19.9659L61.1541 19.2363L63.6655 20.3862C65.6376 21.2905 65.479 23.8488 65.479 23.8488C65.479 23.8488 65.7488 26.8133 65.4873 27.4862Z" fill="black"/>
<path d="M65.4873 27.3681H41.7461C41.7461 27.3303 41.7461 27.3102 41.7461 27.3102L41.9425 23.8865C41.9425 23.8865 43.8684 21.8276 45.5553 20.4381L60.4608 19.8478L61.1541 19.1182L63.6655 20.2681C65.6376 21.1724 65.479 23.7307 65.479 23.7307C65.479 23.7307 65.7488 26.6951 65.4873 27.3681Z" fill="#E7C7CA"/>
<path opacity="0.1" d="M49.7658 17.7678C49.7658 17.7678 53.5111 22.5303 58.4998 17.6698C63.4884 12.8094 59.0522 28.5111 59.0522 28.5111L48.2871 29.7861L49.7658 17.7678Z" fill="black"/>
<path d="M49.7658 18.0037C49.7658 18.0037 53.5111 22.7661 58.4998 17.9057C63.4884 13.0452 59.0522 28.7469 59.0522 28.7469L48.2871 30.022L49.7658 18.0037Z" fill="#E7C7CA"/>
<path opacity="0.1" d="M60.0403 18.8393L60.4366 24.8709L60.8613 26.8779L61.1854 28.4126C61.1854 28.4126 62.0135 40.2184 61.7769 40.8087C61.5403 41.399 61.8952 41.8713 61.9449 42.1853C61.9946 42.4993 61.8952 43.288 61.9343 43.6421C61.9733 43.9963 61.9343 44.1533 61.0281 44.027C60.1219 43.9007 58.8585 43.6811 58.8585 43.6811C58.8585 43.6811 55.6645 43.9172 54.5608 43.5241C53.457 43.1309 51.3667 43.1298 51.3667 43.1298C51.3667 43.1298 48.2117 43.2089 47.1872 43.0908C46.1628 42.9727 45.6091 44.3505 44.9396 43.9562C44.27 43.5618 45.7274 39.7462 46.2006 38.6436C46.6738 37.5409 45.5701 34.7476 45.5701 34.7476L46.9897 26.8885L47.3055 25.107V19.5064L47.3836 19.4792C47.6716 19.3671 47.9287 19.1883 48.1336 18.9574L48.4885 24.5935L59.6085 24.9878V18.6445" fill="black"/>
<path d="M60.0403 18.6035L60.4366 24.6351L60.8613 26.6421L61.1854 28.1768C61.1854 28.1768 62.0135 39.9826 61.7769 40.5729C61.5403 41.1632 61.8952 41.6354 61.9449 41.9495C61.9946 42.2635 61.8952 43.0521 61.9343 43.4063C61.9733 43.7605 61.9343 43.9175 61.0281 43.7912C60.1219 43.6648 58.8585 43.4452 58.8585 43.4452C58.8585 43.4452 55.6645 43.6814 54.5608 43.2882C53.457 42.8951 51.3667 42.8939 51.3667 42.8939C51.3667 42.8939 48.2117 42.973 47.1872 42.855C46.1628 42.7369 45.6091 44.1146 44.9396 43.7203C44.27 43.326 45.7274 39.5104 46.2006 38.4077C46.6738 37.305 45.5701 34.5118 45.5701 34.5118L46.9897 26.6527L47.3055 24.8712V19.2705L47.3836 19.2434C47.6716 19.1313 47.9287 18.9524 48.1336 18.7215L48.4885 24.3576L59.6085 24.7519V18.4087" fill="#E7C7CA"/>
<path opacity="0.1" d="M61.3195 6.01657C61.2521 5.76983 61.1587 5.51364 60.9647 5.34836C60.7794 5.21561 60.5654 5.12825 60.34 5.09336C59.8005 4.95176 59.2519 4.84684 58.6981 4.77932C58.6189 4.51718 58.4992 4.269 58.3432 4.04382C57.1838 2.4099 55.4685 0.869244 53.4503 0.520973C52.3939 0.337984 51.1696 0.502084 50.4929 1.33321C50.1214 1.7901 49.9617 2.39573 49.5867 2.84435C48.8639 3.71562 47.5591 3.82305 46.6482 4.49716C46.162 4.85134 45.8095 5.36489 45.4652 5.86309C45.0926 6.40262 44.7093 6.96458 44.591 7.60917C44.3544 8.89718 45.2073 10.125 45.3647 11.4248C45.7196 14.3326 42.5965 16.9121 43.1868 19.7809C43.531 21.4538 45.0796 22.632 46.6813 23.2294C47.2456 23.4407 47.8903 23.6509 48.1541 24.1916C48.2724 24.4277 48.2925 24.7004 48.4037 24.9389C48.7776 25.7346 50.0067 25.7653 50.6668 25.1856C51.3269 24.606 51.5351 23.6686 51.6132 22.7938C51.9302 18.9734 50.3971 15.1991 50.5757 11.3693C50.6289 10.2112 50.9554 8.89718 51.9953 8.37301C53.3947 7.66466 55.0781 8.84524 56.6184 8.61975C57.3472 10.3896 57.502 12.3429 57.0608 14.2051C56.8159 15.2239 56.3924 16.2121 56.3617 17.2628C56.3155 18.8625 57.1803 20.324 57.9279 21.7383C58.0884 22.0028 58.1956 22.2959 58.2438 22.6013C58.2556 22.9112 58.1978 23.2198 58.0746 23.5045C57.6523 24.639 56.9236 25.6921 56.8408 26.8998C56.8165 27.0408 56.8483 27.1857 56.9295 27.3036C57.0128 27.3823 57.1204 27.4306 57.2347 27.4405C58.5123 27.659 59.6172 26.5291 60.2407 25.3946C60.9357 24.1415 61.3408 22.749 61.426 21.3192C61.555 18.9156 60.6914 16.5509 60.7446 14.1449C60.8061 11.4095 62.0447 8.65516 61.3195 6.01657Z" fill="black"/>
<path d="M61.4377 5.89841C61.3703 5.65166 61.2768 5.39548 61.0828 5.2302C60.8975 5.09744 60.6835 5.01008 60.4582 4.97519C59.9186 4.83359 59.37 4.72868 58.8162 4.66116C58.7371 4.39901 58.6173 4.15084 58.4613 3.92566C57.302 2.29174 55.5867 0.75108 53.5685 0.402809C52.5121 0.219819 51.2877 0.38392 50.611 1.21505C50.2396 1.67193 50.0799 2.27757 49.7049 2.72619C48.9821 3.59746 47.6773 3.70489 46.7664 4.379C46.2802 4.73317 45.9276 5.24673 45.5834 5.74493C45.2107 6.28446 44.8275 6.84641 44.7092 7.49101C44.4726 8.77902 45.3255 10.0068 45.4828 11.3066C45.8377 14.2144 42.7146 16.794 43.305 19.6628C43.6492 21.3357 45.1977 22.5139 46.7995 23.1113C47.3638 23.3226 48.0085 23.5327 48.2723 24.0734C48.3906 24.3095 48.4107 24.5823 48.5219 24.8207C48.8957 25.6164 50.1248 25.6471 50.7849 25.0675C51.445 24.4878 51.6532 23.5504 51.7313 22.6756C52.0484 18.8553 50.5152 15.081 50.6939 11.2512C50.7471 10.093 51.0736 8.77902 52.1134 8.25484C53.5129 7.54649 55.1963 8.72707 56.7365 8.50158C57.4654 10.2714 57.6201 12.2247 57.179 14.0869C56.9341 15.1057 56.5106 16.0939 56.4798 17.1446C56.4337 18.7443 57.2984 20.2058 58.0461 21.6202C58.2065 21.8847 58.3138 22.1778 58.3619 22.4832C58.3737 22.7931 58.3159 23.1016 58.1928 23.3863C57.7704 24.5209 57.0417 25.5739 56.9589 26.7817C56.9346 26.9227 56.9665 27.0675 57.0476 27.1854C57.131 27.2641 57.2385 27.3124 57.3528 27.3224C58.6305 27.5408 59.7354 26.411 60.3588 25.2764C61.0539 24.0234 61.4589 22.6308 61.5441 21.2011C61.6731 18.7974 60.8095 16.4327 60.8627 14.0267C60.9243 11.2913 62.1628 8.537 61.4377 5.89841Z" fill="#3E373A"/>
<path d="M58.8252 58.171L63.5181 58.3209L62.845 54.8477L59.2499 55.1888L58.8252 58.171Z" fill="#C3C7D9"/>
<path d="M73.3654 49.9385C73.0496 50.3317 71.8276 51.04 71.7093 51.2761C71.591 51.5122 70.1324 52.2206 69.3823 52.3386C68.6323 52.4567 66.2676 52.9691 65.8334 53.2442C65.5223 53.4425 63.025 54.0706 61.3842 54.4188C60.9398 54.5238 60.49 54.6045 60.0368 54.6608C59.327 54.6998 51.5596 52.0636 51.5596 52.0636L53.0572 50.5288L53.14 50.5005C53.5635 50.3576 55.5202 49.6977 56.6062 49.3837C57.8294 49.0295 59.2489 47.5738 59.2489 47.5738C59.2489 47.5738 61.3381 46.8655 61.6149 46.7864C61.8917 46.7073 60.9051 44.0321 60.9051 44.0321C60.9051 44.0321 65.4395 43.404 67.2139 42.8716C68.9884 42.3391 73.0898 42.5363 73.8386 44.6224C74.5875 46.7085 73.686 49.5454 73.3654 49.9385Z" fill="#4B4B5B"/>
<path d="M52.7026 56.5885C52.7026 56.5885 51.7964 57.5329 50.8891 57.455C49.9818 57.3771 46.809 57.6911 46.809 57.6911C46.234 57.92 45.6956 58.2314 45.2108 58.6155C44.4691 59.1987 44.0751 58.7336 44.0018 58.6344L43.9888 58.6155C43.5937 59.8563 42.6875 58.9107 42.6875 58.9107C42.6875 58.9107 43.0814 55.1328 42.9608 54.6606C42.8401 54.1884 43.7403 53.3773 43.7403 53.3773L44.805 53.1069L47.5022 52.4175L51.367 53.7551L52.7026 56.5885Z" fill="#E7C7CA"/>
<path opacity="0.1" d="M44.8003 53.1074L44.0018 58.6349L43.9888 58.616C43.5937 59.8568 42.6875 58.9111 42.6875 58.9111C42.6875 58.9111 43.0814 55.1333 42.9608 54.6611C42.8401 54.1888 43.7404 53.3778 43.7404 53.3778L44.8003 53.1074Z" fill="black"/>
<path opacity="0.1" d="M50.3818 37.3843C50.3818 37.3843 52.471 38.0926 54.2857 37.3843Z" fill="black"/>
<path opacity="0.1" d="M57.5137 38.7231C57.5137 38.7231 58.3808 39.1553 59.0516 38.7231Z" fill="black"/>
<path opacity="0.1" d="M57.5137 39.7477C57.5137 39.7477 58.9723 39.9425 59.2491 39.5493Z" fill="black"/>
<path opacity="0.1" d="M57.041 41.9494C57.041 41.9494 59.7808 41.5953 60.461 41.123Z" fill="black"/>
<path opacity="0.1" d="M48.6807 41.123C48.6807 41.123 50.2185 41.9884 51.3625 41.9494Z" fill="black"/>
<path opacity="0.1" d="M61.3833 54.4188C60.9388 54.5238 60.489 54.6046 60.0358 54.6609C59.326 54.6998 51.5586 52.0636 51.5586 52.0636L53.0562 50.5288L53.1391 50.5005C53.3757 50.667 53.5697 50.8098 53.7081 50.9184C54.3599 51.4308 54.9892 50.7614 55.2258 50.7614C55.4624 50.7614 57.5125 52.4532 57.5125 52.4532C57.5125 52.4532 59.4053 52.8864 59.7212 53.2796C60.037 53.6727 61.1407 53.5948 61.3371 53.8699C61.3963 53.9549 61.4034 54.1638 61.3833 54.4188Z" fill="black"/>
<path d="M46.809 44.1926C46.809 44.1926 44.8949 44.3023 43.7912 43.8384C42.6875 43.3744 39.0202 42.3036 37.9555 43.0557C36.8909 43.8077 34.3273 44.4723 35.5103 47.4639C36.6933 50.4555 37.2458 50.5334 37.2458 50.5334C37.6118 50.8074 37.9313 51.1382 38.1921 51.5133C38.547 52.0647 41.8594 53.3232 42.6875 53.3232C43.5156 53.3232 44.9742 53.3232 47.0243 54.7398C49.0744 56.1565 50.9281 56.3147 50.9281 56.3147C50.9281 56.3147 53.5307 57.3773 54.341 57.6134C55.1514 57.8495 58.8541 58.8719 59.7224 58.5578C60.5907 58.2438 61.142 56.2746 61.142 56.2746C61.142 56.2746 61.5359 54.5037 61.3384 54.2287C61.1408 53.9536 60.0371 54.0315 59.7224 53.6384C59.4077 53.2452 57.5138 52.812 57.5138 52.812C57.5138 52.812 55.4684 51.119 55.2318 51.119C54.9952 51.119 54.3659 51.7872 53.714 51.276C52.4156 50.3163 51.0515 49.4484 49.6316 48.6788C48.1339 47.8913 46.809 44.1926 46.809 44.1926Z" fill="#4B4B5B"/>
<path opacity="0.1" d="M42.9609 45.3342C43.3017 45.2647 43.654 45.2747 43.9903 45.3634C44.3266 45.452 44.6379 45.617 44.8998 45.8454C45.8462 46.6328 49.0308 48.2136 49.0308 48.2136" fill="black"/>
<path opacity="0.1" d="M66.6228 45.2847C66.6228 45.2847 62.4031 45.9222 61.6152 46.7875Z" fill="black"/>
<path d="M71.4733 58.3204H71.2876C70.6204 58.2968 68.3597 58.2259 67.9244 58.3204C67.4121 58.4384 60.6289 58.3204 60.6289 58.3204L61.955 58.0453C61.955 58.0453 61.4629 56.324 61.7752 56.1812C61.7752 56.1812 60.0007 55.0148 61.3387 54.2273C62.6766 53.4399 64.1187 53.7716 64.1187 53.7716L67.4772 52.6359L68.1219 52.4175C68.1219 52.4175 71.9075 52.6146 72.9319 55.2119C73.9564 57.8092 71.4733 58.3204 71.4733 58.3204Z" fill="#E7C7CA"/>
<path opacity="0.1" d="M71.4737 58.3208H71.2879C72.3893 57.4141 74.8806 54.6539 67.4775 52.6422L68.1223 52.4238C68.1223 52.4238 71.9078 52.621 72.9323 55.2183C73.9567 57.8155 71.4737 58.3208 71.4737 58.3208Z" fill="black"/>
<path d="M64.5137 55.2609C64.628 55.2609 64.7207 55.1684 64.7207 55.0543C64.7207 54.9402 64.628 54.8477 64.5137 54.8477C64.3993 54.8477 64.3066 54.9402 64.3066 55.0543C64.3066 55.1684 64.3993 55.2609 64.5137 55.2609Z" fill="#4B4B5B"/>
<path d="M63.3105 55.6017C63.4249 55.6017 63.5176 55.5092 63.5176 55.3951C63.5176 55.281 63.4249 55.1885 63.3105 55.1885C63.1962 55.1885 63.1035 55.281 63.1035 55.3951C63.1035 55.5092 63.1962 55.6017 63.3105 55.6017Z" fill="#4B4B5B"/>
<g opacity="0.1">
<path opacity="0.1" d="M57.4483 11.7362C57.4941 10.4376 57.2627 9.14422 56.7692 7.9418C55.2314 8.17083 53.5468 6.98671 52.1461 7.69506C51.1098 8.21924 50.7845 9.53322 50.7266 10.6914C50.7124 10.9971 50.71 11.3029 50.7159 11.6087C50.7159 11.5001 50.7159 11.3903 50.7266 11.2817C50.781 10.1235 51.1063 8.80953 52.1461 8.28535C53.5468 7.577 55.229 8.75758 56.7692 8.53209C57.1871 9.55058 57.4172 10.6361 57.4483 11.7362V11.7362Z" fill="black"/>
<path opacity="0.1" d="M45.5309 11.5199C45.5512 11.2627 45.546 11.0041 45.5155 10.7478C45.3901 9.70893 44.8211 8.71606 44.7182 7.70312C44.5857 8.92502 45.3653 10.0985 45.5155 11.3381C45.5309 11.4019 45.5309 11.4585 45.5309 11.5199Z" fill="black"/>
<path opacity="0.1" d="M51.7644 22.1147C51.6911 22.9907 51.4841 23.9269 50.818 24.5077C50.152 25.0885 48.9253 25.0567 48.555 24.261C48.4367 24.0248 48.419 23.7498 48.3042 23.5137C48.0416 22.9729 47.3957 22.7628 46.8314 22.5515C45.2285 21.9529 43.6823 20.7806 43.3381 19.103C43.3073 18.951 43.2864 18.7972 43.2754 18.6426C43.2463 18.994 43.2674 19.3478 43.3381 19.6933C43.6823 21.3662 45.2308 22.5432 46.8314 23.1418C47.3957 23.3531 48.0416 23.5632 48.3042 24.1039C48.4225 24.3401 48.4426 24.6128 48.555 24.8512C48.9276 25.647 50.1568 25.6777 50.818 25.098C51.4793 24.5183 51.6852 23.5809 51.7644 22.705C51.8005 22.2439 51.8127 21.7813 51.8011 21.319C51.8011 21.5869 51.7857 21.8514 51.7644 22.1147Z" fill="black"/>
<path opacity="0.1" d="M60.9014 13.467C60.9014 13.6382 60.9014 13.8082 60.9014 13.9782C60.9676 11.7823 61.7744 9.57464 61.6951 7.4248C61.6336 9.4129 60.9463 11.4459 60.9014 13.467Z" fill="black"/>
<path opacity="0.1" d="M58.3634 22.3499C58.3925 22.2098 58.4017 22.0663 58.3906 21.9237C58.343 21.6181 58.2357 21.3249 58.0748 21.0607C57.391 19.762 56.6114 18.4327 56.5191 16.9912C56.5191 17.0526 56.5109 17.1093 56.5097 17.1754C56.4624 18.7739 57.3271 20.2366 58.0748 21.651C58.2019 21.87 58.2989 22.1051 58.3634 22.3499V22.3499Z" fill="black"/>
<path opacity="0.1" d="M61.5822 20.6414C61.4939 22.0717 61.0861 23.4641 60.3886 24.7167C59.764 25.8513 58.6603 26.9811 57.3815 26.7627C57.2669 26.7528 57.1592 26.7041 57.0763 26.6246C57.0522 26.5975 57.0334 26.5663 57.0207 26.5325C57.0065 26.6246 56.9946 26.7178 56.9875 26.8123C56.9631 26.9529 56.9949 27.0975 57.0763 27.2149C57.1592 27.2944 57.2669 27.3431 57.3815 27.353C58.6603 27.5714 59.764 26.4416 60.3886 25.307C61.0861 24.0544 61.4939 22.662 61.5822 21.2317C61.5964 20.9554 61.5976 20.6803 61.5893 20.4053C61.587 20.4844 61.587 20.5623 61.5822 20.6414Z" fill="black"/>
</g>
<path opacity="0.1" d="M61.7744 56.1812C61.7744 56.1812 64.7685 57.435 66.7429 54.6606" stroke="black" stroke-miterlimit="10"/>
<path opacity="0.1" d="M62.3643 58.3727C62.3643 58.3727 64.8095 56.786 67.9243 58.3207" stroke="black" stroke-miterlimit="10"/>
<path opacity="0.1" d="M45.9971 58.0124C45.9971 58.0124 47.0239 55.7008 49.766 57.4634" stroke="black" stroke-miterlimit="10"/>
<path opacity="0.1" d="M42.667 23.8279L44.7609 21.9389C44.7609 21.9389 52.8797 21.4077 53.2156 24.162C53.2156 24.162 56.0938 20.8965 62.1471 21.6237L64.7083 23.659L57.6293 26.7592L50.7503 29.1405L45.6836 26.8773L42.667 23.8279Z" fill="black"/>
<path d="M42.667 23.9455L44.7609 22.0566C44.7609 22.0566 52.8797 21.5253 53.2156 24.2796C53.2156 24.2796 56.0938 21.0142 62.1471 21.7414L64.7083 23.7767L57.6293 26.8769L50.7503 29.2581L45.6836 26.995L42.667 23.9455Z" fill="#D5D6DB"/>
<path opacity="0.1" d="M41.7412 24.1816L42.6675 35.2401L52.4862 35.7324L52.0603 24.7212L52.0521 24.5358L41.7412 24.1816Z" fill="black"/>
<path d="M41.7412 23.9458L42.6675 35.0043L52.4862 35.4966L52.0603 24.4853L52.0521 24.3L41.7412 23.9458Z" fill="#FBA536"/>
<path opacity="0.1" d="M65.158 23.9458L55.0293 25.4617V36.5697L64.9273 35.1424L65.158 23.9458Z" fill="black"/>
<path d="M65.158 23.7095L55.0293 25.2253V36.3334L64.9273 34.9061L65.158 23.7095Z" fill="#FBA536"/>
<path opacity="0.3" d="M62.7701 26.4199L57.2988 27.0267L57.4183 28.8873L62.7666 28.3041L62.7701 26.4199Z" fill="white"/>
<path d="M43.1997 40.9261L43.7569 42.4219C43.7569 42.4219 44.5849 43.1303 45.4911 42.7761C46.3973 42.4219 47.1875 42.246 47.5814 41.9013C47.9754 41.5566 48.5278 39.8246 48.5278 39.8246C48.5278 39.8246 49.0803 37.9357 49.6315 37.4635C50.1828 36.9912 51.6426 30.4851 49.6315 31.1214C47.6205 31.7577 46.0826 37.6606 46.0826 37.6606C46.0826 37.6606 45.7277 38.0927 45.2155 38.1329C44.7032 38.173 43.6776 38.0538 43.48 38.487C43.2825 38.9203 42.6082 40.0608 43.1997 40.9261Z" fill="#BE6F72"/>
<path opacity="0.1" d="M55.03 25.4602C54.5115 25.5769 53.9727 25.5708 53.4569 25.4424C52.9412 25.3141 52.4626 25.0671 52.0596 24.7212L52.4866 35.7313C52.4866 35.7313 53.4922 36.8174 55.03 36.5695V25.4602Z" fill="black"/>
<path d="M55.03 25.2244C54.5115 25.341 53.9727 25.3349 53.4569 25.2066C52.9412 25.0783 52.4626 24.8313 52.0596 24.4854L52.4866 35.4954C52.4866 35.4954 53.4922 36.5816 55.03 36.3336V25.2244Z" fill="#E39631"/>
<path opacity="0.1" d="M55.03 25.2244C54.5115 25.341 53.9727 25.3349 53.4569 25.2066C52.9412 25.0783 52.4626 24.8313 52.0596 24.4854L52.4866 35.4954C52.4866 35.4954 53.4922 36.5816 55.03 36.3336V25.2244Z" fill="#FBA536"/>
<path opacity="0.1" d="M55.2666 23.9836C55.2666 23.9836 59.3869 22.7262 60.4611 22.9033Z" fill="black"/>
<path opacity="0.1" d="M50.658 23.4348C50.658 23.4348 46.6643 22.4903 45.9971 22.7583Z" fill="black"/>
<path opacity="0.1" d="M57.8643 24.1406C57.8643 24.1406 60.6194 23.1324 61.6155 23.6117Z" fill="black"/>
<path opacity="0.1" d="M56.4756 49.4321C56.9025 49.1122 57.357 48.8305 57.8336 48.5904C58.5434 48.2492 59.8447 47.3638 59.8447 47.3638" fill="black"/>
<path opacity="0.1" d="M45.9968 37.3843C45.9968 37.3843 44.2684 38.7951 43.7491 38.919C43.2298 39.043 42.9092 40.1433 42.9092 40.1433" fill="black"/>
<path d="M64.1424 40.716L63.5911 42.2153C63.5911 42.2153 62.763 42.9237 61.8557 42.5695C60.9483 42.2153 60.1605 42.0394 59.7653 41.6947C59.3702 41.35 58.8189 39.6181 58.8189 39.6181C58.8189 39.6181 58.2677 37.7292 57.7152 37.2569C57.1628 36.7847 55.7042 30.2785 57.7152 30.9149C59.7263 31.5512 61.2642 37.4541 61.2642 37.4541C61.2642 37.4541 61.6191 37.8862 62.1313 37.9263C62.6435 37.9664 63.6692 37.8472 63.8667 38.2805C64.0643 38.7138 64.7339 39.8542 64.1424 40.716Z" fill="#BE6F72"/>
<path opacity="0.1" d="M63.1758 37.958C63.1758 37.958 64.3055 38.6829 64.3008 39.5494Z" fill="black"/>
<path d="M53.59 16.9457C56.5085 16.9457 58.8744 14.5846 58.8744 11.6721C58.8744 8.75953 56.5085 6.39844 53.59 6.39844C50.6716 6.39844 48.3057 8.75953 48.3057 11.6721C48.3057 14.5846 50.6716 16.9457 53.59 16.9457Z" fill="#BE6F72"/>
<path d="M50.2719 10.2572C50.9131 10.1568 51.475 9.78496 52.0878 9.57127C53.4589 9.09077 54.9754 9.42016 56.3631 9.85343C56.8954 10.0199 57.436 10.2076 57.9944 10.2076C58.5528 10.2076 59.1454 9.97975 59.4305 9.49926C59.6932 9.05772 59.6423 8.48396 59.4211 8.01999C59.1999 7.55602 58.8296 7.18296 58.4558 6.83115C57.2255 5.67182 55.6994 4.58804 54.0113 4.7061C53.3323 4.75451 52.6828 4.99652 52.0582 5.26452C51.2717 5.60275 50.5062 5.98752 49.7656 6.41676C49.1966 6.74614 48.1425 7.1865 47.8149 7.7886C47.0696 9.14508 49.1126 10.439 50.2719 10.2572Z" fill="#3E373A"/>
<path opacity="0.1" d="M59.4301 9.00289C59.145 9.48339 58.5523 9.71124 57.9939 9.71124C57.4356 9.71124 56.8949 9.53061 56.3614 9.36415C54.9738 8.93087 53.4584 8.60031 52.0861 9.08199C51.4745 9.29567 50.9114 9.67228 50.2702 9.76673C49.3357 9.91312 47.8309 9.10088 47.6677 8.06787C47.4843 9.26144 49.2292 10.2838 50.2702 10.1209C50.9114 10.0205 51.4745 9.64867 52.0861 9.43616C53.4584 8.95449 54.9738 9.28505 56.3614 9.71832C56.8949 9.88478 57.4344 10.0725 57.9939 10.0654C58.5535 10.0583 59.145 9.83874 59.4301 9.35706C59.5778 9.09503 59.636 8.79205 59.5957 8.49406C59.5772 8.67347 59.5208 8.84691 59.4301 9.00289Z" fill="black"/>
</g>
<defs>
<linearGradient id="paint0_linear" x1="54.6666" y1="59.2557" x2="54.6666" y2="8.65207e-05" gradientUnits="userSpaceOnUse">
<stop stop-color="#808080" stop-opacity="0.25"/>
<stop offset="0.54" stop-color="#808080" stop-opacity="0.12"/>
<stop offset="1" stop-color="#808080" stop-opacity="0.1"/>
</linearGradient>
<clipPath id="clip0">
<rect width="121" height="96" fill="white"/>
</clipPath>
</defs>
</svg>
