<svg width="30" height="30" viewBox="0 0 30 30" fill="none" xmlns="http://www.w3.org/2000/svg">
<g clip-path="url(#clip0)">
<path d="M8.58105 25.0415H19.1272V26.0002H8.58105V25.0415Z" fill="#46484B"/>
<path d="M8.72761 12.5778H10.9428L6.29589 4.52734L5.7215 4.85808L4.63379 5.48655L8.72761 12.5778Z" fill="#46484B"/>
<path d="M4.33974 4.54891L5.63295 3.80271L3.99121 2.45215L4.33974 4.54891Z" fill="#46484B"/>
<path d="M20.0433 13.5361H7.66309L8.54177 24.0822H19.1646L20.0433 13.5361Z" fill="#46484B"/>
<path d="M24.9899 3.12316L22.4992 1.68506L21.0615 4.17529L21.0634 4.17576L23.5518 5.61386L24.9899 3.12316Z" fill="#46484B"/>
<path d="M12.8955 3.94873H14.813V12.5774H12.8955V3.94873Z" fill="#46484B"/>
<path d="M22.657 6.20487L20.9989 5.24707L16.7646 12.5776H18.9794L22.657 6.20487Z" fill="#46484B"/>
<path d="M13.1084 2.99027H14.601L13.8546 1L13.1084 2.99027Z" fill="#46484B"/>
<path d="M23.0568 10.3092L22.2266 9.82986L23.9044 6.92392L23.4891 6.68424L23.9685 5.854L24.7987 6.33337C25.0281 6.46585 25.1065 6.75891 24.9743 6.98829L23.0568 10.3092Z" fill="#46484B"/>
</g>
<defs>
<clipPath id="clip0">
<rect width="25" height="25" fill="white" transform="translate(2 1)"/>
</clipPath>
</defs>
</svg>
