<svg width="45" height="48" viewBox="0 0 45 48" fill="none" xmlns="http://www.w3.org/2000/svg">
  <path d="M22.4984 21.6658C22.4984 22.3008 22.7538 22.9097 23.2083 23.3587C23.6629 23.8076 24.2794 24.0598 24.9222 24.0598C25.565 24.0598 26.1815 23.8076 26.636 23.3587C27.0906 22.9097 27.3459 22.3008 27.3459 21.6658C27.3459 21.0309 27.0906 20.422 26.636 19.973C26.1815 19.524 25.565 19.2718 24.9222 19.2718C24.2794 19.2718 23.6629 19.524 23.2083 19.973C22.7538 20.422 22.4984 21.0309 22.4984 21.6658ZM44.7363 42.787L33.6659 14.4838V4.06983H38.0104V0H6.98646V4.06983H11.331V14.4838L0.260553 42.787C0.0908908 43.2299 0 43.6968 0 44.1696C0 46.2823 1.73904 48 3.878 48H41.1189C41.5976 48 42.0702 47.9102 42.5186 47.7426C44.5182 46.9825 45.5119 44.7621 44.7363 42.787ZM15.4514 15.2439V4.18953H29.5455V15.2439L35.0535 29.3267C33.7992 29.0095 32.5025 28.8479 31.1815 28.8479C27.4732 28.8479 23.9588 30.1347 21.1654 32.4389C19.1037 34.14 16.5017 35.0702 13.8154 35.0663C11.834 35.0663 9.93131 34.5696 8.25286 33.6479L15.4514 15.2439ZM4.22944 43.9302L6.7562 37.4783C8.91939 38.5616 11.325 39.1421 13.8214 39.1421C17.5298 39.1421 21.0442 37.8554 23.8376 35.5511C25.8917 33.8633 28.4609 32.9237 31.1876 32.9237C33.3084 32.9237 35.3322 33.4923 37.1015 34.5456L40.7674 43.9302H4.22944Z" fill="#46484B"/>
</svg>
