<svg width="30" height="30" viewBox="0 0 30 30" fill="none" xmlns="http://www.w3.org/2000/svg">
<g clip-path="url(#clip0)">
<path d="M27.4104 23.2986V2.58887L26.6202 2.65512C23.4511 2.91708 20.3427 3.67465 17.4086 4.90051L16.0176 5.47804V26.1058L17.0305 25.6848C20.0669 24.4215 23.2817 23.64 26.559 23.3679L27.4104 23.2986Z" fill="#46484B"/>
<path d="M30.0001 5.65088H28.4465V23.7759C28.4476 24.0459 28.2405 24.2715 27.9712 24.2937L26.6449 24.4025C26.2621 24.4341 25.8803 24.4733 25.5 24.52C25.3766 24.535 25.2539 24.5547 25.1313 24.5719C24.8749 24.606 24.619 24.6407 24.3639 24.6811C24.2152 24.7049 24.0675 24.7327 23.9193 24.7587C23.691 24.7987 23.4622 24.8384 23.2343 24.8834C23.0788 24.9145 22.9236 24.9494 22.765 24.983C22.5481 25.0291 22.3311 25.0761 22.1157 25.1274C21.9541 25.1658 21.793 25.2066 21.6325 25.2475C21.4228 25.2994 21.2142 25.3552 21.0059 25.4134C20.8438 25.4579 20.6817 25.5049 20.5201 25.5525C20.313 25.6137 20.109 25.6759 19.9044 25.7411C19.7444 25.7929 19.584 25.8448 19.4245 25.8964C19.2197 25.9654 19.0159 26.0367 18.8128 26.1103C18.6576 26.1667 18.5021 26.2233 18.3433 26.2827C18.2722 26.3098 18.2017 26.3386 18.1309 26.3662H30.0001V5.65088Z" fill="#46484B"/>
<path d="M4.38003 2.65512L3.58984 2.58887V23.3001L4.50899 23.3782C7.78428 23.6521 10.9964 24.4385 14.0276 25.7086L14.9827 26.1058V5.47804L13.5932 4.90102C10.6588 3.6749 7.54988 2.91708 4.38003 2.65512Z" fill="#46484B"/>
<path d="M1 5.65088V26.3652H12.8776C12.8139 26.3401 12.7501 26.3133 12.6859 26.2896C12.5377 26.2332 12.3883 26.1793 12.2391 26.1249C12.0287 26.0486 11.8186 25.9742 11.6067 25.9032C11.4535 25.8514 11.2997 25.801 11.1458 25.752C10.9356 25.6829 10.7247 25.618 10.5136 25.5573C10.3581 25.5118 10.2028 25.466 10.0476 25.4225C9.83467 25.3636 9.62126 25.3077 9.40734 25.2528C9.25208 25.2129 9.09658 25.1729 8.93778 25.1358C8.72083 25.0839 8.50261 25.0364 8.28464 24.9896C8.12939 24.956 7.97388 24.9218 7.81862 24.8907C7.59282 24.8462 7.366 24.8063 7.13919 24.7666C6.99051 24.7405 6.84182 24.7147 6.69289 24.6882C6.44256 24.6485 6.19147 24.6149 5.94038 24.581C5.81344 24.564 5.68752 24.5438 5.56083 24.5294C5.18104 24.4834 4.80124 24.4442 4.42145 24.4118L3.02743 24.2937C2.75864 24.2707 2.55256 24.0454 2.55357 23.7759V5.65088H1Z" fill="#46484B"/>
</g>
<defs>
<clipPath id="clip0">
<rect width="29" height="29" fill="white" transform="translate(1)"/>
</clipPath>
</defs>
</svg>
