<svg width="30" height="32" viewBox="0 0 30 32" fill="none" xmlns="http://www.w3.org/2000/svg">
<g clip-path="url(#clip0)">
<path d="M13.9382 0.314453H7.64453V29.6851H13.9382V0.314453ZM12.3648 27.5872H9.21796C8.92832 27.5872 8.69348 27.3523 8.69348 27.0627C8.69348 26.7731 8.92832 26.5382 9.21796 26.5382H12.3648C12.6544 26.5382 12.8893 26.7731 12.8893 27.0627C12.8893 27.3523 12.6544 27.5872 12.3648 27.5872ZM12.3648 25.4893H9.21796C8.92832 25.4893 8.69348 25.2544 8.69348 24.9648C8.69348 24.6752 8.92832 24.4403 9.21796 24.4403H12.3648C12.6544 24.4403 12.8893 24.6752 12.8893 24.9648C12.8893 25.2544 12.6544 25.4893 12.3648 25.4893ZM12.3648 5.55921H9.21796C8.92832 5.55921 8.69348 5.32437 8.69348 5.03473C8.69348 4.74509 8.92832 4.51026 9.21796 4.51026H12.3648C12.6544 4.51026 12.8893 4.74509 12.8893 5.03473C12.8893 5.32437 12.6544 5.55921 12.3648 5.55921ZM12.3648 3.46131H9.21796C8.92832 3.46131 8.69348 3.22647 8.69348 2.93683C8.69348 2.64719 8.92832 2.41236 9.21796 2.41236H12.3648C12.6544 2.41236 12.8893 2.64719 12.8893 2.93683C12.8893 3.22647 12.6544 3.46131 12.3648 3.46131Z" fill="currentColor"/>
<path d="M0.300781 29.6851H6.59449V0.314453H0.300781V29.6851ZM1.87421 2.41236H5.02106C5.3107 2.41236 5.54554 2.64719 5.54554 2.93683C5.54554 3.22647 5.3107 3.46131 5.02106 3.46131H1.87421C1.58457 3.46131 1.34973 3.22647 1.34973 2.93683C1.34973 2.64719 1.58457 2.41236 1.87421 2.41236ZM1.87421 4.51026H5.02106C5.3107 4.51026 5.54554 4.74509 5.54554 5.03473C5.54554 5.32437 5.3107 5.55921 5.02106 5.55921H1.87421C1.58457 5.55921 1.34973 5.32437 1.34973 5.03473C1.34973 4.74509 1.58457 4.51026 1.87421 4.51026ZM1.87421 24.4403H5.02106C5.3107 24.4403 5.54554 24.6752 5.54554 24.9648C5.54554 25.2544 5.3107 25.4893 5.02106 25.4893H1.87421C1.58457 25.4893 1.34973 25.2544 1.34973 24.9648C1.34973 24.6752 1.58457 24.4403 1.87421 24.4403ZM1.87421 26.5382H5.02106C5.3107 26.5382 5.54554 26.7731 5.54554 27.0627C5.54554 27.3523 5.3107 27.5872 5.02106 27.5872H1.87421C1.58457 27.5872 1.34973 27.3523 1.34973 27.0627C1.34973 26.7731 1.58457 26.5382 1.87421 26.5382Z" fill="currentColor"/>
<path d="M16.0137 1.62951L23.6147 30.0001L29.6941 28.3711L22.0928 0L16.0137 1.62951ZM17.7057 3.89105C17.6306 3.61115 17.7966 3.32356 18.0765 3.24852L21.1183 2.43466C21.3032 2.37474 21.5061 2.42211 21.6454 2.55759C21.7847 2.6928 21.8377 2.89435 21.7832 3.08078C21.7286 3.26722 21.5757 3.40832 21.3852 3.4475L18.3433 4.26188C18.0637 4.33665 17.7764 4.17071 17.7013 3.89105H17.7057ZM28.0021 26.1088C28.0771 26.3887 27.9112 26.6763 27.6313 26.7513L24.5894 27.5654C24.5451 27.5777 24.4993 27.5839 24.4534 27.5836C24.1902 27.5839 23.9676 27.3887 23.9333 27.1278C23.899 26.8668 24.0634 26.6207 24.3177 26.5526L27.3596 25.7382C27.6395 25.6629 27.9271 25.8291 28.0021 26.1088ZM23.7774 24.5261L26.8195 23.7115C27.0986 23.6383 27.3847 23.8042 27.4592 24.0834C27.534 24.3622 27.369 24.6488 27.0907 24.7249L24.0491 25.5421C24.0048 25.5538 23.9592 25.5597 23.9133 25.5597C23.6501 25.56 23.4275 25.3648 23.393 25.1039C23.3586 24.8427 23.5231 24.5968 23.7774 24.5287V24.5261ZM22.301 4.83142C22.376 5.11133 22.2101 5.39892 21.9302 5.47396L18.8883 6.28858C18.6089 6.36183 18.3231 6.19562 18.2483 5.91674C18.1738 5.63786 18.3385 5.35103 18.6171 5.27523L21.6564 4.4606C21.7911 4.42398 21.9348 4.44242 22.0559 4.51208C22.1768 4.58173 22.2651 4.69672 22.301 4.83142Z" fill="currentColor"/>
</g>
<defs>
<clipPath id="clip0">
<rect width="30" height="30" fill="white"/>
</clipPath>
</defs>
</svg>
