<svg width="31" height="30" viewBox="0 0 31 30" fill="none" xmlns="http://www.w3.org/2000/svg">
<g clip-path="url(#clip0)">
<path d="M3.32031 16.8105L16.8719 3.71191L19.1307 5.89565L5.57908 18.9943L3.32031 16.8105Z" fill="#46484B"/>
<path d="M1.32324 20.9256L4.64772 19.5484L2.74843 17.7119L1.32324 20.9256Z" fill="#46484B"/>
<path d="M22.5188 2.62018C23.1421 2.01739 23.1421 1.04023 22.5188 0.437199C21.8866 -0.145733 20.8921 -0.145733 20.26 0.437199L19.1309 1.52869L21.3896 3.71217L22.5188 2.62018Z" fill="#46484B"/>
<path d="M17.625 2.98426L18.378 2.25635L20.6363 4.43983L19.8835 5.16749L17.625 2.98426Z" fill="#46484B"/>
<path d="M28.104 7.38733H30.7656V1.93994L2.77246 29H30.7656V26.9417H28.104C27.81 26.9417 27.5716 26.7113 27.5716 26.4271C27.5716 26.1429 27.81 25.9125 28.104 25.9125H30.7656V23.8541H29.1686C28.8747 23.8541 28.6363 23.6237 28.6363 23.3396C28.6363 23.0554 28.8747 22.825 29.1686 22.825H30.7656V20.7666H28.104C27.81 20.7666 27.5716 20.5362 27.5716 20.252C27.5716 19.9678 27.81 19.7374 28.104 19.7374H30.7656V17.6791H29.1686C28.8747 17.6791 28.6363 17.4487 28.6363 17.1645C28.6363 16.8803 28.8747 16.6499 29.1686 16.6499H30.7656V14.5916H28.104C27.81 14.5916 27.5716 14.3612 27.5716 14.077C27.5716 13.7928 27.81 13.5624 28.104 13.5624H30.7656V11.504H29.1686C28.8747 11.504 28.6363 11.2736 28.6363 10.9894C28.6363 10.7053 28.8747 10.4749 29.1686 10.4749H30.7656V8.41651H28.104C27.81 8.41651 27.5716 8.1861 27.5716 7.90192C27.5716 7.61774 27.81 7.38733 28.104 7.38733ZM26.507 24.3687C26.507 24.6529 26.2686 24.8833 25.9746 24.8833H14.339C14.1238 24.8833 13.9296 24.7579 13.8472 24.5655C13.7648 24.3733 13.8106 24.1519 13.9626 24.0049L25.5983 12.7576C25.7506 12.6103 25.9796 12.5664 26.1784 12.646C26.3773 12.7257 26.507 12.9131 26.507 13.1214V24.3687Z" fill="#46484B"/>
</g>
<defs>
<clipPath id="clip0">
<rect width="30" height="29" fill="white" transform="translate(1)"/>
</clipPath>
</defs>
</svg>
