<svg width="30" height="32" viewBox="0 0 30 32" fill="none" xmlns="http://www.w3.org/2000/svg">
<g clip-path="url(#clip0)">
<path d="M14.6162 0.0202425C14.4821 0.0290987 14.3472 0.0379548 14.2141 0.0498472C14.1104 0.0589564 14.0115 0.0705958 13.9105 0.0819822C13.7794 0.096405 13.6481 0.11184 13.5181 0.130058C13.4146 0.143975 13.3146 0.160675 13.2134 0.176616C13.0849 0.197365 12.9543 0.219125 12.829 0.243163C12.7253 0.262141 12.6279 0.282889 12.5274 0.304144C12.4004 0.331218 12.2739 0.359052 12.1479 0.389163C12.0484 0.412948 11.9495 0.437998 11.8511 0.463807C11.7256 0.496701 11.6008 0.531113 11.4763 0.56755C11.3789 0.595889 11.2815 0.624988 11.1846 0.655605C11.0609 0.693813 10.9384 0.734804 10.8162 0.776807C10.7205 0.811219 10.6249 0.845885 10.5292 0.88055C10.4073 0.92559 10.2861 0.972654 10.1664 1.02098C10.0735 1.05818 9.98042 1.09487 9.88806 1.13434C9.76737 1.18621 9.64768 1.23808 9.52547 1.294C9.43514 1.3355 9.34506 1.37624 9.25548 1.41925C9.13681 1.47644 9.01915 1.53691 8.90149 1.59764C8.81394 1.64268 8.72563 1.68721 8.63859 1.73453C8.52118 1.7988 8.40555 1.8656 8.28941 1.93291C8.2054 1.98174 8.12089 2.02931 8.03815 2.07967C7.92099 2.15052 7.80536 2.22516 7.69048 2.2998C7.61103 2.35168 7.53082 2.40355 7.45213 2.45517C7.33548 2.53411 7.22086 2.61685 7.10573 2.69934C7.03184 2.75121 6.95669 2.80308 6.88306 2.85951C6.76337 2.94858 6.64673 3.04245 6.52957 3.13557C6.46378 3.18744 6.39648 3.23931 6.3317 3.29118C6.20367 3.39467 6.07918 3.50677 5.95443 3.61658C5.90256 3.66213 5.85069 3.70615 5.79882 3.75246C5.7472 3.79851 5.70722 3.84102 5.66016 3.88454L11.1406 9.36141C13.5274 6.8149 14.9085 3.48829 15.0271 0C14.991 0 14.9545 0 14.9188 0C14.8164 0.00683187 14.7162 0.0139168 14.6162 0.0202425Z" fill="currentColor"/>
<path d="M4.795 4.75415C4.74894 4.80602 4.70492 4.85789 4.65937 4.90976C4.54956 5.03451 4.43898 5.159 4.33397 5.28703C4.2821 5.35181 4.23023 5.41912 4.17836 5.4849C4.08524 5.60206 3.99137 5.71871 3.9023 5.83839C3.84739 5.91152 3.79603 5.98641 3.74314 6.06005C3.66015 6.17568 3.57741 6.29081 3.49796 6.40796C3.44634 6.48615 3.39447 6.56333 3.34259 6.64531C3.26795 6.76069 3.1928 6.87582 3.1217 6.99348C3.07008 7.07622 3.02377 7.16073 2.97519 7.24474C2.90789 7.36088 2.84033 7.47702 2.77682 7.59443C2.73001 7.68097 2.68547 7.76877 2.64043 7.85353C2.5792 7.9717 2.51872 8.08987 2.46103 8.20955C2.41852 8.29836 2.37779 8.38794 2.33679 8.47751C2.28189 8.5977 2.22799 8.71814 2.17612 8.84036C2.13715 8.93145 2.10046 9.02431 2.06352 9.11642C2.01494 9.23787 1.96787 9.35983 1.92208 9.48281C1.88741 9.57719 1.85426 9.67207 1.82162 9.76696C1.77962 9.89019 1.73812 10.0137 1.69941 10.1379C1.6693 10.2343 1.6402 10.3307 1.61236 10.4271C1.57542 10.5524 1.54076 10.6784 1.50862 10.8049C1.48332 10.9028 1.45675 11.0002 1.43499 11.0982C1.40437 11.2257 1.37553 11.3535 1.34896 11.4815C1.32821 11.5812 1.30746 11.6801 1.28899 11.7796C1.26445 11.9086 1.24269 12.0387 1.22143 12.1682C1.20549 12.2682 1.1893 12.3684 1.17538 12.4688C1.15741 12.6004 1.14173 12.7325 1.1273 12.8648C1.11592 12.9648 1.10453 13.0647 1.09517 13.1652C1.08328 13.3 1.07391 13.4352 1.06556 13.5705C1.05924 13.67 1.05215 13.7689 1.04785 13.8691V13.9774C4.53614 13.8585 7.86275 12.4774 10.4093 10.0908L4.92733 4.61523C4.88381 4.66255 4.83801 4.70607 4.795 4.75415Z" fill="currentColor"/>
<path d="M4.92744 24.3851L14.8121 14.5002L11.1401 10.8267C8.39853 13.4068 4.80801 14.8957 1.04492 15.0128C1.1598 18.5041 2.53958 21.8351 4.92744 24.3851Z" fill="currentColor"/>
<path d="M15.5456 13.7672L25.4305 3.88252C22.8802 1.49491 19.5496 0.115382 16.0582 0C15.9411 3.76309 14.4522 7.3536 11.8721 10.0952L15.5456 13.7672Z" fill="currentColor"/>
<path d="M26.2949 24.246C26.3409 24.1941 26.3849 24.1422 26.4305 24.0903C26.5406 23.9656 26.6509 23.8411 26.7561 23.7131C26.8078 23.6483 26.8596 23.581 26.9115 23.5152C27.0049 23.398 27.0985 23.2814 27.1878 23.1617C27.2427 23.0883 27.2943 23.0132 27.3477 22.939C27.4302 22.8239 27.5132 22.7095 27.5919 22.5929C27.6438 22.5139 27.6956 22.4337 27.7473 22.3545C27.8219 22.2394 27.8965 22.1238 27.9676 22.0066C28.0195 21.9239 28.0656 21.8394 28.1142 21.7554C28.1817 21.6392 28.249 21.5233 28.3128 21.4057C28.3593 21.3191 28.4039 21.2316 28.4489 21.1466C28.5101 21.0284 28.5709 20.9102 28.6283 20.7906C28.6708 20.702 28.7118 20.6122 28.7528 20.5226C28.8077 20.4024 28.8616 20.2822 28.9132 20.1597C28.9522 20.0687 28.9889 19.9758 29.0258 19.8837C29.0744 19.7625 29.1217 19.6403 29.1673 19.5173C29.2019 19.4229 29.2351 19.328 29.2677 19.2334C29.3097 19.1099 29.3512 18.9867 29.3902 18.8622C29.42 18.7658 29.4491 18.6694 29.4772 18.573C29.5142 18.4477 29.5486 18.3217 29.5807 18.1952C29.6063 18.0973 29.6326 17.9999 29.6544 17.9014C29.685 17.7744 29.7136 17.6466 29.7404 17.5186C29.7611 17.4197 29.7819 17.32 29.8006 17.22C29.8249 17.0915 29.8467 16.9609 29.8679 16.8319C29.8839 16.7319 29.9001 16.632 29.914 16.5313C29.9322 16.3997 29.9476 16.2676 29.9623 16.1355C29.9737 16.0353 29.9851 15.9354 29.9944 15.8349C30.0063 15.7001 30.0157 15.5649 30.0238 15.4296C30.0301 15.3301 30.0374 15.2312 30.0415 15.1312C30.0415 15.0953 30.0415 15.0591 30.044 15.0229C26.5557 15.1416 23.2294 16.5227 20.6826 18.9095L26.1628 24.3849C26.2063 24.3375 26.2518 24.294 26.2949 24.246Z" fill="currentColor"/>
<path d="M26.1623 4.61523L16.2773 14.5002L19.9493 18.1737C22.6907 15.5938 26.2804 14.1049 30.043 13.9878C29.9284 10.4964 28.5494 7.16554 26.1623 4.61523Z" fill="currentColor"/>
<path d="M16.4734 28.9794C16.6078 28.9705 16.7424 28.9619 16.8755 28.95C16.9792 28.9406 17.0782 28.9293 17.1794 28.9179C17.3105 28.9032 17.4415 28.8878 17.5716 28.8695C17.6753 28.8556 17.7753 28.8389 17.8762 28.823C18.0048 28.8022 18.1353 28.7805 18.2608 28.7567C18.3643 28.7375 18.4617 28.7167 18.5625 28.6955C18.6892 28.6686 18.8157 28.6405 18.9423 28.6104C19.0409 28.5866 19.1399 28.5619 19.2386 28.5358C19.3641 28.5034 19.4891 28.4687 19.6133 28.4323C19.7107 28.4037 19.8081 28.3746 19.905 28.344C20.029 28.3058 20.1512 28.2648 20.2735 28.2228C20.3696 28.1884 20.4653 28.1537 20.5606 28.1193C20.6824 28.074 20.8036 28.0269 20.9232 27.9789C21.0161 27.9414 21.1095 27.9047 21.2016 27.8653C21.3223 27.8134 21.442 27.7618 21.5644 27.7056C21.6545 27.6641 21.7446 27.6234 21.8344 27.5803C21.9531 27.5232 22.0707 27.4627 22.1884 27.402C22.2759 27.3569 22.364 27.3124 22.451 27.2653C22.5687 27.201 22.6843 27.134 22.8002 27.0667C22.8842 27.0181 22.9688 26.9703 23.0517 26.9202C23.1692 26.8491 23.2843 26.7739 23.3999 26.6993C23.4791 26.6474 23.5591 26.5958 23.6373 26.5439C23.7544 26.4645 23.8693 26.3817 23.9849 26.2987C24.0586 26.2469 24.1337 26.195 24.2068 26.1396C24.3265 26.0505 24.4429 25.9566 24.5601 25.8635C24.6259 25.8116 24.6929 25.7598 24.7582 25.7079C24.8845 25.6044 25.0084 25.4946 25.1322 25.385C25.184 25.3385 25.2395 25.2939 25.2918 25.2464C25.3442 25.1986 25.3842 25.1576 25.4308 25.1145L19.9491 19.6382C17.5622 22.1849 16.1812 25.5113 16.0625 28.9996C16.0989 28.9996 16.1351 28.9996 16.1708 28.9971C16.2735 28.993 16.3735 28.9857 16.4734 28.9794Z" fill="currentColor"/>
<path d="M15.5458 15.2324L5.66113 25.1174C8.21119 27.5047 11.5418 28.8845 15.0334 28.9996C15.1503 25.2365 16.6392 21.646 19.2193 18.9044L15.5458 15.2324Z" fill="currentColor"/>
</g>
<defs>
<clipPath id="clip0">
<rect width="29" height="29" fill="white" transform="translate(1)"/>
</clipPath>
</defs>
</svg>
